<svg viewBox="0 0 63 43" fill="none" xmlns="http://www.w3.org/2000/svg"><mask id="b" style="mask-type:alpha" maskUnits="userSpaceOnUse" x="0" y="0" width="63" height="43"><path fill="#D9D9D9" d="M0 0h63v43H0z"/></mask><g filter="url(#a)" mask="url(#b)"><path d="M34.102 35.76c-.758 1.347-2.692 1.362-3.47.026L15.264 9.426A46.328 46.328 0 0 0 8 0h48.083a43.72 43.72 0 0 0-7.185 9.471l-14.796 26.29z" fill="#FFFCEF"/><path d="M8-1.5H4.379l2.56 2.56a44.83 44.83 0 0 1 7.03 9.122l15.367 26.36c1.362 2.337 4.747 2.311 6.073-.046l14.796-26.29a42.221 42.221 0 0 1 6.939-9.145l2.56-2.56h-3.621L8-1.5z" stroke="#FFE577" stroke-width="3"/></g><defs><filter id="a" x="-2.243" y="-4" width="68.568" height="48.779" filterUnits="userSpaceOnUse" color-interpolation-filters="sRGB"><feFlood flood-opacity="0" result="BackgroundImageFix"/><feColorMatrix in="SourceAlpha" values="0 0 0 0 0 0 0 0 0 0 0 0 0 0 0 0 0 0 127 0" result="hardAlpha"/><feOffset dy="2"/><feGaussianBlur stdDeviation="1.5"/><feComposite in2="hardAlpha" operator="out"/><feColorMatrix values="0 0 0 0 0.7875 0 0 0 0 0.701982 0 0 0 0 0.331406 0 0 0 0.5 0"/><feBlend in2="BackgroundImageFix" result="effect1_dropShadow_1324_8116"/><feBlend in="SourceGraphic" in2="effect1_dropShadow_1324_8116" result="shape"/></filter></defs></svg>