<svg width="436" height="305" fill="none" xmlns="http://www.w3.org/2000/svg"><path d="M100.919 19.828S15.455 85.15 2.605 161.332c-8.208 48.745 14.381 95.273 71.266 120.434 57.869 25.596 180.395 34.01 281.464 1.772 33.153-10.563 62.418-31.552 75.805-69.402 15.159-42.881-10.129-95.88-90.792-181.641-2.058-5.385-239.429-12.667-239.429-12.667Z" fill="url(#a)"/><mask id="b" style="mask-type:luminance" maskUnits="userSpaceOnUse" x="0" y="19" width="436" height="286"><path d="M100.919 19.83S15.455 85.152 2.605 161.334c-8.208 48.745 14.381 95.273 71.266 120.434 57.869 25.596 180.395 34.01 281.464 1.772 33.153-10.563 62.418-31.552 75.805-69.403 15.159-42.88-10.129-95.879-90.792-181.64-2.058-5.385-239.429-12.667-239.429-12.667Z" fill="#fff"/></mask><g mask="url(#b)"><path d="M125.1 16.286C76.49 41 54.5 76.971 69.937 89.263c17.996 14.331 35.197-49.741 72.315-68.652-10.322 0-17.152-4.325-17.152-4.325Z" fill="#DB812F"/><path d="M158.36 30.355c-25.568 25.58-30.456 118.106-58.757 110.387-42.614-11.622 25.29-97.095 47.671-113.332 3.407 1.044 11.086 2.945 11.086 2.945Z" fill="#E3842D"/><path d="M303.828 31.424c27.1 23.734 34.639 54.708 51.433 50.79 22.971-5.36-14.124-36.585-42.248-53.198-3.692 1.869-9.185 2.408-9.185 2.408Z" fill="#A75509"/><path d="M293.935 34.395c13.718 6.996 87.945 89.705 45.944 96.551-30.843 5.027-44.372-84.702-61.245-94.979l15.301-1.572Z" fill="#AC5C12"/><path d="M220.138 34.395c13.718 6.996 48.363 81.631 5.808 81.631-36.453 0-24.313-67.043-21.109-80.059l15.301-1.572Z" fill="#CA6D17"/><path d="M91.022 28.013c-2.976 2.88 4.696 2.3 6.708 6.785 3.139 6.995 11.732 11.497 17.726 8.309 4.054-2.156 9.037-1.593 12.4 3.014 1.597 2.187 11.698 7.45 18.896 3.596 4.663-2.496 13.011-4.644 23.939-2.583 10.666 2.012 22.108-2.353 31.637 2.295 9.53 4.649 21.655 4.649 30.637 1.15 11.758-4.579 25.058 1.075 31.437 0 4.275-.136 10.478-5.391 22.454-2.846 7.984 1.696 16.317 1.696 20.958-1.797 2.941-2.213 4.761-3.252 8.239-2.046 7.886 2.734 13.477-.76 18.002-.76 8.644 0 32.577 13.491 32.577 13.491L327.736 12.45 100.13 17.81l-9.108 10.203Z" fill="url(#c)" fill-opacity=".76"/><path d="M371.283 57.76c35.439 74.456 10.375 172.671-76.745 201.712-156.766 52.255-263.559-13.224-314.076-58.299-20.692 57.399 225.996 182.909 225.996 182.909l283.934-149.986L371.283 57.76Z" fill="#CD6810"/></g><path d="M94.286 19.302c-.23-7.312 7.387-10.35 10.992-9.96 128.37 13.665 181.37 17.224 211.151 12.36a2.346 2.346 0 0 1 1.616.151c.775.463.762 1.562.661 2.456-.19 1.67-.795 5.962-.985 7.584-.087.728-.179 1.778-.893 1.9-76.413 13.718-223.113 5.793-222.542-14.491Z" fill="#7C4E01"/><mask id="d" style="mask-type:luminance" maskUnits="userSpaceOnUse" x="94" y="9" width="225" height="32"><path d="M94.286 19.3c-.23-7.312 7.387-10.35 10.992-9.96 128.37 13.666 181.37 17.224 211.151 12.36a2.347 2.347 0 0 1 1.616.151c.775.463.762 1.562.661 2.457-.19 1.67-.795 5.961-.985 7.583-.087.728-.179 1.778-.893 1.9C240.415 47.51 93.715 39.585 94.286 19.3Z" fill="#fff"/></mask><g filter="url(#e)" mask="url(#d)"><path d="M94.648 13.584c-.23-7.312 7.388-10.35 10.992-9.972C233.999 17.29 287.01 20.849 316.791 15.985a2.412 2.412 0 0 1 1.617.139c.763.475.761 1.574.66 2.468-.189 1.67-.806 5.962-.995 7.584-.077.727-2.469 3.978-3.195 4.1-55.597 9.403-220.895 6.804-220.23-16.692Z" fill="#A16605"/></g><path d="M327.282 19.954c.17 2.912.7 5.792 1.577 8.574l-13.238 4.459c.96-1.28 1.075-8.369 1.429-10.22l-1.143-1.532c2.995-1.018 8.139-.755 11.375-1.28Z" fill="#87531B"/><path d="M101.377 14.411c-7.282-2.126-6.025-18.017 4.972-13.432 34.079 14.22 192.319 16.427 213.994 10.437a2.135 2.135 0 0 1 1.657.171c.789.48.766 1.6.652 2.504-.206 1.692-.892 5.99-1.143 7.682-.092.743-.263 1.59-.949 1.92-.297.15-13.25 2.516-22.201 3.35-38.697 3.59-62.075 1.372-100.943.4-19.583-.503-60.178-3.92-78.046-8.448-4.252-1.086-12.723-3.04-17.993-4.584Z" fill="#835201"/><mask id="f" style="mask-type:luminance" maskUnits="userSpaceOnUse" x="96" y="0" width="227" height="30"><path d="M101.376 14.41c-7.282-2.126-6.024-18.017 4.973-13.432 34.079 14.22 192.318 16.427 213.993 10.437a2.142 2.142 0 0 1 1.658.171c.789.48.766 1.6.652 2.504-.206 1.692-.892 5.99-1.144 7.682-.091.743-.263 1.59-.948 1.92-.298.15-13.25 2.516-22.201 3.35-38.697 3.59-62.075 1.372-100.944.4-19.582-.503-60.177-3.92-78.045-8.448-4.253-1.086-12.724-3.04-17.994-4.584Z" fill="#fff"/></mask><g filter="url(#g)" mask="url(#f)"><path d="M101.228 7.924c-6.962-2.23-6.333-15.388 5.007-13.364C221.571 15.069 282.823 11.97 311.849 7.866a2.389 2.389 0 0 1 1.6.195c.743.503.709 1.612.583 2.515-.24 1.692-.96 5.99-1.2 7.67-.103.744-.332-1.739-.983-1.419 0 0 14.09.494-1.891 1.42-32.502 5.349-79.196 5.498-116.555 3.99-18.828-.755-57.811-4.722-74.913-9.49-4.07-1.142-12.221-3.212-17.262-4.823Z" fill="#A16605"/></g><defs><linearGradient id="a" x1="16.867" y1="75.768" x2="225.039" y2="281.288" gradientUnits="userSpaceOnUse"><stop stop-color="#FE9E4A"/><stop offset="1" stop-color="#D87117"/></linearGradient><linearGradient id="c" x1="218.645" y1="139.227" x2="227.973" y2="50.55" gradientUnits="userSpaceOnUse"><stop stop-color="#E37F27"/><stop offset="1" stop-color="#944C08"/></linearGradient><filter id="e" x="92.443" y="1.381" width="228.872" height="36.177" filterUnits="userSpaceOnUse" color-interpolation-filters="sRGB"><feFlood flood-opacity="0" result="BackgroundImageFix"/><feBlend in="SourceGraphic" in2="BackgroundImageFix" result="shape"/><feGaussianBlur stdDeviation="1.1" result="effect1_foregroundBlur_2813_8036"/></filter><filter id="g" x="94.704" y="-7.651" width="224.883" height="32.712" filterUnits="userSpaceOnUse" color-interpolation-filters="sRGB"><feFlood flood-opacity="0" result="BackgroundImageFix"/><feBlend in="SourceGraphic" in2="BackgroundImageFix" result="shape"/><feGaussianBlur stdDeviation="1" result="effect1_foregroundBlur_2813_8036"/></filter></defs></svg>