<svg width="302" height="133" fill="none" xmlns="http://www.w3.org/2000/svg"><path d="M300.289 32.483c1.188-3.277.911-5.632-.695-8.282 0 3.939-2.512 8.92-10.122 15.85-7.086 6.454-22.954 7.727-29.112 8.297-5.751.533-17.393.482-24.928 0l-2.816.533c3.095.609 12.041 1.933 23.062 2.36 13.776.532 23.747-3.35 29.836-5.024 6.089-1.675 13.586-10.457 14.775-13.734Z" fill="#E58E42"/><path d="M77.417 14.37c-3.896 8.05-8.811 9.056-22.517 4.161-13.165-4.701-23.624-9.318-35-7.51-5.056.804-16.755 6.08-12.237 19.503 16.368 48.636 19.9 55.849 28.459 72.033 93.635 26.796 225.4 10.064 225.4 10.064s12.11-21.77 27.19-44.619c8.469-12.832 15.498-34.29 11.843-41.842-6.031 21.385-28.295 23.575-43.919 23.575-25.359 0-50.72-8.566-65.729-15.237C163.525 22.328 130.76.744 101.771.744 82.65.744 78.932 11.24 77.417 14.371Z" fill="#D46B10"/><path d="M77.417 14.37c-3.896 8.05-8.811 9.056-22.517 4.161-13.165-4.701-23.624-9.318-35-7.51-5.056.804-16.755 6.08-12.237 19.503 16.368 48.636 19.9 55.849 28.459 72.033 93.635 26.796 225.4 10.064 225.4 10.064s12.11-21.77 27.19-44.619c8.469-12.832 15.498-34.29 11.843-41.842-6.031 21.385-28.295 23.575-43.919 23.575-25.359 0-50.72-8.566-65.729-15.237C163.525 22.328 130.76.744 101.771.744 82.65.744 78.932 11.24 77.417 14.371Z" fill="url(#a)"/><path d="M76.517 111.348c9.81 0 7.85 1.032 19.62 2.012-2.767-18.11-9.055-71.938-33.706-71.938-28.926 0 10.062 40.748 14.086 69.926Z" fill="#BC600A"/><path d="M43.304 77.647c-8.52 2.636-.775 17.475 6.971 28.848l10.586 1.526c-6.713-14.84-9.037-33.009-17.557-30.374Z" fill="#CA6D17"/><path d="M161.523 58.462c-22.889-7.194-32.368 38.842-25.133 60.432 1.905 2.069 5.941 4.38 15.994-2.931 9.139-13.553 35.795-49.123 9.139-57.5ZM232.607 75.954c-17.382 0-30.8 30.668-26.538 54.635 5.16 1.765 10.597 1.528 8.727-4.126-2.338-7.067 4.149-12.51 17.811-24.892 6.579-5.963 16.853-25.617 0-25.617Z" fill="#BD5F0C"/><path d="M38.271 7.879c.927 2.308.94 5.046.675 7.497-.046.427-.086.797-.424 1.023M42.782 17.527c1.52-2.56 2.183-6.546 1.782-9.508M49.652 13.76c-1.596 1.22-2.178 2.96-2.789 4.814" stroke="#ED8B35" stroke-width="2" stroke-linecap="round"/><path d="M277.487 72.948c3.725-1.863 6.995-2.142 11.164-2.35" stroke="#D36A0F" stroke-width="2" stroke-linecap="round"/><path d="M279.837 71.773c2.791.107 4.578 1.64 6.464 3.525" stroke="#D36A0F" stroke-width="2" stroke-linecap="round"/><path d="M4.89 28.245c5.895-1.458 7.93.592 12.525 3.97M1.91 23.628c3.407.52 5.806 1.318 8.815 2.938" stroke="#F0903B" stroke-width="2" stroke-linecap="round"/><defs><linearGradient id="a" x1="24.308" y1="17.847" x2="112.724" y2="75.317" gradientUnits="userSpaceOnUse"><stop stop-color="#F1903C"/><stop offset="1" stop-color="#D26A0F"/></linearGradient></defs></svg>