<svg width="166" height="52" fill="none" xmlns="http://www.w3.org/2000/svg"><path d="M80.71 2.32C69.711-2.052 32.86.74.17 14.95c0 0 50.516 29.073 102.602 35.766 14.384 1.849 43.188 2.663 54.76-9.961 2.325-2.537 6.733-14.101 7.339-17.72.556-3.314 1.469-9.986-3.373-14.389-4.843-4.402-17.882-6.523-35.556-1.998-17.674 4.525-28.071 12.634-34.763 11.177C83.103 16.064 89.743 5.91 80.71 2.32Z" fill="#E68E42"/><path d="M79.27 4.058C68.273-.315 25.605 3.11 6.804 16.577c0 0 26.286 21.776 78.372 28.469 14.384 1.848 49.998 0 56.942-6.134 2.578-2.278 11.865-12.064 14.004-15.046 2.138-2.981 6.254-9.022 1.411-13.425-4.843-4.402-15.415-5.299-30.047-2.162-14.631 3.136-31.232 14.116-37.924 12.658-11.375-2.477-1.257-13.288-10.29-16.88Z" fill="#9B530E"/></svg>