<svg width="1024" height="1024" fill="none" xmlns="http://www.w3.org/2000/svg"><mask id="a" style="mask-type:alpha" maskUnits="userSpaceOnUse" x="0" y="0" width="1024" height="1024"><path fill="#D9D9D930" d="M0 0h1024v1024H0z"/></mask><g mask="url(#a)"><path d="M395.299 1637.83c-78.567-8.12-156.44-24.56-231.442-48.85L504.466 537.772c.085.031.17.062.254.085l6.242-19.334L395.299 1637.83Zm234.567-.12L513.038 518.446l6.327 19.388c.061-.024.123-.039.185-.062L861.224 1588.62c-74.972 24.38-152.806 40.89-231.358 49.09Zm-682.215-144.93c-68.033-39.3-132.176-85.9-190.651-138.5l752.952-836.814-10.432 18.099c.278.162.571.324.864.479L-52.349 1492.78Zm1129.659-.55L523.623 536.044c.317-.17.633-.34.934-.517l-10.47-18.038 753.683 836.091c-58.41 52.65-122.48 99.29-190.46 138.65Zm-1477.948-312.66c-46.421-63.68-86.241-132.4-118.35-204.23L489.891 524.456c.085.193.17.393.262.594l18.633-8.355-909.424 662.875Zm1825.908-.86L515.159 516.664l18.718 8.317c.085-.178.162-.355.232-.541L1543.46 974.283c-32.05 71.897-71.82 140.677-118.19 204.427ZM-592.335 750.157C-608.622 673.524-616.92 594.778-617 516.093l1104.785-1.142v.494l19.435-.054-18.903 4.035c.07.347.155.694.239 1.041l-1080.891 229.69Zm2208.925-1.173L535.444 520.452c.092-.371.185-.749.262-1.119l-18.88-3.973L1641 512.081v2.839c0 78.677-8.22 157.424-24.41 234.064ZM512.012 521.393l-.487-4.614.016-.046-.016.031-.061-.579.123-.393-.154.116-.008-.085.239-.262-.262.053-.008-.084.24-.108-.209-.047h.232l-.124-.216.008-.007-.023-.016-.07-.123.155.069.177-.154.062.069.046-.069.116.247.054-.054.062-.193.03.092.101-.092.139.154.138-.062-.077.132.008.007-.015.008-.116.208h.208l-.185.039.262.108-.015.1-.239-.054.224.247-.008.085-.178-.131.147.447-.062.54.031.093-.031-.062-.47 4.606Zm1.033-3.634-.1-.162-.015-.185.115.347Zm-2.091-.023.132-.378-.023.201-.109.177Zm-1.18-.617 1.042-1.157-.394.686-.648.471Zm4.421-.039-.594-.432-.37-.64.964 1.072Zm1.682-.763-1.682-.355-.81-.594h.37l2.122.949Zm-7.777 0 2.091-.934.409-.008-.787.571-1.713.371Zm4.845-.618-.2-.046-.008-.069.208.115Zm-1.882-.015.007-.008.193-.085-.008.054-.192.039Zm-.278-.44-.185-.046.617-.27-.432.316Zm2.407-.015-.393-.286.563.255-.17.031Zm-1.836-.209-.023-.061.046.023-.023.038Zm1.296-.007-.023-.039.038-.015-.015.054Zm.023-.016v-.038l.085-.031.008.008-.093.061Zm-1.35 0-.093-.069.101.031-.008.038Zm1.342-.054v-.015h.008l-.008.015Zm-1.257-.007-.008-.008h.008v.008Zm-2.068 0-.015-.008h.038l-.023.008Zm-21.557-.016v-.2.2Zm23.555-.092-.023-.054-.031-.255-.108.023-.247-.416-1.142-.247-.987-.718 2.129.949-.208-.355.355.394-.108-.023.147.069.154.17-.016-.108.139.061-.015.162.015.016-.015.008-.039.324Zm1.312-.024-.031-.308.016-.016-.016-.007-.015-.17.139-.062-.016.131.185-.2-.038.008.046-.024.285-.316-.146.255 2.183-.972-1.064.779-1.142.247-.216.37-.108-.023-.062.308Zm-.054-.563-.023-.239.162-.185-.17.123-.031-.293.394-1.211-.139 1.327 1.304-1.458-.517.903-.787.57-.046.432-.147.031Zm-1.188-.023-.162-.031-.039-.401-.81-.586-.517-.895 1.327 1.466-.146-1.366.401 1.235-.031.308-.185-.131.177.193-.015.208Zm4.382-.663L1542.51 53.425c32.31 72.1 57.07 147.829 73.58 225.086L515.792 513.555Zm-7.685-.031L-592.827 282.006A1127.08 1127.08 0 0 1-519.939 56.63L508.107 513.524Zm4.368-.44v-.023l.57-1.751-.1.956-.47.818Zm-.965-.046-.463-.795-.1-.918.563 1.713Zm-1.628-.216-17.167-12.491c-.185.255-.363.509-.532.772L-401.955-147.92c46.108-63.509 99.029-122.397 157.298-175.028l740.566 819.777c-.085.077-.169.146-.247.216l14.22 15.777Zm4.282-.047 14.166-15.738c-.1-.085-.193-.17-.293-.255l738.093-822.009a1134.425 1134.425 0 0 1 157.81 174.534L531.786 501.041a22.416 22.416 0 0 0-.517-.733l-17.105 12.467Zm-1.134-.648 345.995-1071.63c75.087 24.239 147.855 56.526 216.305 95.965l-562.3 975.665Zm-2.06-.015L-54.327-461.8c68.312-39.647 140.979-72.156 215.977-96.624L510.97 512.112Zm1.026-3.611-1.844-17.69c-.44.046-.895.1-1.35.177L392.969-607.752A1140.05 1140.05 0 0 1 511.981-614c38.508 0 77.371 1.98 115.54 5.882l-112.4 1099.091c-.44-.069-.872-.123-1.296-.17l-1.829 17.698Z" fill="#fff"/></g></svg>