<svg width="1024" height="768" fill="none" xmlns="http://www.w3.org/2000/svg"><mask id="a" style="mask-type:alpha" maskUnits="userSpaceOnUse" x="0" y="0" width="1024" height="768"><path fill="#D9D9D9" d="M0 0h1024v768H0z"/></mask><g mask="url(#a)"><path fill="url(#b)" d="M0 0h1024v294H0z"/><path d="m1060 95.5-1075.5-76-7 128.5L1053 136.5l7-41Z" fill="url(#c)"/><path d="M1061.5 232-41 133.5l-8.5 107 1099.5 45 11.5-53.5Z" fill="url(#d)"/><path opacity=".8" d="M684.474 210.199c4.062-6.725 8.307-13.319 13.626-18.977 8.244-8.772 19.054-15.228 30.946-17.253 19.505-3.323 41.182 6.629 49.454 24.756 2.77-6.146 11.442-8.605 16.981-4.814 1.363-28.656 27.856-53.066 56.284-53.888 28.429-.822 55.422 20.365 63.701 47.811l6.416-6.109c2.381.527 4.498 2.163 5.62 4.347 6.047-10.238 23.576-9.933 29.269.51 2.247-4.778 8.182-6.907 13.364-6.106 5.183.801 9.71 3.929 13.715 7.342 24.96 21.264 36.01 57.762 27.09 89.466-1.18 4.176-71.002 3.739-78.606 4.06a4132.77 4132.77 0 0 1-247.735 2.995c-30.354-.543-62.579 1.238-92.599-2.992 8.734-14.885 24.883-26.879 39.261-35.689 7.657-4.692 16.028-9.096 24.889-10.911 7.748-1.576 12.922-.493 17.92-7.759 3.693-5.37 6.983-11.126 10.404-16.789Z" fill="url(#e)"/><path opacity=".8" d="M-5.893 204.281c14.78-13.348 35.596-21.158 54.99-16.629 19.393 4.53 35.589 23.418 33.437 43.217 5.84-5.21 16.453-3.184 19.96 3.814 7.666-16.958 32.551-19.598 48.283-9.655 15.732 9.942 24.171 27.965 30.88 45.326 3.836-5.402 13.942-3.567 15.632 2.84 8.344-14.796 27.111-22.104 43.808-18.98 16.697 3.125 30.849 15.464 38.438 30.662l23.666-9.005c9.723-3.699 19.886-7.461 30.238-6.424 18.84 1.889 32.509 18.953 40.341 36.192 1.825 4.018 3.702 8.401 7.516 10.619 2.775 1.612 6.114 1.791 9.287 2.272 17.925 2.725 33.415 17.392 37.113 35.141C322 381.05 210.175 360.194 101.388 369.509c-38.18 3.269-75.926 10.26-113.822 15.937-7.07 1.06-14.571 2.024-21.148-.783-12.04-5.141-15.867-20.741-13.948-33.693 1.92-12.951 7.88-25.117 9.087-38.155 1.91-20.658-7.029-39.941.758-59.885 6.808-17.441 17.838-36.046 31.792-48.649Z" fill="url(#f)"/><path opacity=".66" d="M600.928 166.715s-4.432-12.41-16.842-15.956c-12.41-3.545-19.502-.886-19.502-.886s1.774-23.048-31.911-25.707c-33.684-2.659-36.344 27.479-36.344 27.479s-7.977-7.979-23.933-5.318c-15.956 2.659-29.252 18.614-31.912 17.729-2.659-.887-11.523-10.638-21.273-7.092-9.751 3.546-17.728 19.502-21.274 19.502-3.546 0-1.772-2.659-27.479 4.433-6.508 1.795 57.618 12.409 109.918 12.409 52.298 0 68.254-6.205 99.28-11.523 31.024-5.318 46.093-16.842 46.093-16.842s-11.524-3.546-24.821 1.772Z" fill="url(#g)"/><path opacity=".8" d="M709 109.569s167.784 7.488 273.578-39.938c1.898-5.026-2.96-11.667-7.55-14.462-4.591-2.794-11.114-1.84-14.712 2.15-4.659-4.943-3.509-12.711-3.911-19.49-1.023-17.212-15.603-32.623-32.74-34.61-17.139-1.984-34.859 9.685-39.794 26.207-6.831-10.028-23.082-9.246-32.137-1.166-9.054 8.08-12.362 20.756-13.798 32.802-5.738-8.07-21.431-2.68-20.993 7.21-5.676-8.251-12.247-17.133-22.014-19.36-10.639-2.425-21.67 4.32-27.643 13.447-5.972 9.128-7.988 20.201-9.875 30.942-2.355-4.473-8.921-.566-12.762 2.722-9.737 8.338-22.828 13.546-35.649 13.546Z" fill="url(#h)"/><path d="M212.492 184.92c-4.899-.442-6.615-25.179-19.839-13.006-.058-3.643-4.37-6.501-7.746-5.137 3.204-9.935-2.372-20.599-9.274-28.433-3.317-3.767-7.072-7.284-11.628-9.39-7.253-3.355-15.007-1.535-21.476 2.672-4.363 2.823-7.212 6.931-11.138 10.139-4.71 3.847-2.289-3.051-5.216-5.544-1.244-1.06-3.113-1.221-4.619-.59-1.4.586-2.425 1.805-3.222 3.051-.155-9.621 1.728-18.301-1.981-27.778-3.483-8.901-11.157-16.566-20.596-18.05-14.732-2.314-27.428 10.123-36.031 22.304-.214-4.207-3.421-8.087-7.511-9.089-4.092-1.004-8.73.954-10.865 4.585-4.098-7.661-9.328-16.175-17.896-17.615-10.826-1.821-19.433 8.536-25.483 17.693-2.62-6.744-13.521-7.056-17.7-1.15-4.18 5.907 1.525 17.963 7.201 22.449 0 0 136.849 61.885 260.058 62.825-11.716-4.828-22.417-8.798-35.038-9.936Z" fill="url(#i)"/><path opacity=".8" d="M134.316 45.42S253.895 126.67 389 105.472c-13.574-3.49-26.558-10.176-40.131-13.666-4.411-10.248-11.024-20.229-21.1-25.092-10.075-4.864-24.093-2.784-29.786 6.815-3.011-4.124-8.498-6.295-13.531-5.352.763-11.969-2.947-24.17-10.248-33.708-8.286-10.823-21.328-18.101-34.983-18.706-13.656-.605-27.604 5.755-35.453 16.897-2.338-2.866-4.779-5.816-8.098-7.461-3.319-1.647-7.782-1.615-10.319 1.076-4.496-6.973-9.1-14.071-15.546-19.315-6.445-5.243-15.156-8.42-23.2-6.29-7.485 1.984-13.113 8.092-17.55 14.414-2.794 3.98-5.356 8.315-6.016 13.127-.659 4.809 7.175 14.58 11.277 17.21Z" fill="url(#j)"/><path d="M602.3 240.066c-18.59 0-29.95 7.23-40.279 6.197-10.327-1.033-35.115-10.329-42.345-10.329-7.23 0-92.952 26.853-107.411 26.853-14.459 0-18.59-2.065-23.755 0-5.164 2.066-8.262 5.165-19.623 6.197-11.36 1.033-45.443 2.066-52.672 1.033-7.23-1.033-45.443-12.393-52.673-10.328-7.23 2.065-32.017 15.491-43.378 17.557-11.36 2.066-32.016 2.066-32.016 2.066L152 297.902s647.327-3.557 737.402-.769c-19.65-4.394-59.886-18.854-59.886-18.854-5.164 0-208.625-38.213-227.216-38.213Z" fill="#4DB97E"/><path d="M899.746 297.902c.298-.298-3.345-.553-10.346-.769 5.534 1.237 9.438 1.677 10.346.769Z" fill="#6BA7AC"/><path d="M388.51 262.786c-5.165 2.066-8.263 5.164-19.623 6.197-11.361 1.033-45.444 2.066-52.673 1.033-7.23-1.033-45.443-12.393-52.673-10.328-1.318.376-3.225 1.134-5.523 2.128 3.343.92 6.459 1.798 8.335 2.601 6.889 2.951 8.857 7.38 8.857 9.348 0 1.968-4.428 6.887-12.793 10.824-8.364 3.936 22.634 1.477 26.078 3.445 3.445 1.968-22.141 6.396-26.569 8.364-1.107.492.93.791 4.682.935 5.877-.027 11.924-.055 18.122-.082 10.587-.315 21.276-1.001 23.447-1.836 4.771-1.835 30.505-11.316 32.474-11.316h16.237c3.936 0 18.205-12.3 19.682-13.285 1.476-.984 12.792-.493 22.633-1.476 3.768-.377 11.505-3.569 19.865-7.39-2.942.536-5.274.838-6.801.838-14.462 0-18.593-2.064-23.757 0ZM562.021 246.262c-10.327-1.033-35.114-10.329-42.344-10.329-.159 0-.369.018-.603.043 2.128 3.141 6.38 7 6.086 8.76-.492 2.952-4.428 3.936-8.364 6.396-3.936 2.461 3.445 7.873 3.445 7.873s-14.269 7.873-24.109 9.348c-9.841 1.477-23.617 1.477-33.95 3.445-10.332 1.968 14.761 1.476 15.253 3.444.492 1.968-23.124 14.27-25.585 15.745-2.46 1.476 17.714-5.412 20.173-5.412 2.459 0 14.761-2.461 21.65-3.936 6.889-1.477 20.173-9.841 24.601-11.316 4.428-1.477 13.285.492 18.205-2.461 4.92-2.952 11.316-4.92 14.761-5.412 3.444-.493.984 10.824.984 10.824s15.253-15.253 24.11-20.665c6.352-3.882 18.27-8.769 29.587-12.316-1.557-.149-2.78-.227-3.619-.227-18.592 0-29.952 7.228-40.281 6.196Z" fill="#36A468"/><path d="M1077.48 241.874c-16.35-12.723-22.72-15.449-40.89-22.72-18.18-7.27-39.987-10.904-54.526-19.992-14.54-9.087-26.354-14.54-30.898-14.54-4.544 0-54.526 35.441-74.518 40.894-19.993 5.453-14.54-5.453-30.898-9.087-16.358-3.635-29.08-9.996-33.624-9.996-4.544 0-26.353 18.175-46.346 20.902-19.993 2.726-48.164 24.537-58.161 25.446-9.996.909-25.446-1.818-31.807.909-6.36 2.726-15.448 10.904-28.171 14.539-12.722 3.636-104.507 22.72-104.507 22.72l-37.259 6.362 617.955-3.636s-29.99-39.078-46.35-51.801Z" fill="#97C534"/><path d="M952.197 184.703a7.955 7.955 0 0 0-1.031-.08c-4.544 0-54.526 35.441-74.518 40.894-19.993 5.453-14.54-5.453-30.898-9.087-16.358-3.635-29.08-9.996-33.624-9.996-.78 0-2.079.544-3.778 1.446 1.871 2.978 4.323 6.104 5.339 8.899 2.338 6.429 19.873 4.676 28.056 5.845 8.183 1.169 5.845 3.506 6.429 8.183.585 4.676 26.887 15.197 24.549 18.119-2.337 2.922-19.288 6.43-26.302 9.936-7.014 3.508 10.522 14.613 4.677 20.458-4.164 4.165-16.338 11.294-25.109 16.107l7.808-.045a2184.18 2184.18 0 0 0 22.562-7.294c1.753-.585 49.098-19.29 53.189-21.627 4.092-2.338-7.598-5.846-7.598-5.846s37.408-25.717 41.499-30.978c4.092-5.261-7.598-14.028-5.845-19.874 1.319-4.401 10.257-18.405 14.595-25.06Z" fill="#89B52A"/><path d="M1077.48 241.874c-16.35-12.723-22.72-15.449-40.89-22.72-18.18-7.27-39.987-10.904-54.526-19.992-14.54-9.087-26.354-14.54-30.898-14.54 0 0 22.674 16.371 33.779 23.386 11.106 7.014-25.133 27.472-23.38 32.731 1.753 5.261 37.993 6.43 52.605 11.105 14.61 4.677 10.52 13.444 20.46 14.613 9.93 1.169 42.67 4.677 49.1 7.599 4.52 2.057-10.93 12.514-17.42 19.954l57.52-.338c0 .002-29.99-39.075-46.35-51.798Z" fill="#AFDA53"/><path d="M697.651 252.863c-2.356 3.932-5.416 8.278-11.971 11.258-12.859 5.845-14.613 2.337-24.549 4.676-9.936 2.338 12.275 4.092 12.275 4.092s-39.161 14.613-43.253 16.951c-4.093 2.337 23.964-8.768 34.485-11.105 10.52-2.338 32.731-1.169 36.239-3.507 3.507-2.338 7.599-15.197 20.458-23.38 10.236-6.513 29.346-18.204 36.723-22.706-18.945 5.984-41.676 22.842-50.44 23.639-2.967.268-6.419.216-9.967.082Z" fill="#89B52A"/><path fill="url(#k)" d="M0 294h1024v475H0z"/><path opacity=".5" d="M1160.14 361.775c14.7-.115 29.38 1.892 43.86 5.996-44.1 4.704-88.26 7.514-132.45 8.429-5.49.104-11.32 0-15.96-4.901-2.32-2.468-4.24-6.065-6.75-7.925-2.31-1.404-4.77-2.042-7.24-1.877a3167.944 3167.944 0 0 0-143.443-2.381c-5.637 0-11.565.209-16.448 4.988-3.643 3.563-6.294 9.315-9.28 14.32-17.245 29.04-44.191 31.838-68.549 32.898-9.701.417-20.328.261-27.625-10.427a7327.172 7327.172 0 0 0 6.251-20.576c-5.292-7.751-13.289-4.31-20.273-3.268-21.428 3.146-40.57-20.594-61.07-31.49-14.378-7.647-29.672-8.95-44.751-8.689-39.33.729-78.315 6.047-117.796 6.517-41.507.504-82.992 2.519-124.51 5.213-89.901 5.961-179.716 15.398-269.639 20.333-22.225 1.234-267.699 2.59-267.246-6.204 1.509-30.083 10.994-55.125 17.989-83.731 107.653 14.563 215.392 29.144 323.465 35.192 82.896 4.623 165.856 4.223 248.784 2.676 41.938-.782 83.876-1.859 125.814-2.728 39.254-.834 78.897-6.569 118.022.713 10.066 1.859 20.317 4.553 29.219 12.703 5.389 4.936 10.186 11.801 15.866 15.763 7.685 5.37 16.286 4.988 24.596 4.501 15.089-.851 30.341-1.738 44.859-8.689 10.864-5.214 21.093-13.66 31.893-19.117 13.16-6.708 26.945-8.915 40.677-10.427a383.148 383.148 0 0 1 90.99 1.303c28.765 3.841 57.695 11.105 84.395 29.544 10.78 7.456 21.3 16.771 32.72 20.855 14.14 5.109 28.8 1.981 43.25.869 3.48-.232 6.94-.359 10.38-.383Zm-881.053 17.119c24.284 5.787 50.378 4.779 75.071 4.744 124.499-.209 249.171-2.068 373.433 7.942-88.23-28.623-181.936-29.266-273.842-26.294-55.875 1.79-120.544-3.007-174.629 13.608h-.033Zm814.403 36.043c-47.9-3.875-96.572-8.828-144.309-.99a1692.94 1692.94 0 0 1-150.895 17.882c-9.852.713-19.822 1.339-29.49-1.911-9.872-3.32-19.109-10.549-28.788-15.224-19.595-9.489-40.386-8.29-60.746-6.083-44.504 4.853-88.78 14.139-132.573 27.806-4.311 1.373-8.902 2.781-13.214.974-2.899-1.217-5.518-3.824-8.234-5.892-11.404-8.689-24.424-8.133-36.927-7.421-29.715 1.738-58.859 2.242-88.489.852-172.452-8.064-345.529-44.177-516.773-21.723 162.072-4.519 319.348 27.024 481.356 37.433 44.342 2.868 88.489 2.225 132.852 2.92 5.292 0 11.856 1.738 13.495 10.236.711 3.771.215 8.342 1.735 11.366 1.196 2.381 3.234 2.902 5.066 3.146 26.008 3.58 51.272-13.156 76.439-24.887 38.069-17.778 78.444-24.33 117.181-11.661 9.496 3.128 18.894 7.403 28.541 8.828 13.914 2.051 27.872-1.911 41.809-3.649 23.302-2.92 46.691.33 70.058 1.738 41.82 2.554 83.682-.765 125.383-6.5 38.223-5.231 78.263-20.316 116.553-17.24h-.03Zm-891.359 62.564c-43.771 9.541-87.563 20.212-131.355 26.416-4.764.66-10.034 1.043-13.774-3.963-9.41-12.599 1.185-36.982 11.123-48.365-99.19-45.282-204.615-40.314-301.995 14.233-4.312 2.433-8.903 5.214-11.856 11.071-5.551 10.827-3.514 28.501 2.155 39.033 5.67 10.531 14.012 15.641 22.085 20.159 19.81 11.122 41.367 26.746 61.36 34.636 21.643 8.533 45.592-18.752 67.828-16.805 15.09 1.32 29.155 12.599 43.964 17.378 33.499 10.932 67.817-11.609 101.887-8.359 12.934 1.217 26.407 6.952 35.299 22.593 2.338 4.153 4.408 9.019 7.458 11.487 2.76 2.225 5.939 2.173 9 2.068l100.033-3.389c8.321-.278 58.321-3.58 36.829-40.075-2.555-4.345-6.068-6.691-8.849-10.636-2.781-3.945-4.796-10.862-2.953-16.145 1.164-3.371 3.503-4.97 5.669-6.291 58.457-35.475 122.247-41.248 182.799-16.545-1.261 19.725-20.791 27.65-19.013 47.253 1.078 11.47 8.925 16.632 15.618 19.273 61.608 24.331 128.369 19.778 185.817-25.234 4.893-3.84 9.775-7.994 15.089-10.027 4.548-1.738 9.248-1.86 13.893-2.624 14.529-2.381 28.379-11.088 42.413-17.953 60.002-29.37 125.027-31.403 187.013-26.311 3.697.312 8.256 1.738 9.28 7.751.593 3.475-.323 7.125-1.369 10.288-3.123 9.467-7.547 17.659-12.934 23.948 11.856 9.941 25.631 9.489 38.802 8.794l86.376-4.38c59.937-3.093 120.887-6.482 177.837-38.563 9.09-5.127 18.67-11.801 23.72-25.53-13.52-10.184-28.71-11.505-43.49-12.634a6974.23 6974.23 0 0 0-131.77-8.69c-32.332-1.738-64.602.817-96.894 1.512-27.689.608-53.805 9.454-81.106 10.01-67.256 1.356-134.545 3.285-201.726 9.524-23.647 2.19-47.65 5.057-69.896 18.839-12.665 7.855-24.542 19.116-37.325 26.45-12.783 7.334-27.129 10.427-39.578 1.634-1.962-1.391-4.171-3.945-3.934-7.525.247-1.867.85-3.562 1.724-4.849l13.204-23.826c-7.136-9.75-17.041-10.619-26.235-11.053-23.916-1.13-48.049-.765-71.923-3.389-17.062-1.86-31.709-11.314-49.245-11.07-47.231.66-94.245 9.645-141.034 19.864l-.021.017Zm201.779 166.42c234.481-93.655 480.505-7.751 720.44-44.212-79.27 47.635-164.488 47.357-247.48 43.586-79.231-3.615-166.373-19.742-244.127 12.478-13.301 5.387-26.197 13.102-38.457 23.01 10.905 13.544 23.498 23.124 36.916 28.084l-72.937 19.516c-21.556 5.77-45.193 17.379-67.03 13.903-45.182-7.403-90.86 14.095-136.247 13.017-59.421 7.143-119.024 14.285-178.488 8.689-32.561-3.006-66.933-11.122-92.262-45.793 4.02 5.509 33.844-6.691 40.031-7.49a359.923 359.923 0 0 1 42.908-3.059c25.102-.295 49.58-.486 74.639-3.25 55.411-6.047 108.408-37.016 162.116-58.497l-.022.018Zm276.085-98.799c-1.358.956-2.932 2.433-2.975 4.936 0 3.058 2.155 4.501 3.955 5.039 33.413 10.184 67.709 7.108 101.618 3.476 14.238-1.494 28.918-3.267 41.657-14.146 2.081-1.738 4.409-4.901 3.891-8.69-.363-1.826-1.081-3.416-2.047-4.535-17.698-24.539-47.349-19.725-68.701-17.101-26.684 3.301-52.838 13.781-77.377 31.004l-.021.017Z" fill="url(#l)"/><path d="M645.301 624.847c-6.8-1.79-14.54-.43-21.22 1.19-1.78.43-1.16 2.76.4 3 6.72.83 14.36 1.32 20.82-1.18a1.548 1.548 0 0 0 0-3.01ZM650.191 633.497a20.381 20.381 0 0 0-6.56-.27 1.004 1.004 0 0 0-.574.905 1.005 1.005 0 0 0 .574.905c2.188.262 4.403.167 6.56-.28a.658.658 0 0 0 .335-1.021.658.658 0 0 0-.335-.239ZM184.519 621.927c-4.42-1-10.95-1-14.93 1.42a.849.849 0 0 0 .2 1.54c4.24 1.59 10.66.42 14.73-1.27.68-.29.9-1.48 0-1.69ZM159.209 628.157a5.599 5.599 0 0 0-3-.26 4.264 4.264 0 0 0-2.9.85 1.1 1.1 0 0 0-.299.915 1.112 1.112 0 0 0 .529.805c1 .58 2 .3 3 .14a5.485 5.485 0 0 0 2.79-.93.996.996 0 0 0-.12-1.52ZM204.796 684.352a158.249 158.249 0 0 0-33.63 1.34c-1.58.25-1.53 2.84 0 3.14a65.121 65.121 0 0 0 33.85-2.82.851.851 0 0 0-.22-1.66ZM187.46 727.822a107.314 107.314 0 0 0-17-1.11.832.832 0 0 0-.174-1.044.83.83 0 0 0-.336-.176 18.664 18.664 0 0 0-5.73-.36c-1.74.09-3.6-.08-5.16.77a1 1 0 0 0-.37 1.18c-5.71.28-11.39.63-17 .75-14.59.32-29.06.47-43.59-.86-1.24-.11-1.43 1.57-.58 2.16 5.3 3.69 11.86 4.49 18.18 4.86 8 .46 16 .26 24 .2 15.53-.11 32.65.75 47.68-3.65 1.31-.36 1.53-2.49.08-2.72ZM120.301 737.122c-.93-.3-1.81.14-2.75.21a8.245 8.245 0 0 1-3-.07.907.907 0 0 0-1.069.526.91.91 0 0 0 .369 1.134c1.88 1.07 5.67 2.23 7.09-.14a1.134 1.134 0 0 0 .079-.984 1.143 1.143 0 0 0-.719-.676ZM64.552 741.652c-3.31-.57-6.63-.3-10-.37a1.558 1.558 0 0 0-1.298 2.412c.205.315.517.545.878.648 3.62.85 7.27 1 10.62-.86a.998.998 0 0 0 .28-1.512.995.995 0 0 0-.48-.318ZM350.312 647.352c-11.226-.75-22.5-.301-33.63 1.34-1.58.25-1.53 2.84 0 3.14a65.121 65.121 0 0 0 33.85-2.82.855.855 0 0 0 .462-.354.855.855 0 0 0-.144-1.084.848.848 0 0 0-.538-.222ZM521.703 680.358c-4.098-.763-8.214-.306-12.277 1.365-.577.254-.559 2.891 0 3.197 4.137 2.109 8.401 1.118 12.357-2.871.07-.062.129-.189.168-.361a2.16 2.16 0 0 0 .046-.579 1.693 1.693 0 0 0-.098-.525c-.054-.137-.123-.217-.196-.226ZM525.794 691.239c-2.837-.509-5.686-.204-8.499.909-.4.17-.387 1.928 0 2.132 2.864 1.406 5.816.745 8.555-1.914.048-.041.089-.126.116-.241a1.367 1.367 0 0 0-.036-.736c-.037-.091-.085-.145-.136-.15ZM278.46 660.768a107.55 107.55 0 0 0-17-1.11.828.828 0 0 0-.51-1.22 18.695 18.695 0 0 0-5.73-.36c-1.74.09-3.6-.08-5.16.77a1 1 0 0 0-.37 1.18c-5.71.28-11.39.63-17 .75-14.59.32-29.06.47-43.59-.86-1.24-.11-1.43 1.57-.58 2.16 5.3 3.69 11.86 4.49 18.18 4.86 8 .46 16 .26 24 .2 15.53-.11 32.65.75 47.68-3.65 1.31-.36 1.53-2.49.08-2.72ZM202.036 730.652c-3.31-.57-6.63-.3-10-.37a1.556 1.556 0 0 0-1.537 1.348 1.56 1.56 0 0 0 1.117 1.712c3.62.85 7.27 1 10.62-.86a1 1 0 0 0-.2-1.83ZM305.168 597.847c-6.8-1.79-14.54-.43-21.22 1.19-1.78.43-1.16 2.76.4 3 6.72.83 14.36 1.32 20.82-1.18a1.55 1.55 0 0 0 0-3.01ZM310.058 606.497a20.381 20.381 0 0 0-6.56-.27 1.002 1.002 0 0 0 0 1.81c2.188.262 4.403.167 6.56-.28a.658.658 0 0 0 .335-1.021.658.658 0 0 0-.335-.239Z" fill="#8ACEFF"/></g><defs><linearGradient id="b" x1="422.5" y1="0" x2="422.5" y2="311" gradientUnits="userSpaceOnUse"><stop stop-color="#A4DEFF"/><stop offset="1" stop-color="#E2F4FF"/></linearGradient><linearGradient id="c" x1="518.75" y1="19.5" x2="518.75" y2="148" gradientUnits="userSpaceOnUse"><stop stop-color="#BEE8FF"/><stop offset="1" stop-color="#9FDCFF"/></linearGradient><linearGradient id="d" x1="506" y1="133.5" x2="506" y2="285.5" gradientUnits="userSpaceOnUse"><stop stop-color="#BDE8FF"/><stop offset="1" stop-color="#ADE2FF"/></linearGradient><linearGradient id="e" x1="803" y1="140" x2="803" y2="285" gradientUnits="userSpaceOnUse"><stop stop-color="#FDFFFC"/><stop offset="1" stop-color="#fff" stop-opacity=".18"/></linearGradient><linearGradient id="f" x1="189.848" y1="186.36" x2="189.848" y2="386.506" gradientUnits="userSpaceOnUse"><stop stop-color="#FDFFFC"/><stop offset="1" stop-color="#fff" stop-opacity=".18"/></linearGradient><linearGradient id="g" x1="497.875" y1="124" x2="497.875" y2="193.308" gradientUnits="userSpaceOnUse"><stop stop-color="#FDFFFC"/><stop offset="1" stop-color="#fff" stop-opacity=".18"/></linearGradient><linearGradient id="h" x1="846" y1="3" x2="846" y2="110" gradientUnits="userSpaceOnUse"><stop stop-color="#FDFFFC"/><stop offset="1" stop-color="#fff" stop-opacity=".18"/></linearGradient><linearGradient id="i" x1="113.181" y1="92.575" x2="113.181" y2="194.856" gradientUnits="userSpaceOnUse"><stop stop-color="#FDFFFC"/><stop offset="1" stop-color="#fff" stop-opacity=".18"/></linearGradient><linearGradient id="j" x1="256" y1="0" x2="256" y2="109" gradientUnits="userSpaceOnUse"><stop stop-color="#FDFFFC"/><stop offset="1" stop-color="#fff" stop-opacity=".18"/></linearGradient><linearGradient id="k" x1="512" y1="294" x2="512" y2="769" gradientUnits="userSpaceOnUse"><stop stop-color="#0089EC"/><stop offset="1" stop-color="#3AACFF"/></linearGradient><linearGradient id="l" x1="477.5" y1="279" x2="477.5" y2="764" gradientUnits="userSpaceOnUse"><stop stop-color="#007ED9"/><stop offset="1" stop-color="#179EFF"/></linearGradient></defs></svg>