<svg width="2048" height="768" fill="none" xmlns="http://www.w3.org/2000/svg"><path fill="#FFEFD0" d="M0 0h2048v768H0z"/><rect x="933.999" y="468" width="92" height="32" rx="4" fill="#F2DEB7"/><rect x="1600" y="379" width="92" height="32" rx="4" fill="#F2DEB7"/><rect x="1286" y="159" width="64" height="23" rx="4" fill="#F2DEB7"/><rect x="968.999" y="425" width="92" height="32" rx="4" fill="#F2DEB7"/><rect x="1635" y="336" width="92" height="32" rx="4" fill="#F2DEB7"/><rect x="1310" y="129" width="65" height="22" rx="4" fill="#F2DEB7"/><rect x="1045" y="468" width="92" height="32" rx="4" fill="#F2DEB7"/><rect x="1711" y="379" width="92" height="32" rx="4" fill="#F2DEB7"/><rect x="1746" y="336" width="78" height="32" rx="4" fill="#F2DEB7"/><rect x="1522" y="265" width="78" height="32" rx="4" fill="#F2DEB7"/><rect x="1231" y="79" width="55" height="22" rx="4" fill="#F2DEB7"/><rect x="846.999" y="334" width="59" height="32" rx="4" fill="#F2DEB7"/><rect x="890.999" y="375" width="59" height="32" rx="4" fill="#F2DEB7"/><path d="m288.244 500 521.755-.242s-.829-60.223-55.343-82.149c-50.107-20.164-78.887-3.181-79.272-2.992.116-.343-7.48-39.577-55.357-43.31-66.572-5.191-76.282 59.744-76.282 59.744s-37.785-27.951-80.224-5.026c0 0-31.309-84.34-127.057-54.718C262.225 394.275 236.207 500 288.244 500Z" fill="#FABC85" fill-opacity=".6"/><path d="M594.5 0s-15.262 65.704-92.739 75.416c0 0 7.04 71.245-91.57 90.674-98.61 19.428-102.117-64.785-102.117-64.785s-42.24 45.339-109.179 22.672c-66.939-22.668-59.869-64.768-59.869-64.768s-24.653 61.529-84.526 61.529c0 0-54.5 0-54.5-60.37C0 0 54.5 0 54.5 0h540Z" fill="#FFD8B6" fill-opacity=".6"/><g><path d="M2048 518H0v250h2048V518Z" fill="#F4D373"/><path d="M2048 500H0v19h2048v-19Z" fill="#D3B781"/><mask id="a" style="mask-type:alpha" maskUnits="userSpaceOnUse" x="0" y="518" width="2048" height="250"><path d="M2048 518H0v250h2048V518Z" fill="#ECA2AD"/></mask><g fill="#FAE58A" fill-opacity=".8" mask="url(#a)"><path d="m67.569 528.767 56.568 25.627-56.568 28.584L11 554.394l56.569-25.627ZM971.567 528.767l56.573 25.627-56.573 28.584-56.568-28.584 56.568-25.627ZM519.568 528.767l56.568 25.627-56.568 28.584-56.569-28.584 56.569-25.627ZM1423.57 528.767l56.56 25.627-56.56 28.584-56.57-28.584 56.57-25.627ZM293.568 528.767l56.569 25.627-56.569 28.584L237 554.394l56.568-25.627ZM1197.57 528.767l56.57 25.627-56.57 28.584-56.57-28.584 56.57-25.627ZM745.567 528.767l56.569 25.627-56.569 28.584-56.568-28.584 56.568-25.627ZM1649.57 528.767l56.56 25.627-56.56 28.584-56.57-28.584 56.57-25.627Z"/><path d="m180.569 528.767 56.568 25.627-56.568 28.584L124 554.394l56.569-25.627ZM1084.57 528.767l56.57 25.627-56.57 28.584-56.57-28.584 56.57-25.627ZM632.568 528.767l56.568 25.627-56.568 28.584-56.569-28.584 56.569-25.627ZM1536.57 528.767l56.56 25.627-56.56 28.584-56.57-28.584 56.57-25.627ZM406.568 528.767l56.568 25.627-56.568 28.584-56.569-28.584 56.569-25.627ZM1310.57 528.767l56.56 25.627-56.56 28.584-56.57-28.584 56.57-25.627ZM858.567 528.767l56.569 25.627-56.569 28.584-56.568-28.584 56.568-25.627ZM1762.57 528.767l56.56 25.627-56.56 28.584-56.57-28.584 56.57-25.627ZM67.569 583.225l56.568 25.627-56.568 28.584L11 608.852l56.569-25.627ZM971.567 583.225l56.573 25.627-56.573 28.584-56.568-28.584 56.568-25.627ZM519.568 583.225l56.568 25.627-56.568 28.584-56.569-28.584 56.569-25.627ZM1423.57 583.225l56.56 25.627-56.56 28.584-56.57-28.584 56.57-25.627ZM293.568 583.225l56.569 25.627-56.569 28.584L237 608.852l56.568-25.627ZM1197.57 583.225l56.57 25.627-56.57 28.584-56.57-28.584 56.57-25.627ZM745.567 583.225l56.569 25.627-56.569 28.584-56.568-28.584 56.568-25.627ZM1649.57 583.225l56.56 25.627-56.56 28.584-56.57-28.584 56.57-25.627Z"/><path d="m180.569 583.225 56.568 25.627-56.568 28.584L124 608.852l56.569-25.627ZM1084.57 583.225l56.57 25.627-56.57 28.584-56.57-28.584 56.57-25.627ZM632.568 583.225l56.568 25.627-56.568 28.584-56.569-28.584 56.569-25.627ZM1536.57 583.225l56.56 25.627-56.56 28.584-56.57-28.584 56.57-25.627ZM406.568 583.225l56.568 25.627-56.568 28.584-56.569-28.584 56.569-25.627ZM1310.57 583.225l56.56 25.627-56.56 28.584-56.57-28.584 56.57-25.627ZM858.567 583.225l56.569 25.627-56.569 28.584-56.568-28.584 56.568-25.627ZM1762.57 583.225l56.56 25.627-56.56 28.584-56.57-28.584 56.57-25.627ZM67.569 638.521l56.568 25.627-56.568 28.584L11 664.148l56.569-25.627ZM971.567 638.521l56.573 25.627-56.573 28.584-56.568-28.584 56.568-25.627ZM519.568 638.521l56.568 25.627-56.568 28.584-56.569-28.584 56.569-25.627ZM1423.57 638.521l56.56 25.627-56.56 28.584-56.57-28.584 56.57-25.627ZM293.568 638.521l56.569 25.627-56.569 28.584L237 664.148l56.568-25.627ZM1197.57 638.521l56.57 25.627-56.57 28.584-56.57-28.584 56.57-25.627ZM745.567 638.521l56.569 25.627-56.569 28.584-56.568-28.584 56.568-25.627ZM1649.57 638.521l56.56 25.627-56.56 28.584-56.57-28.584 56.57-25.627Z"/><path d="m180.569 638.521 56.568 25.627-56.568 28.584L124 664.148l56.569-25.627ZM1084.57 638.521l56.57 25.627-56.57 28.584-56.57-28.584 56.57-25.627ZM632.568 638.521l56.568 25.627-56.568 28.584-56.569-28.584 56.569-25.627ZM1536.57 638.521l56.56 25.627-56.56 28.584-56.57-28.584 56.57-25.627ZM406.568 638.521l56.568 25.627-56.568 28.584-56.569-28.584 56.569-25.627ZM1310.57 638.521l56.56 25.627-56.56 28.584-56.57-28.584 56.57-25.627ZM858.567 638.521l56.569 25.627-56.569 28.584-56.568-28.584 56.568-25.627ZM1762.57 638.521l56.56 25.627-56.56 28.584-56.57-28.584 56.57-25.627ZM67.569 692.979l56.568 25.627-56.568 28.584L11 718.606l56.569-25.627ZM971.567 692.979l56.573 25.627-56.573 28.584-56.568-28.584 56.568-25.627ZM519.568 692.979l56.568 25.627-56.568 28.584-56.569-28.584 56.569-25.627ZM1423.57 692.979l56.56 25.627-56.56 28.584-56.57-28.584 56.57-25.627ZM293.568 692.979l56.569 25.627-56.569 28.584L237 718.606l56.568-25.627ZM1197.57 692.979l56.57 25.627-56.57 28.584-56.57-28.584 56.57-25.627ZM745.567 692.979l56.569 25.627-56.569 28.584-56.568-28.584 56.568-25.627ZM1649.57 692.979l56.56 25.627-56.56 28.584-56.57-28.584 56.57-25.627Z"/><path d="m180.569 692.979 56.568 25.627-56.568 28.584L124 718.606l56.569-25.627ZM1084.57 692.979l56.57 25.627-56.57 28.584-56.57-28.584 56.57-25.627ZM632.568 692.979l56.568 25.627-56.568 28.584-56.569-28.584 56.569-25.627ZM1536.57 692.979l56.56 25.627-56.56 28.584-56.57-28.584 56.57-25.627ZM406.568 692.979l56.568 25.627-56.568 28.584-56.569-28.584 56.569-25.627ZM1310.57 692.979l56.56 25.627-56.56 28.584-56.57-28.584 56.57-25.627ZM858.567 692.979l56.569 25.627-56.569 28.584-56.568-28.584 56.568-25.627ZM1762.57 692.979l56.56 25.627-56.56 28.584-56.57-28.584 56.57-25.627ZM1876.57 528.767l56.56 25.627-56.56 28.584-56.57-28.584 56.57-25.627ZM2102.57 528.767l56.56 25.627-56.56 28.584-56.57-28.584 56.57-25.627Z"/><path d="m1989.57 528.767 56.56 25.627-56.56 28.584-56.57-28.584 56.57-25.627ZM1876.57 583.225l56.56 25.627-56.56 28.584-56.57-28.584 56.57-25.627ZM2102.57 583.225l56.56 25.627-56.56 28.584-56.57-28.584 56.57-25.627Z"/><path d="m1989.57 583.225 56.56 25.627-56.56 28.584-56.57-28.584 56.57-25.627ZM1876.57 638.521l56.56 25.627-56.56 28.584-56.57-28.584 56.57-25.627ZM2102.57 638.521l56.56 25.627-56.56 28.584-56.57-28.584 56.57-25.627Z"/><path d="m1989.57 638.521 56.56 25.627-56.56 28.584-56.57-28.584 56.57-25.627ZM1876.57 692.979l56.56 25.627-56.56 28.584-56.57-28.584 56.57-25.627ZM2102.57 692.979l56.56 25.627-56.56 28.584-56.57-28.584 56.57-25.627Z"/><path d="m1989.57 692.979 56.56 25.627-56.56 28.584-56.57-28.584 56.57-25.627Z"/></g></g><g filter="url(#b)"><path d="M1578.55 37.865C1563.28 15.731 1565.06 0 1565.06 0h483c0 19.273-25.9 87.79-54.89 76.69-18.78-7.19-74.36 46.629-122.32 30.676-5.54-1.843-6.54-16.366-32.26-19.173-25.73-2.807-28.37 10.054-45.27 19.173-41.01 22.134-90.51 20.134-114.13-19.173-23.62-39.307-52.49-22.528-62.12-23.007-7.7-.383-13.48-2.396-15.41-3.355 0 0-7.85-1.831-23.11-23.966Z" fill="#C28F71" fill-opacity=".9"/><mask id="c" style="mask-type:alpha" maskUnits="userSpaceOnUse" x="1565" y="0" width="484" height="122"><path d="M1578.55 37.865C1563.28 15.731 1565.06 0 1565.06 0h483c0 19.273-25.9 87.79-54.89 76.69-18.78-7.19-74.36 46.629-122.32 30.676-5.54-1.843-6.54-16.366-32.26-19.173-25.73-2.807-28.37 10.054-45.27 19.173-41.01 22.134-90.51 20.134-114.13-19.173-23.62-39.307-52.49-22.528-62.12-23.007-7.7-.383-13.48-2.396-15.41-3.355 0 0-7.85-1.831-23.11-23.966Z" fill="#AD8974"/></mask><g stroke="#B78060" stroke-width="5" stroke-linecap="round" mask="url(#c)"><path d="M1594.69 50.346c145.02-2.604 440.02-6.248 459.87 0M1594.69 79.982c145.02-2.603 440.02-6.248 459.87 0M1594.69 109.384c145.02-2.603 440.02-6.248 459.87 0M1674.81 0v47M1751.81 0v46M1692.08 78.83l5.06 29.401M1788.56 79.748l3.68 28.024M1873.55 76.991v26.187M1833.58 48.508v27.105M1940.62 49.427v26.186M1976.81 46V0M1886.41 46.21 1876.81 0"/></g></g><defs><filter id="b" x="1565" y="0" width="483.064" height="121.512" filterUnits="userSpaceOnUse" color-interpolation-filters="sRGB"><feFlood flood-opacity="0" result="BackgroundImageFix"/><feBlend in="SourceGraphic" in2="BackgroundImageFix" result="shape"/><feColorMatrix in="SourceAlpha" values="0 0 0 0 0 0 0 0 0 0 0 0 0 0 0 0 0 0 127 0" result="hardAlpha"/><feOffset dx="-4" dy="-4"/><feComposite in2="hardAlpha" operator="arithmetic" k2="-1" k3="1"/><feColorMatrix values="0 0 0 0 0 0 0 0 0 0 0 0 0 0 0 0 0 0 0.08 0"/><feBlend in2="shape" result="effect1_innerShadow_2612_92"/></filter></defs></svg>