<svg width="656" height="196" fill="none" xmlns="http://www.w3.org/2000/svg"><mask id="a" style="mask-type:luminance" maskUnits="userSpaceOnUse" x="0" y="4" width="656" height="192"><path fill-rule="evenodd" clip-rule="evenodd" d="M0 4.73h656V196H0V4.73z" fill="#fff"/></mask><g mask="url(#a)"><path fill-rule="evenodd" clip-rule="evenodd" d="M656.001 80.895c0-7.07-6.406-13.486-16.817-18.203-10.749-6.438-28.603-10.653-48.817-10.653-6.247 0-12.264.409-17.919 1.155 1.804-2.253 2.778-4.627 2.778-7.083 0-10.102-16.347-18.861-40.249-23.19-11.226-2.338-24.462-3.689-38.638-3.689-25.684 0-48.28 4.431-61.418 11.141C422.016 15.435 387.252 4.73 346.37 4.73c-.595 0-1.185.008-1.78.012-.49-.002-.977-.012-1.47-.012-33.595 0-63.022 6.98-79.38 17.436-7.735-3.97-17.679-7.207-29.089-9.41-11.12-2.215-23.739-3.469-37.12-3.469-39.755 0-72.822 11.046-79.702 25.613-6.4-.568-13.126-.871-20.067-.871-42.528 0-77.005 11.367-77.005 25.389 0 .689.093 1.369.257 2.042-.035.33-.06.662-.06.995 0 7.93 9.997 15.052 25.873 19.959C19.44 85.698 0 93.984 0 103.69c0 .912.176 1.812.51 2.697-.325.919-.51 1.85-.51 2.797 0 11.836 26.189 21.675 60.68 23.678-2.695 2.489-4.172 5.158-4.172 7.938 0 1.454.401 2.881 1.17 4.264a9.112 9.112 0 0 0-.634 3.29c0 14.169 34.44 25.656 76.924 25.656 26.35 0 49.601-4.42 63.466-11.157C199.01 181.268 236.307 196 282.093 196c40.777 0 74.821-11.685 82.897-27.249 9.719 12.561 40.927 21.752 77.928 21.752 44.771 0 81.065-13.457 81.065-30.055 0-3.738-1.848-7.315-5.211-10.615-.069-.288-.15-.573-.242-.857 12.664 3.718 28.739 5.947 46.25 5.947 40.818 0 73.906-12.089 73.906-27.004 0-4.324-2.786-8.409-7.731-12.032-2.445-3.861-7.385-7.393-14.202-10.382 22.911-3.695 39.248-13.318 39.248-24.61z" fill="#205882" fill-opacity=".1"/></g><path fill-rule="evenodd" clip-rule="evenodd" d="M440.492 123.97c-37.6 0-69.147 9.579-77.797 22.499-9.17-14.694-42.051-25.571-81.21-25.571-30.329 0-56.892 6.524-71.591 16.293-6.34-11.764-37.108-20.707-74.21-20.808 7.942-3.802 12.588-8.393 12.588-13.338 0-8.468-13.624-15.899-34.121-20.098 25.268-1.6 46.206-7.45 56.319-15.317 9.074 1.418 18.941 2.196 29.26 2.196 26.449 0 49.93-5.11 64.684-13.01 16.011 11.42 46.118 19.114 80.622 19.114 39.376 0 73.024-10.02 86.534-24.161 11.724 8.732 37.041 14.776 66.387 14.776 16.176 0 31.125-1.838 43.253-4.947-5.561 3.94-8.771 8.576-8.771 13.539 0 7.99 8.31 15.132 21.363 19.878-36.988 1.315-65.897 12.682-65.897 26.514 0 3.399 1.749 6.649 4.934 9.639-14.045-4.486-32.339-7.198-52.347-7.198zm210.672-48.833c0-14.29-26.577-25.875-59.362-25.875-10.257 0-19.904 1.135-28.322 3.13 5.003-3.478 7.823-7.407 7.823-11.57 0-14.206-32.837-25.723-73.346-25.723-27.041 0-50.661 5.133-63.378 12.772C423.765 11.804 387.776 0 345.036 0c-33.735 0-63.268 7.354-79.53 18.355-14.673-8.24-38.664-13.61-65.776-13.61-39.678 0-72.68 11.501-79.548 26.671a217.546 217.546 0 0 0-20.028-.91c-42.445 0-76.854 11.838-76.854 26.44 0 9.729 15.275 18.228 38.019 22.82-33.478 2.14-58.736 11.749-58.736 23.279 0 12.908 31.634 23.406 71.024 23.721-9.194 4.184-14.626 9.342-14.626 14.922 0 13.978 34.051 25.31 76.055 25.31 26.052 0 49.04-4.36 62.747-11.006 1.56 18.167 38.434 32.699 83.703 32.699 40.314 0 73.974-11.526 81.958-26.88 9.608 12.389 40.465 21.458 77.048 21.458 44.264 0 80.147-13.275 80.147-29.65 0-4.118-2.271-8.04-6.374-11.605 12.665 3.843 28.945 6.155 46.711 6.155 40.355 0 73.07-11.928 73.07-26.641 0-8.64-11.285-16.318-28.77-21.186 26.294-2.66 45.888-12.935 45.888-25.205z" fill="#F1AA40"/><path fill-rule="evenodd" clip-rule="evenodd" d="M436.383 117.449c-37.248 0-68.499 9.075-77.066 21.316-9.085-13.921-41.655-24.225-80.448-24.225-30.045 0-56.359 6.179-70.92 15.435-6.282-11.145-36.759-19.617-73.515-19.715 7.87-3.6 12.47-7.95 12.47-12.634 0-8.023-13.496-15.064-33.8-19.043 25.031-1.514 45.772-7.057 55.791-14.51 8.989 1.343 18.763 2.082 28.986 2.082 26.199 0 49.46-4.842 64.076-12.326 15.861 10.817 45.685 18.105 79.866 18.105 39.006 0 72.339-9.491 85.721-22.888 11.615 8.272 36.693 14 65.765 14 16.024 0 30.832-1.742 42.846-4.688-5.509 3.73-8.688 8.125-8.688 12.828 0 7.569 8.232 14.335 21.163 18.832-36.643 1.244-65.28 12.014-65.28 25.117 0 3.223 1.734 6.301 4.888 9.133-13.912-4.248-32.035-6.819-51.855-6.819zm208.694-46.263c0-13.54-26.327-24.514-58.805-24.514-10.159 0-19.718 1.074-28.057 2.964 4.956-3.295 7.751-7.017 7.751-10.96 0-13.46-32.53-24.371-72.657-24.371-26.788 0-50.186 4.864-62.785 12.1C419.813 11.184 384.16 0 341.823 0c-33.419 0-62.674 6.968-78.785 17.39-14.535-7.807-38.301-12.895-65.157-12.895-39.307 0-71.998 10.897-78.803 25.268a225.4 225.4 0 0 0-19.84-.86c-42.046 0-76.132 11.214-76.132 25.049 0 9.215 15.13 17.268 37.661 21.618C27.603 77.597 2.584 86.7 2.584 97.626c0 12.228 31.337 22.174 70.356 22.473-9.107 3.964-14.488 8.85-14.488 14.137 0 13.243 33.733 23.978 75.343 23.978 25.807 0 48.579-4.131 62.158-10.427 1.544 17.211 38.072 30.981 82.917 30.981 39.936 0 73.279-10.922 81.189-25.468 9.518 11.738 40.085 20.329 76.325 20.329 43.848 0 79.395-12.577 79.395-28.09 0-3.901-2.252-7.618-6.315-10.995 12.545 3.641 28.675 5.832 46.272 5.832 39.977 0 72.385-11.3 72.385-25.241 0-8.185-11.179-15.459-28.5-20.07 26.047-2.52 45.457-12.256 45.457-23.88z" fill="#FEB"/><path fill-rule="evenodd" clip-rule="evenodd" d="M573.209 86.164c0 36.372-111.698 65.858-249.485 65.858-137.787 0-249.485-29.486-249.485-65.858 0-36.373 111.698-65.857 249.485-65.857 137.787 0 249.485 29.484 249.485 65.857z" fill="#F9A75A"/><path fill-rule="evenodd" clip-rule="evenodd" d="M569.739 82.492c0 34.343-110.922 62.183-247.75 62.183-136.829 0-247.75-27.84-247.75-62.184 0-34.344 110.921-62.184 247.75-62.184 136.828 0 247.75 27.84 247.75 62.184z" fill="#FEC173"/><path fill-rule="evenodd" clip-rule="evenodd" d="M168.895 57.02c0 3.894-2.962 7.053-6.616 7.053-3.654 0-6.616-3.159-6.616-7.053 0-3.895 2.962-7.053 6.616-7.053 3.654 0 6.616 3.159 6.616 7.053zm141.198 57.323c0 4.967-6.077 8.993-13.572 8.993-7.496 0-13.571-4.026-13.571-8.993 0-4.966 6.075-8.992 13.571-8.992 7.495 0 13.572 4.026 13.572 8.992zm15.888-27.618c0 2.483-2.518 4.496-5.626 4.496-3.108 0-5.628-2.013-5.628-4.496 0-2.482 2.52-4.495 5.628-4.495s5.626 2.013 5.626 4.495zm-80.767 21.838c0 2.483-2.222 4.496-4.965 4.496-2.741 0-4.965-2.013-4.965-4.496 0-2.482 2.224-4.496 4.965-4.496 2.743 0 4.965 2.014 4.965 4.496zm221.779-14.13c0 2.483-2.076 4.495-4.635 4.495-2.558 0-4.633-2.012-4.633-4.495s2.075-4.496 4.633-4.496c2.559 0 4.635 2.013 4.635 4.496zm11.917-30.829c0 2.483-2.372 4.495-5.296 4.495-2.926 0-5.297-2.012-5.297-4.495s2.371-4.496 5.297-4.496c2.924 0 5.296 2.013 5.296 4.496zm29.79 31.02c0 .96-1.334 1.736-2.979 1.736-1.646 0-2.978-.777-2.978-1.736 0-.96 1.332-1.737 2.978-1.737 1.645 0 2.979.777 2.979 1.737z" fill="#FDA457"/></svg>