<svg viewBox="0 0 220 52" fill="none" xmlns="http://www.w3.org/2000/svg"><mask id="a" style="mask-type:alpha" maskUnits="userSpaceOnUse" x="0" y="0" width="220" height="52"><path d="M9 51c-1.833-.334-6.2.2-9 1V0h220v52c-1.5-3-10-3.5-13-2.5-8-1.5-29-3-33.5 0-2.333.5-8.2 1.2-13 0-6-1.5-14-2-23.5 0-11-3.5-22-.5-31 1.5-3.2-2-12.667-.834-17 0-6.167.5-21.5 1.1-33.5-.5-15-2-40-1-46.5.5Z" fill="#D9D9D9"/></mask><g mask="url(#a)"><path d="m1 48-1 4h217.5V33.5L219 5l-2.5-2-3-.5L203 0h-12l-7 1.5L168 0h-10l-7.5 1.5L129 0h-11l-7 2.5L97 0H81L65.5 1 54 2.5 45 4 13.5 0H8L3.5 2.5 2 4 1 9v12l2 2-2 1v24Z" fill="url(#b)"/><path d="m10 1 3.5-1v1.5l1 4-2.5 1-2 2L9 8H8V7L7 6l-.5-1L7 3l2-1 1-1Z" fill="#DDBFAE"/><path d="m4 22-3-1 2 2-2 1 4-1-1-1Z" fill="#FFE8DB"/><path d="m9 28 1-1 2 2-2 .5-1-.5v-1Z" fill="#B99886"/><path d="M20.5 0h-7v1.5l1 4-2.5 1-2 2V27l2 2-2 .5v5L9 52h211v-7.5l-1-12 1-19-1-8.5-3-.5-3-3.5-2.5-1h-11l-13 1-19-1-2 1-3 2.5H159L156 1l-28.5-1L110 1 97 0 85.5 1 54 2.5C45.333 2.167 27.7 1.4 26.5 1c-1.2-.4-4.5-.833-6-1Z" fill="url(#c)"/></g><defs><linearGradient id="b" x1="109.5" y1="0" x2="109.5" y2="52" gradientUnits="userSpaceOnUse"><stop stop-color="#E1CABD"/><stop offset="1" stop-color="#ECD7CC"/></linearGradient><linearGradient id="c" x1="114.5" y1="0" x2="114.5" y2="52" gradientUnits="userSpaceOnUse"><stop stop-color="#CDB39A"/><stop offset="1" stop-color="#BF9E7E"/></linearGradient></defs></svg>