<svg width="290" height="75" fill="none" xmlns="http://www.w3.org/2000/svg"><g filter="url(#a)"><path d="M284.48 34.593c8.559 18.76-60.457 35.95-156.326 33.634C32.284 65.911-18.698 45.821 7.599 27.904 28.61 13.589 94.318 5.186 157.903 6.723c63.586 1.536 119.736 12.883 126.577 27.87Z" fill="#EBCE9E"/><path d="M284.556 31.64c8.559 18.76-60.458 35.951-156.327 33.637-95.87-2.313-146.852-22.4-120.554-40.32 21.01-14.313 86.72-22.72 150.305-21.185 63.586 1.534 119.735 12.882 126.576 27.867Z" fill="#FDE8C5"/><path d="M131.225 57.123c-28.896-.698-54.068-3.282-72.777-7.475-12.68-2.84-28.254-7.787-30.453-15.223-.72-2.434-.287-6.155 5.874-10.054 10.46-6.632 31.862-10.445 47.975-12.474 22.018-2.77 48.007-3.968 73.193-3.36 25.186.609 49.343 3.016 68.004 6.777 9.424 1.9 17.141 4.08 22.936 6.477 6.29 2.602 10.235 5.46 11.726 8.494 1.115 2.272.921 4.646-.577 6.863-2.113 3.136-6.865 6.06-14.123 8.691-7.027 2.546-16.167 4.75-27.168 6.554-23.238 3.804-53.288 5.487-84.61 4.73Zm23.742-45.865c-25.039-.604-50.879.58-72.757 3.338-22.361 2.817-38.978 7.1-46.79 12.05-3.793 2.404-5.378 4.77-4.709 7.03.658 2.224 3.425 4.575 8.007 6.8 4.933 2.4 11.782 4.593 20.373 6.513 18.532 4.152 43.502 6.712 72.209 7.406 68.268 1.65 116.384-8.233 123.461-18.742.97-1.44 1.096-2.776.393-4.207-2.384-4.853-14.298-9.763-32.687-13.469-18.503-3.727-42.473-6.114-67.5-6.719Z" fill="#F4DAAE"/></g><defs><filter id="a" x=".719" y="3.592" width="288.555" height="70.845" filterUnits="userSpaceOnUse" color-interpolation-filters="sRGB"><feFlood flood-opacity="0" result="BackgroundImageFix"/><feColorMatrix in="SourceAlpha" values="0 0 0 0 0 0 0 0 0 0 0 0 0 0 0 0 0 0 127 0" result="hardAlpha"/><feOffset dx="4" dy="6"/><feComposite in2="hardAlpha" operator="out"/><feColorMatrix values="0 0 0 0 0 0 0 0 0 0 0 0 0 0 0 0 0 0 0.15 0"/><feBlend in2="BackgroundImageFix" result="effect1_dropShadow_67_617"/><feBlend in="SourceGraphic" in2="effect1_dropShadow_67_617" result="shape"/></filter></defs></svg>