<svg width="60" height="60" fill="none" xmlns="http://www.w3.org/2000/svg"><mask id="a" style="mask-type:alpha" maskUnits="userSpaceOnUse" x="0" y="0" width="60" height="60"><path fill="#3A3A3A" d="M0 0h60v60H0z"/></mask><g mask="url(#a)"><mask id="b" maskUnits="userSpaceOnUse" x="1.602" y="1.157" width="58" height="58" fill="#000"><path fill="#fff" d="M1.602 1.157h58v58h-58z"/><path fill-rule="evenodd" clip-rule="evenodd" d="M8.223 7.778c-2.394 2.394-2.074 5.703.54 10.2l4.897 6.32a120.625 120.625 0 0 0 4.733 5.735 120.655 120.655 0 0 0-4.288 5.225l-4.896 6.32c-2.614 4.497-2.934 7.806-.541 10.2 2.393 2.393 5.704 2.075 10.2-.541l6.32-4.896a120.718 120.718 0 0 0 5.292-4.346 120.701 120.701 0 0 0 4.778 3.902l6.32 4.895c4.497 2.615 7.806 2.935 10.2.541 2.393-2.393 2.075-5.704-.541-10.2l-4.896-6.319a120.534 120.534 0 0 0-3.902-4.779c1.5-1.724 2.95-3.49 4.347-5.293l4.896-6.32c2.616-4.495 2.934-7.806.54-10.2-2.392-2.393-5.702-2.073-10.199.542l-6.32 4.896c-1.78 1.379-3.523 2.81-5.226 4.288a120.784 120.784 0 0 0-5.735-4.733l-6.32-4.896c-4.495-2.615-7.806-2.934-10.2-.54Z"/></mask><path fill-rule="evenodd" clip-rule="evenodd" d="M8.223 7.778c-2.394 2.394-2.074 5.703.54 10.2l4.897 6.32a120.625 120.625 0 0 0 4.733 5.735 120.655 120.655 0 0 0-4.288 5.225l-4.896 6.32c-2.614 4.497-2.934 7.806-.541 10.2 2.393 2.393 5.704 2.075 10.2-.541l6.32-4.896a120.718 120.718 0 0 0 5.292-4.346 120.701 120.701 0 0 0 4.778 3.902l6.32 4.895c4.497 2.615 7.806 2.935 10.2.541 2.393-2.393 2.075-5.704-.541-10.2l-4.896-6.319a120.534 120.534 0 0 0-3.902-4.779c1.5-1.724 2.95-3.49 4.347-5.293l4.896-6.32c2.616-4.495 2.934-7.806.54-10.2-2.392-2.393-5.702-2.073-10.199.542l-6.32 4.896c-1.78 1.379-3.523 2.81-5.226 4.288a120.784 120.784 0 0 0-5.735-4.733l-6.32-4.896c-4.495-2.615-7.806-2.934-10.2-.54Z" fill="#FF8372"/><path d="M8.764 17.978 4.44 20.491l.167.287.203.262 3.953-3.062Zm-.541-10.2 3.535 3.536-3.535-3.536Zm5.437 16.52 3.952-3.062-3.952 3.062Zm4.733 5.735 3.775 3.279 2.863-3.298-2.882-3.28-3.756 3.299Zm-4.288 5.225 3.952 3.062-3.952-3.062Zm-4.896 6.32-3.953-3.062-.203.262-.167.287 4.323 2.513Zm-.541 10.2 3.535-3.536-3.535 3.536Zm10.2-.541 2.514 4.321.286-.166.262-.203-3.063-3.952Zm6.32-4.896 3.061 3.953-3.062-3.953Zm5.292-4.346 3.26-3.791-3.279-2.82-3.263 2.838 3.282 3.773Zm4.778 3.902-3.062 3.952 3.062-3.952Zm6.32 4.895-3.062 3.953.262.203.287.167 2.513-4.323Zm10.2.541 3.535 3.536-3.535-3.536Zm-.541-10.2 4.321-2.514-.166-.286-.203-.261-3.952 3.062Zm-4.896-6.319 3.953-3.062-3.953 3.062Zm-3.902-4.779-3.773-3.281-2.838 3.263 2.82 3.279 3.791-3.26Zm4.347-5.293 3.953 3.062-3.953-3.062Zm4.896-6.32 3.953 3.062.202-.261.166-.286-4.321-2.515Zm.54-10.2 3.536-3.535-3.535 3.536Zm-10.199.542L39.51 4.44l-.286.167-.263.203 3.062 3.953Zm-6.32 4.896-3.062-3.953 3.063 3.953Zm-5.226 4.288-3.3 3.757 3.282 2.882 3.297-2.864-3.279-3.775Zm-5.735-4.733 3.062-3.952-3.062 3.952Zm-6.32-4.896 3.062-3.952-.261-.203-.286-.166-2.515 4.321Zm-5.336 7.146c-1.138-1.957-1.444-3.121-1.48-3.694a1.23 1.23 0 0 1 .01-.274l.002-.01.003-.005a.96.96 0 0 1 .138-.168L4.686 4.243C2.444 6.486 1.43 9.329 1.626 12.408c.178 2.805 1.339 5.544 2.815 8.083l8.645-5.026Zm4.526 5.77-4.895-6.32L4.81 21.04l4.896 6.32 7.905-6.124Zm4.537 5.498a115.712 115.712 0 0 1-4.537-5.497L9.707 27.36c1.58 2.04 3.224 4.032 4.93 5.973l7.512-6.6ZM18.057 38.32a115.53 115.53 0 0 1 4.11-5.008l-7.55-6.558a125.717 125.717 0 0 0-4.465 5.442l7.905 6.124Zm-4.895 6.32 4.895-6.32-7.905-6.124-4.896 6.32 7.905 6.124Zm-.959 3.602a.964.964 0 0 1-.137-.168l-.003-.005-.002-.01a1.23 1.23 0 0 1-.01-.275c.036-.572.342-1.736 1.48-3.693l-8.645-5.026c-1.476 2.54-2.637 5.279-2.815 8.084-.197 3.078.818 5.92 3.061 8.164l7.071-7.07Zm4.15-1.327c-1.956 1.138-3.12 1.444-3.691 1.48a1.232 1.232 0 0 1-.275-.01l-.01-.003-.006-.002a.967.967 0 0 1-.168-.138l-7.07 7.071c2.243 2.243 5.085 3.258 8.164 3.063 2.806-.179 5.546-1.34 8.085-2.818l-5.03-8.643Zm5.772-4.527-6.32 4.896 6.125 7.905 6.32-4.895-6.125-7.906Zm5.073-4.166a115.66 115.66 0 0 1-5.073 4.166l6.124 7.906a125.648 125.648 0 0 0 5.512-4.527l-6.563-7.545Zm11.122 3.722a115.651 115.651 0 0 1-4.58-3.74l-6.52 7.581a125.573 125.573 0 0 0 4.976 4.064l6.124-7.905Zm6.32 4.896-6.32-4.896-6.124 7.905 6.32 4.896 6.124-7.905Zm3.602.958a.96.96 0 0 1-.167.137l-.006.003-.01.002a1.23 1.23 0 0 1-.275.01c-.571-.036-1.735-.342-3.693-1.48l-5.026 8.645c2.54 1.476 5.279 2.637 8.084 2.816 3.078.196 5.92-.819 8.164-3.062l-7.07-7.071Zm-1.327-4.15c1.138 1.956 1.444 3.12 1.48 3.691a1.23 1.23 0 0 1-.01.275.09.09 0 0 1-.002.01l-.003.006c-.002.003-.005.01-.013.021a.956.956 0 0 1-.125.147l7.071 7.07c2.243-2.242 3.258-5.085 3.063-8.164-.179-2.806-1.34-5.545-2.818-8.085l-8.643 5.03Zm-4.527-5.772 4.896 6.32 7.906-6.124-4.896-6.32-7.906 6.124Zm-3.74-4.58a115.557 115.557 0 0 1 3.74 4.58l7.906-6.124a125.732 125.732 0 0 0-4.064-4.977l-7.582 6.52Zm4.185-11.616a115.625 115.625 0 0 1-4.166 5.074l7.545 6.563a125.688 125.688 0 0 0 4.527-5.513l-7.906-6.124Zm4.896-6.32-4.896 6.32 7.906 6.124 4.896-6.32-7.906-6.124Zm.958-3.602a.969.969 0 0 1 .14.174l.004.01a1.23 1.23 0 0 1 .01.275c-.037.572-.343 1.735-1.48 3.69l8.642 5.03c1.478-2.54 2.64-5.28 2.818-8.085.196-3.079-.82-5.922-3.063-8.165l-7.07 7.071Zm-4.15 1.328c1.957-1.138 3.12-1.444 3.693-1.48a1.23 1.23 0 0 1 .275.01l.01.002.005.003.021.012a.96.96 0 0 1 .146.125l7.071-7.07c-2.243-2.244-5.086-3.259-8.164-3.062-2.805.178-5.544 1.339-8.084 2.815l5.026 8.645Zm-5.771 4.526 6.32-4.895L38.96 4.81l-6.32 4.896 6.125 7.905Zm-5.01 4.111a115.7 115.7 0 0 1 5.01-4.11L32.64 9.706a125.682 125.682 0 0 0-5.442 4.466l6.557 7.55ZM21.68 17.168a115.75 115.75 0 0 1 5.498 4.537l6.599-7.513a125.715 125.715 0 0 0-5.973-4.93l-6.124 7.906Zm-6.32-4.896 6.32 4.896 6.124-7.905-6.32-4.896-6.124 7.905Zm-3.602-.958a.967.967 0 0 1 .174-.14s.003-.002.01-.003a1.23 1.23 0 0 1 .275-.01c.572.036 1.735.342 3.69 1.48l5.03-8.643c-2.54-1.478-5.28-2.639-8.085-2.817C9.773.985 6.93 2 4.687 4.243l7.071 7.071Z" fill="#fff" mask="url(#b)"/><ellipse cx="12.093" cy="10.457" rx="1.898" ry="1" transform="rotate(-15 12.093 10.457)" fill="#fff" fill-opacity=".3"/></g></svg>