<svg width="634" height="634" fill="none" xmlns="http://www.w3.org/2000/svg"><mask id="a" style="mask-type:alpha" maskUnits="userSpaceOnUse" x="0" y="0" width="634" height="634"><path fill-rule="evenodd" clip-rule="evenodd" d="M316.717 633.435c174.918 0 316.718-141.8 316.718-316.718S491.635 0 316.717 0 0 141.799 0 316.717c0 174.918 141.799 316.718 316.717 316.718Zm-.003-289.867c14.829 0 26.85-12.022 26.85-26.851 0-14.829-12.021-26.85-26.85-26.85s-26.851 12.021-26.851 26.85 12.022 26.851 26.851 26.851Z" fill="#D9D9D9"/></mask><g mask="url(#a)"><path fill-rule="evenodd" clip-rule="evenodd" d="m267.782-21.327 48.957 338.009 46.319-338.01h-95.276Zm48.879 338.039.032.017-.018-.02.018-.004h-.022l-.027-.028L167.354 4.424l-57.51 36.909 206.732 275.273L76.369 63.65l-65.274 95.866 305.553 157.19h-.025L-13.58 203.999l-12.575 68.91 342.669 43.798-351.096 2.324 21.472 71.311 329.734-73.621.043.005.002.003-.001-.003.024.003-.027-.009-.004-.008Zm-.011.003.007-.002.004.006-.011-.004ZM199.185-10.776l117.526 327.489-.013.02-.004-.004.003.005-.001.002-.004-.007.003.009-.022.032L6.41 448.318l49.85 81.194 260.39-212.706-.074.113L77.598 557.705l28.539 26.797 210.264-267.315-185.652 284.436 61.544 29.699L316.65 316.87l.052-.065-87.878 331.369 115.849 5.469-27.95-336.807 95.251 334.358 63.466-38.966-158.72-295.447.004-.004 187.787 292.33 49.537-55.609L316.74 316.776l.074.006 263.381 210.376 49.044-81.685-312.311-128.681h.005l327.475 96.742 10.61-37.682-337.792-59.034 341.63 29.3-2.041-68.304-339.925 38.945-.074-.013-.026-.011 338.124-79.109-48.59-105.309-289.562 184.407-.045-.019.033.026-.004.003-.029-.005.025.007-.025.016h-.001l-.013-.013.009-.024.005.014-.004-.017.003-.006-.004.004-76.283-336.54-41.244 9.053Zm117.544 327.541-.012-.013.032-.007-.02.02Zm-.008.008-.004-.007.001.01.003-.003Zm-.015.015.002-.005-.006-.02-.014.012-.02.052.038-.039Zm.026-.021.017-.022.013-.003h.001l.001.001.034.026-.058.007-.008-.009Zm-.032-.023.001-.003.009.014-.003.001-.007-.012Zm-.007.018.005-.012.003.009-.008.003Zm.021-.001-.003-.005-.003.003.004.007.002-.005Zm.111-.164L538.199 36.504l42.25 41.748-263.661 238.41-.025.043.009-.029-.032.029.039-.049L420.886-7.252l72.191 18.299-176.252 305.55Z" fill="url(#b)"/></g><defs><radialGradient id="b" cx="0" cy="0" r="1" gradientUnits="userSpaceOnUse" gradientTransform="matrix(0 337.485 -346.719 0 312.137 316.158)"><stop stop-color="#FF8A00" stop-opacity="0"/><stop offset=".28" stop-color="#FF8A00" stop-opacity=".62"/><stop offset=".81" stop-color="#FF8A00" stop-opacity="0"/></radialGradient></defs></svg>