<svg viewBox="0 0 557 183" fill="none" xmlns="http://www.w3.org/2000/svg"><g filter="url(#a)"><path d="M532.766 6.984c-.109-1.099-.993-1.997-2.098-1.997l-504-.022c-1.105 0-1.99.898-2.099 1.997-.937 9.451-8.454 16.967-17.905 17.904-1.099.109-1.997.994-1.997 2.098l-.006 126c0 1.105.898 1.99 1.998 2.099 9.45.937 16.966 8.454 17.903 17.905.11 1.099.994 1.997 2.098 1.997l504.001.022c1.104 0 1.989-.898 2.098-1.997.938-9.451 8.454-16.967 17.905-17.903 1.099-.109 1.997-.994 1.997-2.099l.006-126c0-1.104-.898-1.99-1.997-2.098-9.451-.938-16.967-8.454-17.904-17.906Z" fill="url(#b)"/><path d="m530.668 2.987-504-.022c-2.254 0-3.89 1.803-4.089 3.8-.843 8.502-7.61 15.268-16.112 16.11-1.997.198-3.8 1.835-3.8 4.089l-.006 126c0 2.254 1.803 3.891 3.8 4.089 8.503.843 15.268 7.609 16.11 16.112.199 1.997 1.835 3.8 4.09 3.8l503.999.022c2.255 0 3.891-1.803 4.089-3.8.844-8.502 7.61-15.268 16.112-16.11 1.997-.198 3.8-1.835 3.8-4.089l.006-126c0-2.254-1.803-3.89-3.8-4.089-8.502-.843-15.268-7.61-16.11-16.112-.198-1.997-1.835-3.8-4.089-3.8Z" stroke="#EFF9FF" stroke-width="4"/></g><path d="M31.658 26.965a1 1 0 0 1 1-1l502 .022a1 1 0 0 1 0 2l-502-.022a1 1 0 0 1-1-1Z" fill="#463532" fill-opacity=".17"/><path opacity=".65" fill-rule="evenodd" clip-rule="evenodd" d="m536.977 47.644-.001 4.425c0 .037-.019.064-.048.064l-31.57-.001a.042.042 0 0 1-.019-.005.057.057 0 0 1-.016-.014.07.07 0 0 1-.01-.021.1.1 0 0 1-.003-.025V47.64c0-.016.005-.032.014-.044a.045.045 0 0 1 .035-.018l31.569.002c.027 0 .049.032.049.064Zm2.771 19.726v-4.427c0-.035.019-.062.048-.062h3.465c.027 0 .048.033.048.065v4.425c0 .037-.025.062-.051.062h-3.462a.035.035 0 0 1-.018-.005.044.044 0 0 1-.016-.014.069.069 0 0 1-.011-.02.094.094 0 0 1-.003-.024Zm0-6.704v-4.424c0-.038.019-.062.049-.062h3.464c.027 0 .048.03.048.062v4.427c0 .035-.025.062-.05.062h-3.463a.04.04 0 0 1-.019-.005.055.055 0 0 1-.026-.035.1.1 0 0 1-.003-.025Zm-.001 22.51V69.648c0-.037.019-.064.049-.064h3.464c.028 0 .049.027.049.064l-.001 13.53c0 .038-.025.064-.05.064h-3.463c-.029 0-.048-.027-.048-.064ZM505.31 56.495v-2.15c0-.038.019-.065.048-.065l31.57.002c.027 0 .048.032.048.065v2.15c0 .035-.025.062-.048.062l-31.57-.002a.043.043 0 0 1-.034-.018.072.072 0 0 1-.014-.044Zm.027 26.748a.041.041 0 0 1 .02-.005v.006l31.569.001c.028 0 .049.032.049.062v2.15c0 .038-.025.065-.049.065l-31.569-.002a.038.038 0 0 1-.019-.005.046.046 0 0 1-.016-.014.073.073 0 0 1-.011-.02.1.1 0 0 1-.003-.025v-2.15c0-.009.001-.018.003-.026a.057.057 0 0 1 .026-.037Zm-.026-46.79V32.023c0-.016.006-.031.015-.042a.043.043 0 0 1 .033-.018l37.903.002c.027 0 .049.032.049.065l-.001 4.424c0 .038-.025.062-.048.062l-37.903-.002a.036.036 0 0 1-.018-.004.044.044 0 0 1-.016-.014.067.067 0 0 1-.011-.02.093.093 0 0 1-.003-.023Zm34.437 17.516.001-15.175c0-.035.019-.062.048-.062h3.465c.027 0 .048.024.048.062v15.175c0 .038-.026.065-.051.065h-3.462c-.03 0-.049-.027-.049-.065ZM505.31 40.942v-2.15c0-.036.019-.063.049-.063l31.569.002c.028 0 .049.032.049.062v2.15c0 .038-.025.065-.049.065l-31.569-.002a.039.039 0 0 1-.019-.005.046.046 0 0 1-.016-.014.073.073 0 0 1-.011-.02.1.1 0 0 1-.003-.025Zm31.665 46.791v2.147c0 .035-.019.063-.049.063l-31.569-.002a.046.046 0 0 1-.035-.018.073.073 0 0 1-.014-.044v-2.15c0-.008.002-.016.004-.024a.05.05 0 0 1 .011-.02.041.041 0 0 1 .034-.018l31.569.001c.028 0 .049.033.049.065Zm0-15.555v2.147c0 .038-.019.065-.048.065l-31.57-.002a.04.04 0 0 1-.019-.005.057.057 0 0 1-.016-.014.07.07 0 0 1-.01-.02.1.1 0 0 1-.003-.025v-2.15a.074.074 0 0 1 .015-.043.043.043 0 0 1 .034-.017l31.569.002c.027 0 .048.032.048.062Zm.001-6.701v4.421c0 .038-.019.065-.049.065l-31.569-.001a.045.045 0 0 1-.035-.02.054.054 0 0 1-.011-.02.1.1 0 0 1-.003-.025v-4.425c0-.008.002-.016.004-.023a.066.066 0 0 1 .01-.02.054.054 0 0 1 .016-.014.039.039 0 0 1 .019-.005l31.569.002c.028 0 .049.032.049.064Zm0-6.702v4.422c0 .038-.019.065-.049.065l-31.569-.002a.045.045 0 0 1-.035-.02.073.073 0 0 1-.011-.02.1.1 0 0 1-.003-.024l.001-4.425.003-.024a.07.07 0 0 1 .011-.02.045.045 0 0 1 .016-.013.036.036 0 0 1 .018-.005l31.57.002c.027 0 .048.032.048.064Zm.001-15.555v2.147c0 .035-.019.062-.049.062l-31.569-.001a.045.045 0 0 1-.035-.018.072.072 0 0 1-.014-.044v-2.15c0-.008.001-.016.004-.024a.066.066 0 0 1 .01-.02.056.056 0 0 1 .016-.014.04.04 0 0 1 .019-.004l31.569.001c.028 0 .049.032.049.065Zm2.767 46.677.003-4.44c0-.036.019-.063.048-.063h3.465c.027 0 .048.03.048.065l-.002 4.441c0 .035-.026.062-.051.062h-3.462a.039.039 0 0 1-.019-.005.045.045 0 0 1-.016-.014.05.05 0 0 1-.007-.01l-.004-.011a.1.1 0 0 1-.003-.025Zm-2.769-13.295v4.424c0 .038-.019.065-.048.065l-31.57-.001a.04.04 0 0 1-.019-.005.056.056 0 0 1-.026-.035.052.052 0 0 1-.003-.025v-4.424a.068.068 0 0 1 .003-.025.07.07 0 0 1 .01-.021.057.057 0 0 1 .016-.014.04.04 0 0 1 .019-.005l31.57.001c.027 0 .048.033.048.065Zm-.001 30.045v4.424c0 .038-.019.065-.049.065l-31.569-.001a.041.041 0 0 1-.019-.005c-.006-.004-.012-.008-.016-.014a.09.09 0 0 1-.011-.022.093.093 0 0 1-.003-.024v-4.427c0-.017.006-.032.015-.044a.042.042 0 0 1 .034-.018l31.569.001c.028 0 .049.033.049.065Zm2.771 19.726v-4.427c0-.035.019-.062.049-.062h3.464c.027 0 .049.033.049.065l-.001 4.424c0 .038-.025.062-.05.062h-3.462a.032.032 0 0 1-.019-.005.048.048 0 0 1-.016-.013.075.075 0 0 1-.01-.02.03.03 0 0 1-.003-.013l-.001-.011Zm0-6.704v-4.424c0-.038.019-.062.049-.062h3.464c.028 0 .049.03.049.062v4.427c0 .035-.026.062-.051.062h-3.462a.041.041 0 0 1-.019-.005.036.036 0 0 1-.01-.007l-.006-.007a.07.07 0 0 1-.011-.021.05.05 0 0 1-.002-.013l-.001-.012Zm-.001 22.51.001-13.529c0-.038.019-.065.048-.065h3.465c.027 0 .048.027.048.065v13.53c0 .037-.026.064-.051.064h-3.462c-.03 0-.049-.027-.049-.065Zm-34.437-26.682v-2.15c0-.038.019-.065.049-.065l31.569.001c.028 0 .049.033.049.065v2.15c0 .035-.026.062-.049.062l-31.569-.001a.047.047 0 0 1-.035-.018.074.074 0 0 1-.014-.044Zm.028 26.748a.045.045 0 0 1 .019-.005v.005l31.57.002c.027 0 .048.032.048.062v2.15c0 .038-.025.065-.048.065l-31.57-.002a.034.034 0 0 1-.019-.005.052.052 0 0 1-.016-.014.068.068 0 0 1-.01-.021.1.1 0 0 1-.003-.025v-2.15a.07.07 0 0 1 .002-.025.057.057 0 0 1 .011-.022.057.057 0 0 1 .016-.015Zm-.027-46.79v-4.43a.074.074 0 0 1 .015-.042.043.043 0 0 1 .034-.017l37.902.002c.028 0 .049.032.049.064v4.425c0 .038-.026.062-.049.062l-37.903-.002a.039.039 0 0 1-.018-.004.056.056 0 0 1-.016-.014.066.066 0 0 1-.01-.02.064.064 0 0 1-.004-.024Zm34.438 17.516V97.796c0-.035.019-.062.049-.062h3.464c.028 0 .049.024.049.062l-.001 15.175c0 .038-.025.065-.051.065l-3.462-.001c-.029 0-.048-.027-.048-.064Zm-34.438-13.027v-2.15c0-.035.019-.062.048-.062l31.57.002c.027 0 .048.032.048.062v2.15c0 .037-.025.064-.048.064l-31.57-.001a.045.045 0 0 1-.019-.005.051.051 0 0 1-.016-.014.07.07 0 0 1-.01-.021.068.068 0 0 1-.003-.025Zm31.664 46.792v2.147c0 .035-.019.062-.048.062l-31.57-.001a.045.045 0 0 1-.034-.018.074.074 0 0 1-.014-.044v-2.15c0-.008.001-.017.003-.024a.064.064 0 0 1 .011-.02.043.043 0 0 1 .016-.014.04.04 0 0 1 .018-.004l31.57.001c.027 0 .048.032.048.065Zm.001-15.556v2.148c0 .038-.019.065-.049.065l-31.569-.002a.032.032 0 0 1-.019-.005.043.043 0 0 1-.016-.014.07.07 0 0 1-.011-.021.1.1 0 0 1-.003-.025v-2.15a.074.074 0 0 1 .015-.042.044.044 0 0 1 .034-.017l31.569.001c.028 0 .049.033.049.062Zm0-6.701v4.422c0 .038-.019.065-.049.065l-31.569-.002a.032.032 0 0 1-.019-.005.043.043 0 0 1-.016-.014.051.051 0 0 1-.01-.021.069.069 0 0 1-.004-.025l.001-4.424.003-.024c.003-.007.006-.014.011-.02a.04.04 0 0 1 .016-.013.04.04 0 0 1 .018-.005l31.57.001c.027 0 .048.033.048.065Zm0-6.701v4.422c0 .037-.019.064-.048.064l-31.57-.001a.045.045 0 0 1-.019-.005.052.052 0 0 1-.016-.014.068.068 0 0 1-.01-.021.069.069 0 0 1-.003-.025v-4.424a.075.075 0 0 1 .014-.044.048.048 0 0 1 .016-.013.032.032 0 0 1 .019-.005l31.569.001c.027 0 .048.033.048.065Zm.001-15.555v2.147c0 .035-.019.062-.048.062l-31.57-.001a.045.045 0 0 1-.034-.018.074.074 0 0 1-.014-.044v-2.15c0-.009.001-.017.003-.024a.055.055 0 0 1 .011-.02.043.043 0 0 1 .016-.014.04.04 0 0 1 .018-.005l31.57.002c.027 0 .048.032.048.065Zm2.768 46.677.002-4.441c0-.035.019-.062.049-.062h3.464c.028 0 .049.03.049.065l-.003 4.441c0 .035-.025.062-.051.062h-3.462a.045.045 0 0 1-.019-.005.07.07 0 0 1-.016-.014.081.081 0 0 1-.01-.021c-.003-.008-.004-.017-.003-.025Zm-2.769-13.295v4.424c0 .038-.019.065-.049.065l-31.569-.002a.045.045 0 0 1-.02-.004.075.075 0 0 1-.016-.015.068.068 0 0 1-.01-.021.099.099 0 0 1-.003-.024v-4.425l.003-.024a.07.07 0 0 1 .011-.021.043.043 0 0 1 .016-.014.032.032 0 0 1 .019-.005l31.569.001c.028 0 .049.032.049.065Z" fill="#6B8AA0"/><defs><radialGradient id="b" cx="0" cy="0" r="1" gradientUnits="userSpaceOnUse" gradientTransform="matrix(-.0049 112.5 -296.471 -.01294 228.664 89.974)"><stop stop-color="#EFF8FF"/><stop offset="1" stop-color="#C7E2F5"/></radialGradient><filter id="a" x=".662" y=".965" width="556.006" height="182.022" filterUnits="userSpaceOnUse" color-interpolation-filters="sRGB"><feFlood flood-opacity="0" result="BackgroundImageFix"/><feColorMatrix in="SourceAlpha" values="0 0 0 0 0 0 0 0 0 0 0 0 0 0 0 0 0 0 127 0" result="hardAlpha"/><feOffset dy="4"/><feComposite in2="hardAlpha" operator="out"/><feColorMatrix values="0 0 0 0 0 0 0 0 0 0 0 0 0 0 0 0 0 0 0.13 0"/><feBlend in2="BackgroundImageFix" result="effect1_dropShadow_1593_26532"/><feBlend in="SourceGraphic" in2="effect1_dropShadow_1593_26532" result="shape"/></filter></defs></svg>