<svg width="48" height="48" fill="none" xmlns="http://www.w3.org/2000/svg"><g filter="url(#a)"><path d="M37 24a13 13 0 0 1-13-13 13 13 0 0 1-13 13 13 13 0 0 1 13 13 13 13 0 0 1 13-13Z" fill="#F9A842"/></g><path d="M34.983 24.125a.46.46 0 0 0 0-.901c-2.849-.725-5.46-1.317-7.501-3.357-2.04-2.04-2.632-4.652-3.357-7.502a.46.46 0 0 0-.901 0c-.725 2.85-1.317 5.462-3.357 7.502s-4.652 2.632-7.502 3.357a.46.46 0 0 0 0 .901c2.85.725 5.462 1.317 7.502 3.357s2.632 4.652 3.357 7.501a.46.46 0 0 0 .901 0c.725-2.849 1.317-5.46 3.357-7.5 2.04-2.041 4.652-2.633 7.501-3.358Z" fill="#fff"/><defs><filter id="a" x=".269" y=".269" width="47.462" height="47.462" filterUnits="userSpaceOnUse" color-interpolation-filters="sRGB"><feFlood flood-opacity="0" result="BackgroundImageFix"/><feBlend in="SourceGraphic" in2="BackgroundImageFix" result="shape"/><feGaussianBlur stdDeviation="5.365" result="effect1_foregroundBlur_787_4524"/></filter></defs></svg>