<svg viewBox="0 0 83 54" fill="none" xmlns="http://www.w3.org/2000/svg"><mask id="a" style="mask-type:alpha" maskUnits="userSpaceOnUse" x="0" y="0" width="83" height="54"><path d="M0 0h83v54H0V0Z" fill="#D9D9D9"/></mask><g mask="url(#a)"><path d="M68.222 35.76c.18-.901.474-1.774.878-2.598 1.189-2.475 2.983-4.067 4.006-3.56.813.4.902 1.996.315 3.87.57-.331 1.156-.632 1.756-.902 3.495-1.569 6.773-1.592 7.318-.056.544 1.535-1.85 4.053-5.35 5.636-1.102.487-2.239.895-3.4 1.22.084.216.127.446.127.677 0 4.152-14.3 7.514-31.936 7.514C24.301 47.561 10 44.2 10 40.047s14.296-7.514 31.936-7.514c10.9-.02 20.519 1.268 26.286 3.226Z" fill="#A5D647"/><mask id="b" style="mask-type:luminance" maskUnits="userSpaceOnUse" x="13" y="3" width="57" height="43"><path d="M16.9 7.688c-1.86 2.659-2.781 6.331-2.766 11.018-.15.996-.4 6.132-.751 15.41 0 2.367.61 4.223 1.831 5.57 1.18 1.305 11.859 6.222 26.277 6.138 7.867-.047 16.842-.47 26.01-6.345 1.53-.92 2.186-3.18 1.967-6.777-.072-9.017-1.312-17.05-3.72-24.098-2.407-7.048-18.69-7.353-48.848-.916Z" fill="#fff"/></mask><g mask="url(#b)"><path d="M69.824 4H9v47.41h60.824V4Z" fill="#B6753B"/><g filter="url(#c)"><path d="M24.745-1.916H1.765v62.505h22.98V-1.916Z" fill="#C88346"/></g></g><g filter="url(#d)"><path d="M20.124 47.242c-1.225.47-3.212-1.475-4.461-4.363-1.25-2.889-1.287-5.688-.066-6.2 1.221-.512 3.231 1.442 4.485 4.354.033.07.061.14.09.211.21-.753.47-1.491.774-2.212 1.724-4.081 4.471-6.683 6.143-5.814 1.672.869 1.625 4.884-.094 8.96-1.719 4.077-4.466 6.684-6.138 5.815a1.8 1.8 0 0 1-.733-.751Z" fill="#C0E53F"/></g><g filter="url(#e)"><path d="M58.306 48.721c-1.298 2.236-4.382 3.673-7.87 3.422a10.255 10.255 0 0 1-3.871-1.037c-.998 1.863-3.524 3.078-6.39 2.871-3.59-.255-6.334-2.64-6.168-5.328.166-2.689 3.242-4.657 6.833-4.402.698.05 1.388.187 2.055.405.76-2.9 4.291-4.916 8.369-4.624 3.076.223 5.66 1.697 6.904 3.685a5.826 5.826 0 0 1 3.808-1.308c2.772 0 5.024 1.68 5.024 3.757 0 2.078-2.249 3.758-5.024 3.758a5.877 5.877 0 0 1-3.67-1.199Z" fill="#A5D647"/></g><path d="M41.379 16.907c13.487 0 24.421-3.785 24.421-8.453C65.8 3.784 54.866 0 41.38 0 27.89 0 16.957 3.785 16.957 8.454c0 4.668 10.934 8.453 24.422 8.453Z" fill="#D8AA59"/><path d="M41 13c8.837 0 16-2.239 16-5s-7.163-5-16-5-16 2.239-16 5 7.163 5 16 5Z" stroke="#B38142" stroke-width="2" stroke-miterlimit="10"/></g><defs><filter id="c" x="-2.234" y="-5.916" width="30.98" height="70.505" filterUnits="userSpaceOnUse" color-interpolation-filters="sRGB"><feFlood flood-opacity="0" result="BackgroundImageFix"/><feBlend in="SourceGraphic" in2="BackgroundImageFix" result="shape"/><feGaussianBlur stdDeviation="2" result="effect1_foregroundBlur_1676_18507"/></filter><filter id="d" x="14.703" y="33.051" width="13.609" height="19.109" filterUnits="userSpaceOnUse" color-interpolation-filters="sRGB"><feFlood flood-opacity="0" result="BackgroundImageFix"/><feBlend in="SourceGraphic" in2="BackgroundImageFix" result="shape"/><feColorMatrix in="SourceAlpha" values="0 0 0 0 0 0 0 0 0 0 0 0 0 0 0 0 0 0 127 0" result="hardAlpha"/><feOffset dy="4"/><feGaussianBlur stdDeviation="2"/><feComposite in2="hardAlpha" operator="arithmetic" k2="-1" k3="1"/><feColorMatrix values="0 0 0 0 0.870909 0 0 0 0 1 0 0 0 0 0.420833 0 0 0 1 0"/><feBlend in2="shape" result="effect1_innerShadow_1676_18507"/></filter><filter id="e" x="34" y="40" width="33" height="18" filterUnits="userSpaceOnUse" color-interpolation-filters="sRGB"><feFlood flood-opacity="0" result="BackgroundImageFix"/><feBlend in="SourceGraphic" in2="BackgroundImageFix" result="shape"/><feColorMatrix in="SourceAlpha" values="0 0 0 0 0 0 0 0 0 0 0 0 0 0 0 0 0 0 127 0" result="hardAlpha"/><feOffset dy="4"/><feGaussianBlur stdDeviation="2"/><feComposite in2="hardAlpha" operator="arithmetic" k2="-1" k3="1"/><feColorMatrix values="0 0 0 0 0.72521 0 0 0 0 0.941667 0 0 0 0 0.309965 0 0 0 1 0"/><feBlend in2="shape" result="effect1_innerShadow_1676_18507"/></filter></defs></svg>