<svg width="206" height="158" fill="none" xmlns="http://www.w3.org/2000/svg"><g filter="url(#a)"><path d="M90.035 100.17c27.144 27.106 31.235 46.978 42.943 42.686a9.566 9.566 0 0 0 2.056-10.843c-9.038-20.6-38.458-53.727-67.726-70.856-3.139-1.836-7.865-3.683-10.375-6.292-.741-.68-1.751-.457-2.643-.87-3.773-1.704-8.307-1.966-12.137-3.674-2.427-1.091-5.254-1.711-7.794-2.611l-18.188-7.526a80.343 80.343 0 0 1-12.105-5.892 4.379 4.379 0 0 0-3.22-.903c.191 1.942 5.548 5.08 7.304 6.007a41.16 41.16 0 0 1 4.587 3.657 45.365 45.365 0 0 0 5.597 3.266c.961.508.262 3.2 1.225 3.741 24.415 13.386 50.534 30.196 70.476 50.11Z" fill="#A16605"/></g><g filter="url(#b)"><circle cx="130.955" cy="141.589" r="16.223" fill="#FFCF81"/></g><g filter="url(#c)"><path d="M113.254 126.92c5.548-.639 13.106-7.695 13.106-7.695" stroke="#A16605" stroke-width="7" stroke-linecap="round" stroke-linejoin="round"/></g><g filter="url(#d)"><path d="M116.706 132.018c5.557-.554 13.222-7.493 13.222-7.493" stroke="#A16605" stroke-width="7" stroke-linecap="round" stroke-linejoin="round"/></g><path d="M154.07.685a117.36 117.36 0 0 0-52.678 9.146 199.154 199.154 0 0 0-35.679 19.137c-5.978 4.127-12.255 8.654-17.342 13.844l-9.236 16.404c4.435 3.144-5.213 3.405 0 2.547 2.027-.376 3.917-.017 5.667-1.106 1.143-.72 2.575-1.372 3.546-1.44 1.141.635 4.503 2.542 5.57 3.293 0 0 53.897 22.887 67.274 31.06 13.377 8.171 30.289 14.688 49.786 32.923 14.301 13.375 25.036 1.143 19.217-5.979-2.591-4.35-17.229-13.78-30.783-23.026-41.938-28.606-94.03-42.056-95.07-43.107 1.451-1.303 23.915 2.286 24.967 2.538 13.375 3.27 29.614 8.802 64.373 8.802 17.296-.583 39.519-8.254 43.932-25.379 1.326-4.767 5.899-36.524-43.544-39.657Zm26.076 35.508c-3.715 12.106-28.968 18.165-66.853 13.718-8.563-1.018-17.537-3.43-26.042-4.893-4.31-.766-19.583-2.767-19.583-2.767 5.499-1.611 11.81-5.898 17.056-8.345 30.101-14.004 60.464-25.07 83.453-16.061 7.168 2.789 14.736 9.34 11.969 18.348Z" fill="#A16605"/><mask id="e" style="mask-type:alpha" maskUnits="userSpaceOnUse" x="36" y="0" width="163" height="133"><path d="M154.07.685a117.36 117.36 0 0 0-52.678 9.146 199.149 199.149 0 0 0-35.679 19.136c-5.978 4.127-12.254 8.654-17.342 13.844L41.867 55.6c4.435 3.144-8.933 6.955-3.72 6.098 2.027-.377 3.878 2.311 5.629 1.222 1.143-.72 3.6-3.635 4.572-3.704 1.141.635 4.503 2.543 5.57 3.294 0 0 53.898 22.887 67.274 31.059 13.377 8.172 30.289 14.689 49.786 32.924 14.301 13.375 25.036 1.143 19.217-5.979-2.591-4.351-17.229-13.78-30.783-23.026-41.938-28.607-94.03-42.056-95.07-43.108 1.451-1.303 23.915 2.287 24.967 2.538 13.375 3.27 29.614 8.803 64.373 8.803 17.296-.583 39.52-8.254 43.932-25.379 1.326-4.767 5.899-36.525-43.544-39.657Zm26.076 35.507c-3.715 12.107-28.968 18.166-66.853 13.719-8.563-1.018-17.537-3.43-26.042-4.893-4.31-.766-19.583-2.767-19.583-2.767 5.499-1.612 11.81-5.899 17.057-8.345 30.1-14.004 60.463-25.07 83.452-16.062 7.168 2.79 14.736 9.34 11.969 18.348Z" fill="#A16605"/></mask><g mask="url(#e)"><g filter="url(#f)"><path d="M167.103 118.185c-24.289-21.83-93.774-51.96-113.144-55.343l8.916 17.218 79.631 55.957c13.426.512 41.322.491 45.504-3.69-7.687-.922-10.147-4.612-20.907-14.142Z" fill="#7A4C03"/></g><g filter="url(#g)"><path d="M183.698 25.966c-8.192-13.182-33.087-12.629-42.66-10.475l-23.72 22.003-51.668 5.23c3.692 1.343 3.538.676 30.746 6.362 15.895 3.321 32.034 6.287 48.262 5.684 44.631-1.66 44.322-20.305 39.04-28.804Z" fill="#794C03"/></g></g><g filter="url(#h)"><circle cx="189.565" cy="129.49" r="16.223" fill="#FFCF81"/></g><g filter="url(#i)"><path d="M166.672 121.635c5.054-2.374 9.968-11.472 9.968-11.472" stroke="#A16605" stroke-width="7" stroke-linecap="round" stroke-linejoin="round"/></g><g filter="url(#j)"><path d="M171.568 125.365c5.09-2.297 10.143-11.318 10.143-11.318" stroke="#A16605" stroke-width="7" stroke-linecap="round" stroke-linejoin="round"/></g><defs><filter id="a" x=".846" y="33.359" width="135.048" height="114.082" filterUnits="userSpaceOnUse" color-interpolation-filters="sRGB"><feFlood flood-opacity="0" result="BackgroundImageFix"/><feBlend in="SourceGraphic" in2="BackgroundImageFix" result="shape"/><feColorMatrix in="SourceAlpha" values="0 0 0 0 0 0 0 0 0 0 0 0 0 0 0 0 0 0 127 0" result="hardAlpha"/><feOffset dy="11"/><feGaussianBlur stdDeviation="2"/><feComposite in2="hardAlpha" operator="arithmetic" k2="-1" k3="1"/><feColorMatrix values="0 0 0 0 0 0 0 0 0 0 0 0 0 0 0 0 0 0 0.25 0"/><feBlend in2="shape" result="effect1_innerShadow_3173_59183"/></filter><filter id="b" x="114.732" y="120.065" width="32.447" height="37.747" filterUnits="userSpaceOnUse" color-interpolation-filters="sRGB"><feFlood flood-opacity="0" result="BackgroundImageFix"/><feBlend in="SourceGraphic" in2="BackgroundImageFix" result="shape"/><feColorMatrix in="SourceAlpha" values="0 0 0 0 0 0 0 0 0 0 0 0 0 0 0 0 0 0 127 0" result="hardAlpha"/><feOffset dy="-7"/><feGaussianBlur stdDeviation="2.65"/><feComposite in2="hardAlpha" operator="arithmetic" k2="-1" k3="1"/><feColorMatrix values="0 0 0 0 0.841667 0 0 0 0 0.631918 0 0 0 0 0.291076 0 0 0 1 0"/><feBlend in2="shape" result="effect1_innerShadow_3173_59183"/></filter><filter id="c" x="109.754" y="114.725" width="20.106" height="15.695" filterUnits="userSpaceOnUse" color-interpolation-filters="sRGB"><feFlood flood-opacity="0" result="BackgroundImageFix"/><feBlend in="SourceGraphic" in2="BackgroundImageFix" result="shape"/><feColorMatrix in="SourceAlpha" values="0 0 0 0 0 0 0 0 0 0 0 0 0 0 0 0 0 0 127 0" result="hardAlpha"/><feOffset dy="-1"/><feGaussianBlur stdDeviation=".95"/><feComposite in2="hardAlpha" operator="arithmetic" k2="-1" k3="1"/><feColorMatrix values="0 0 0 0 0 0 0 0 0 0 0 0 0 0 0 0 0 0 0.25 0"/><feBlend in2="shape" result="effect1_innerShadow_3173_59183"/></filter><filter id="d" x="113.206" y="120.025" width="20.222" height="15.493" filterUnits="userSpaceOnUse" color-interpolation-filters="sRGB"><feFlood flood-opacity="0" result="BackgroundImageFix"/><feBlend in="SourceGraphic" in2="BackgroundImageFix" result="shape"/><feColorMatrix in="SourceAlpha" values="0 0 0 0 0 0 0 0 0 0 0 0 0 0 0 0 0 0 127 0" result="hardAlpha"/><feOffset dy="-1"/><feGaussianBlur stdDeviation=".95"/><feComposite in2="hardAlpha" operator="arithmetic" k2="-1" k3="1"/><feColorMatrix values="0 0 0 0 0 0 0 0 0 0 0 0 0 0 0 0 0 0 0.25 0"/><feBlend in2="shape" result="effect1_innerShadow_3173_59183"/></filter><filter id="f" x="49.959" y="58.842" width="142.051" height="81.403" filterUnits="userSpaceOnUse" color-interpolation-filters="sRGB"><feFlood flood-opacity="0" result="BackgroundImageFix"/><feBlend in="SourceGraphic" in2="BackgroundImageFix" result="shape"/><feGaussianBlur stdDeviation="2" result="effect1_foregroundBlur_3173_59183"/></filter><filter id="g" x="62.55" y="11.211" width="126.657" height="46.738" filterUnits="userSpaceOnUse" color-interpolation-filters="sRGB"><feFlood flood-opacity="0" result="BackgroundImageFix"/><feBlend in="SourceGraphic" in2="BackgroundImageFix" result="shape"/><feGaussianBlur stdDeviation="1.55" result="effect1_foregroundBlur_3173_59183"/></filter><filter id="h" x="173.342" y="107.967" width="32.447" height="37.747" filterUnits="userSpaceOnUse" color-interpolation-filters="sRGB"><feFlood flood-opacity="0" result="BackgroundImageFix"/><feBlend in="SourceGraphic" in2="BackgroundImageFix" result="shape"/><feColorMatrix in="SourceAlpha" values="0 0 0 0 0 0 0 0 0 0 0 0 0 0 0 0 0 0 127 0" result="hardAlpha"/><feOffset dy="-7"/><feGaussianBlur stdDeviation="2.65"/><feComposite in2="hardAlpha" operator="arithmetic" k2="-1" k3="1"/><feColorMatrix values="0 0 0 0 0.843137 0 0 0 0 0.631373 0 0 0 0 0.290196 0 0 0 0.6 0"/><feBlend in2="shape" result="effect1_innerShadow_3173_59183"/></filter><filter id="i" x="163.171" y="105.663" width="16.97" height="19.473" filterUnits="userSpaceOnUse" color-interpolation-filters="sRGB"><feFlood flood-opacity="0" result="BackgroundImageFix"/><feBlend in="SourceGraphic" in2="BackgroundImageFix" result="shape"/><feColorMatrix in="SourceAlpha" values="0 0 0 0 0 0 0 0 0 0 0 0 0 0 0 0 0 0 127 0" result="hardAlpha"/><feOffset dy="-1"/><feGaussianBlur stdDeviation=".95"/><feComposite in2="hardAlpha" operator="arithmetic" k2="-1" k3="1"/><feColorMatrix values="0 0 0 0 0 0 0 0 0 0 0 0 0 0 0 0 0 0 0.25 0"/><feBlend in2="shape" result="effect1_innerShadow_3173_59183"/></filter><filter id="j" x="168.068" y="109.547" width="17.145" height="19.319" filterUnits="userSpaceOnUse" color-interpolation-filters="sRGB"><feFlood flood-opacity="0" result="BackgroundImageFix"/><feBlend in="SourceGraphic" in2="BackgroundImageFix" result="shape"/><feColorMatrix in="SourceAlpha" values="0 0 0 0 0 0 0 0 0 0 0 0 0 0 0 0 0 0 127 0" result="hardAlpha"/><feOffset dy="-1"/><feGaussianBlur stdDeviation=".95"/><feComposite in2="hardAlpha" operator="arithmetic" k2="-1" k3="1"/><feColorMatrix values="0 0 0 0 0 0 0 0 0 0 0 0 0 0 0 0 0 0 0.25 0"/><feBlend in2="shape" result="effect1_innerShadow_3173_59183"/></filter></defs></svg>