<svg width="68" height="51" fill="none" xmlns="http://www.w3.org/2000/svg"><path d="M1.204 12.017C2.574 7.629 7.828 2.41 16.37 4.329c0 0-4.5 3.867-1.891 16.761C17.74 37.21 30.945 38.477 40.753 35.05c2.531.822 8.81 3.665 4.499 8.389-5.379 5.895-21.268 4.91-32.342-2.631C1.836 33.268-1.125 19.469 1.204 12.017Z" fill="url(#a)"/><path d="M66.413 23.58C62.027 10.807 50.14 2.335 31.156 5.434c-8.332 1.92-11.653 7.932-6.539 13.71 10.125-5.347 19.827.274 25.523 6.992 5.695 6.718 5.073 11.477 3.597 19.977 7.91 1.097 17.723-7.84 12.676-22.535Z" fill="url(#b)"/><path d="M23.351 18.856c-1.582-5.072-.273-13.48 3.946-13.891C24.87-2.44 17.862 2.24 14.065 6.627c-3.246 3.75-8.298 12.722 1.823 24.849 8.014 9.601 26.341 7.056 32.116 3.627l-9.666-4.387c-7.066-3.016-13.405-6.788-14.987-11.86Z" fill="#5E3C04"/><path d="M23.351 15.856c-1.582-5.072 3.586-9.871 7.805-10.283C28.73-1.83 17.862-.76 14.066 3.627c-3.247 3.75-8.376 13.345 1.745 25.471 9.322 11.169 25.595 8.003 31.37 4.574l-8.843-5.956c-7.066-3.016-13.405-6.788-14.987-11.86Z" fill="url(#c)"/><path d="M54.184 48.106c-4.114 3.29-11.684 3.348-17.345-1.003 4.723-2.803 4.63-8.76 4.63-9.884 0-3.872-3.115-8.99-8.11-11.732-4.324-1.782-5.206-2.003-8.456-6.669 11.074-6.718 23.058-2.967 29.28 5.26 6.223 8.225 4.114 20.737 0 24.028Z" fill="url(#d)"/><defs><linearGradient id="a" x1="4.091" y1="3.92" x2="24.71" y2="47.253" gradientUnits="userSpaceOnUse"><stop stop-color="#A16605"/><stop offset="1" stop-color="#674102"/></linearGradient><linearGradient id="b" x1="44.991" y1=".738" x2="33.959" y2="23.593" gradientUnits="userSpaceOnUse"><stop stop-color="#D98B0E"/><stop offset=".926" stop-color="#6A3F00"/></linearGradient><linearGradient id="c" x1="29.128" y1="-6.915" x2="25.016" y2="34.679" gradientUnits="userSpaceOnUse"><stop stop-color="#B47001"/><stop offset="1" stop-color="#633F03"/></linearGradient><linearGradient id="d" x1="51.19" y1="15.353" x2="41.501" y2="43.641" gradientUnits="userSpaceOnUse"><stop stop-color="#B77100"/><stop offset="1" stop-color="#6B4200"/></linearGradient></defs></svg>