<svg width="152" height="99" fill="none" xmlns="http://www.w3.org/2000/svg"><g fill="#D1DFE9"><path d="M123.77 30.592a1.514 1.514 0 0 1-.436.496c-2.206-.27-4.412-.667-6.618-1.141a1.18 1.18 0 0 1-.16-.348l.436-.628c-.403.198-.491.402-.436.628l-.193.276-.447-.105a3.308 3.308 0 0 0-2.145-1.29.657.657 0 0 1-.304.717c-17.995-4.445-35.93-12.883-53.137-2.631-2.167-.502-.05-.833-2.542-.899 22.788-12.221 44.12 1.517 65.761 4.412-.103.122-.185.26-.243.408l.464.105ZM150.419 25.568c.744.303-1.054.694-1.991 1.053-.508.292-1.015.552-1.523.833a.729.729 0 0 1-.049-.144 38.626 38.626 0 0 0 3.563-1.742ZM135.721 30.928v.144a44.67 44.67 0 0 1-11.543.115c.147-.117.301-.224.463-.32-.331-.104-.518-.55-.695-.771 1.616.209 3.237.352 4.864.419 0 .28.298.176.618 0 1.368.038 2.758 0 4.109-.061l-.309.772.838-.81c.281 0 .552-.045.85-.072l-.26.551c.354.03.71.042 1.065.033Z"/><path d="M135.72 30.928a2.35 2.35 0 0 1 .221-.673c1.622-.19 3.23-.485 4.815-.882.066.033.132.055.198.094l-.551.59c-1.46.42-2.945.747-4.445.982a.32.32 0 0 0-.238-.11ZM151.053 37.921c-.497.27-.998.552-1.495.767-1.263-.43-.64-.607 1.495-.767ZM91.441 35.186c-10.55-2.008-21.304-2.101-32.384 3.833 1.103-.645-.998-.645 1.285-1.224 8.752-5.306 17.78-5.598 27.023-4.021v.276l.651.204-.149-.392c1.32.232 2.64.497 3.96.794-.242.15-.413.276-.386.53ZM108.991 39.675l-3.309-.915c.039-.119.085-.235.137-.348 1.103.315 2.234.623 3.348.927a.713.713 0 0 0-.176.336ZM92.169 35.33a.657.657 0 0 0 .083-.552c4.147.943 8.333 2.15 12.557 3.342.1.17.155.32.232.447-4.263-1.214-8.554-2.377-12.872-3.238ZM126.532 43.15a5.02 5.02 0 0 0-1.417-.381c0-.072.05-.143.072-.215.887.094 1.781.17 2.674.22a2.459 2.459 0 0 0-.684.723l-.998-.11c.033-.094.138-.177.353-.237Z"/><path d="M149.558 38.688c.287.1.678.21 1.174.336a36.537 36.537 0 0 1-10.423 3.91 7.624 7.624 0 0 1-1.103-.81 40.62 40.62 0 0 0 10.352-3.436ZM112.117 40.083c.027.094 0 .21-.182.37l-1.445-.392c.061-.115.132-.226.209-.347l1.418.37ZM138.875 42.179c.143.258.33.49.552.684a4.075 4.075 0 0 1-.331.303c-.723.127-1.451.237-2.173.32a6.365 6.365 0 0 1-.717-.91 47.26 47.26 0 0 0 2.669-.397ZM123.88 42.4l.645.082-.082.42a.9.9 0 0 0-.265.22l-.513-.077c.002-.233.077-.458.215-.645ZM128.59 42.813l.601.028c.132.253.253.513.364.777a.586.586 0 0 1-.094.056c-.386 0-.767-.044-1.153-.078a.824.824 0 0 1-.264-.21l.546-.573ZM122.386 42.383a.844.844 0 0 1 .766.585l-.766-.133a3.424 3.424 0 0 1-.326-.303c.111-.055.215-.1.326-.149ZM97.089 48.946l-.154.11a90.746 90.746 0 0 0-12.045-2.509.28.28 0 0 1 0-.06.424.424 0 0 0-.044.06c-7.264-.904-14.411-.38-21.465 3.21-.033-.226-.21-.447-.667-.673 0 .231.165.965-.27 1.059a1.522 1.522 0 0 1-.238-1.136c8.102-3.894 16.176-4.22 24.266-3.028a.805.805 0 0 0 1.104.165l.181.033c3.056.508 6.117 1.208 9.188 2.002 0 0-.033 0-.05.028-.005.452-.005.452.194.739ZM107.974 52.167v-.144c0-.259-.049-.551-.071-.827 3.96 1.103 7.947 2.123 11.956 2.857l-.331.882c-3.921-.711-7.743-1.704-11.554-2.768ZM127.702 55.051c.507.033 1.014.055 1.522.077-.155.155-.166.342.27.59a2.206 2.206 0 0 1 2.454.27c-1.758.05-3.518.012-5.272-.115.462-.031.911-.167 1.312-.397a4.492 4.492 0 0 1-.286-.425ZM105.736 51.532c0-.286-.028-.551-.386-.683.045.195.07.395.072.595-2.681-.766-5.344-1.538-7.992-2.255l.552-.199c-.182-.26-.32-.502-.458-.667 3.171.833 6.353 1.748 9.552 2.641-.107.294-.256.57-.441.822l-.899-.254ZM124.493 55.669a60.14 60.14 0 0 1-2.83-.37.722.722 0 0 0 .408-.866 69.58 69.58 0 0 0 2.797.37l.132.127-.507.739ZM120.466 54.163l.452.077a.42.42 0 0 1-.452-.077ZM126.379 55.845l-1.103-.094a1.829 1.829 0 0 1-.21-.772c.343.412.8.713 1.313.866ZM62.04 49.558l.403.7c-.512.282-1.03.58-1.55.9-.91-.205.27-.646-1.141-.86.403-.233.81-.448 1.213-.663.044.116.103.226.177.326.419.353.419-.094.899-.403ZM127.862 68.188c.05-.226.105-.458.155-.684.932.038 1.869.055 2.807.044l.684.756a48.176 48.176 0 0 1-3.646-.116ZM88.446 59.297c-9.375-1.566-18.95-1.378-29.03 3.53.236-.154.314-.32-.166-.452 9.249-5.465 18.635-5.636 28.165-3.921.312.317.658.6 1.031.843ZM126.771 68.105c-12.646-1.103-24.967-6.458-37.674-8.692 0-.204.034-.408.061-.623 10.534 2.134 21.238 6.326 32.114 8.019.241.142.527.187.8.127 1.338.19 2.684.34 4.037.446a.434.434 0 0 0 0 .089.854.854 0 0 1 .662.634ZM136.195 68.033l-.353.033c-.678-.242-1.483-.28-2.112-.65a42.294 42.294 0 0 0 3.309-.397 3.497 3.497 0 0 1-.844 1.014ZM58.963 63.048c-.149.071-.292.137-.436.215-.05-.028.177-.11.436-.215ZM59.415 62.838a3.435 3.435 0 0 1-.452.22l.452-.22ZM60.92 74.69c-1 .563-2.095.937-3.231 1.103a44.497 44.497 0 0 1 5.592-2.443c-.794.419-1.577.855-2.36 1.34ZM145.047 77.756a1.269 1.269 0 0 0-.591-.43c.353-.138.701-.281 1.054-.436-.039.414-.122.8-.463.866ZM80.273 69.964c7.247.297 14.714 2.288 22.242 4.412.281.375.883.683.899 1.025-7.379-2.057-14.797-4.025-22.363-4.45a1.753 1.753 0 0 1-.778-.987ZM80.257 69.963l-.05.944a44.15 44.15 0 0 0-16.925 2.46c5.448-2.78 11.151-3.64 16.975-3.404ZM149.657 75.037c1.191.155-.656.31.717.85-.292.154-.585.297-.877.44a2.294 2.294 0 0 1 .16-1.29ZM136.339 79.471c-.287.348-1.721-.033-1.842 1.026-10.479.828-20.715-2.206-31.039-5.085l.414-.656c10.853 3.078 21.828 6.21 32.467 4.715ZM141.87 78.512c-.551 0-1.103-.144-.7.761a1.174 1.174 0 0 1-.122.176l-.452.11a2.372 2.372 0 0 1-.551-.793c.831-.21 1.663-.453 2.498-.728-.044.413-.342.474-.673.474ZM147.424 76.626c.281-.552.612-.166.927.28-.353.16-.706.32-1.054.47a1.705 1.705 0 0 1 .127-.75Z"/><g><path d="m50.458 3.149.486-.728c.65-.678 1.522-.987 2.123-1.875l.833.127-.833 1.18 1.324-.916-.094-.198c2.052.356 4.078.846 6.066 1.467.056.182.155.303.397.237v-.11c.403.127.806.264 1.203.402-.122.778.49.491.976.348A50.613 50.613 0 0 1 75.348 9.81a2.21 2.21 0 0 1-.298.392 44.672 44.672 0 0 0-24.592-7.054ZM75.53 10.517c.053-.146.117-.288.192-.425.678.508 1.34 1.037 1.997 1.578v.077l.066-.044a53.277 53.277 0 0 1 5.515 5.316 43.985 43.985 0 0 0-7.77-6.502ZM95.847 47.578l.27-.22c-.248-.497-.43-.607-.606-.668a46.91 46.91 0 0 0-4.522-18.426 53.027 53.027 0 0 1 4.274 11.417l-.199.248.232-.133a53.2 53.2 0 0 1 1.346 8.234c-.486.403-.69.06-.795-.452ZM5.428 27.823l-.265.408c-.068.088-.131.18-.188.276l.188-.276c.446-.551.844-.242 1.34-.248a57.079 57.079 0 0 0-1.031 2.206c-.171.05-.315 0-.348-.242l.359-.552a1.103 1.103 0 0 0 .551-.822l-.551.822c-.219.094-.416.23-.58.403-.369.551-.231 1.44.133 1.406a43.762 43.762 0 0 0-1.103 2.978c-.041-.34.047-.682.248-.96l-1.031.839.6-.954a4.41 4.41 0 0 0-.881 1.185.958.958 0 0 1 .28-.231l.034-.028c.254-.105.386.16.21.761.197-.11.37-.26.507-.44-.083.242-.16.49-.237.738a.446.446 0 0 0-.039.121 50.412 50.412 0 0 0-1.892 8.45l-.904.738.342.033c-1.07.877-.844 1.782-.524 1.991l.64-1.141c.092.056.17.132.231.22l-.066.728c-.1.11-.216.207-.342.287.077.05.193 0 .326-.05 0 .177 0 .353-.039.524l-1.252.47-.088.336c.106-3.63.61-7.239 1.5-10.76.276 0-.22.85 0 .667l.926-1.544c-.248.132-.551.353-.843.552a47.746 47.746 0 0 1 3.37-9.023.447.447 0 0 0 .418.132ZM9.664 22.529c-.27.22-.551.424-.656.182a1.136 1.136 0 0 0-.232-1.406 50.272 50.272 0 0 1 1.715-2.295c.33.331.733.582 1.175.734-.7.899-1.395 1.83-2.002 2.785ZM6.184 35.66c-.17.452-.479.839-.883 1.103.127-.413.26-.827.397-1.23a.369.369 0 0 1 .486.127ZM85.043 71.949c.248-.822 1.158.507 1.103-.805-.728.137-1.153.551-1.837.231a38.38 38.38 0 0 0 1.423-2.862c.65.59 1.056 1.4 1.142 2.272l-.193.684c-.325.59-.667 1.17-1.026 1.743l.066-.596-.678-.667Z"/><path d="M50.944 2.421c-.205.214-.375.46-.502.728h-.187.176l-.05.094.067-.094a47.132 47.132 0 0 1 15.646 4.44c-.458.452-.811 1.588-1.379 1.533 0-.039.033-.066.05-.11.05-.364-.221-.138-.353-.028.084.076.19.124.303.138-.552 1.445-.827.673-1.313 1.13l-.49-.176c0-.392-.033-.65-.392-.143a34.54 34.54 0 0 0-13.55-1.898c-.943 0-1.881 0-2.813.033-.127-.408-.165-1.025-.69-.176 0 .066.045.138.061.21-3.683.215-7.32.93-10.81 2.128-.087-.182-.264-.22-.55 0 .474-1.654.821-1.61 1.681-1.842.078-.551.37-.926-.038-1.378.292.182.96-.79 1.654-1.81.392-.12.783-.242 1.175-.352.551.69 2.002-.237 2.162 1.224-1.202 1.765.11.066-.342 1.533l.524-1.213c.948 0 2.879-1.103 3.921-2.581a.55.55 0 0 1 0-.38 50.529 50.529 0 0 1 2.206-.315c-.915-.06-1.82-.083-2.719-.083l.441-1.196.728-.133c.69-.711-.193-.303.552-1.208L44.37 1.92 45.413.176A53.565 53.565 0 0 1 47.54 0c.464 0 .927.033 1.39.06a1.026 1.026 0 0 1-.072.999L47.414 2.09c.056-.353.43-.507.613-.97l-.872.303v-.066l-.072.082-1.053.364c.11.072 0 .188-.187.47.033.55.794-.304 1.24-.834h.061c-.298 1.44.486.806 1.153 1.032.496-.408.965-2.008 1.61-2.322l.778.072c.183.563.398 1.115.645 1.654l-.386.546Zm12.889 4.666a.552.552 0 0 1 .138 0c-.067.441.722-.177.27.629-.265.369-.58 1.02-.756.755l.11-.38-.154.28c.01.036.024.07.044.1l-.121.43c.629-.4 1.188-.901 1.654-1.483l-.21-.144c-.242.127-.512-.116-.81-.187a.616.616 0 0 1 0-.11 1.178 1.178 0 0 0-.165.093c-.293 0-.613.215-.96 1.142.623.22.42-.728.96-1.125Zm-1.18 1.009-.43-.276.694-.722c-.132.116-1.042.695-1.169 1.583l.904-.585ZM47.303 5.008l.48-.866c-.27-.552-1.693 1.07-.949-.783l-.91 1.367c.243-.038 1.269.215.414 1.225-.695.728-1.048-.078-1.472 1.202 1.152-1.412 1.29.039 1.803-.22.452-.684-.552.435-.166-.497 1.197-1.76 1.534 0 1.137 1.103.325-.551.28-1.947.96-1.715-.828-.127-.172-1.269-1.297-.816ZM87.287 64.62a47.153 47.153 0 0 0 2.372-14.67 40.941 40.941 0 0 0-.133-4.517c.256-.14.52-.266.79-.375-.078.551-.37 1.715-.613 1.76.243-.045.882-1.198 1.313-1.7-.172-.49-.624-.59-.122-1.654l.116.066c.1-.695-1.026.816-1.555 1.103a.608.608 0 0 0 0-.1c0-.07.033-.148.06-.236.028-.088.199-.298.265-.386a.855.855 0 0 0-.265.386c-.022.04-.045.078-.071.116-.05-.47-.11-.927-.177-1.385.304-.48.657-.954.37-.551-.11-.066-.27.05-.425.176-.05-.32-.105-.64-.16-.96.135-.181.316-.324.524-.413l-.458-.1 1.467-1.98c-.215-.137-1.103 1.054-.7-.054l.265-.215c-.298-.386-.193-1.103-.706-.839l-.806 1.578a41.421 41.421 0 0 0-2.873-8.345l.27-.6c-.1.145-.235.264-.391.347l-.11-.226a.192.192 0 0 1 0-.039 1.94 1.94 0 0 1 .551-.623l-.777.242a41.914 41.914 0 0 0-15.525-17.04 4.411 4.411 0 0 1 2.333-.707c.292-.397.915.193 1.053.855.254-.204.551-.838.794-1.059l.265.204a1.71 1.71 0 0 1-.844.993c-.072 1.103.673-.27 1.158-.745a46.453 46.453 0 0 1 15.387 22.91c-.09.09-.166.192-.226.303.07-.092.152-.175.243-.248.071.231.138.463.204.695a.104.104 0 0 0 0 .038 49.49 49.49 0 0 1 1.588 8.185l-1.147 1.39 1.18-1.104c.165 1.592.254 3.207.265 4.843a41.296 41.296 0 0 1-2.074 14.08c-.932-.872-1.605.512-2.675.6Zm-1.935-38.18.551.159v-.17l-.551.01Zm2.233 4.896a1.847 1.847 0 0 0-.584.795l.617-.199-.033-.596ZM31.78 8.791c-1.335 1.88-1.616.552-2.526 1.13.424-1.279 1.285-1.522 1.577-1.919l-1.445 1.032a4.099 4.099 0 0 1-.039-.447 52.736 52.736 0 0 1 2.874-1.368c-.441.783-.105.833-.441 1.572ZM32.855 4.616a4.043 4.043 0 0 1-.1.215 39.163 39.163 0 0 0-4.097 1.517c.071-.105.148-.22.226-.359.248-1.71-.828.265-1.539.745a2.807 2.807 0 0 1-.59-.728c0 .855.27.943.59.728.06.047.128.086.199.116a40.873 40.873 0 0 0-4.346 2.377l-.552-.182v.523c-.496.32-.992.657-1.478 1.004-.342-.132-.551-.551-.76-.97a51.29 51.29 0 0 1 10.384-5.736l-.16.551c.794.276.778 1.23 2.223.199ZM35.375 3.497c.173-.28.319-.576.436-.883.695-.982 1.191.364 2.079-1.015-.123.254-.259.5-.408.74-.071.07-.138.146-.199.225.078-.064.144-.14.199-.226.49-.49.413.232.601.353-.34.435-.753.808-1.219 1.103-.788.15-1.566.326-2.333.524a2.84 2.84 0 0 1 .386-.926c-.91 1.373-1.285.739-2.062 1.213l1.467-1.974c-.11.044-.177.038-.22 0 .628-.21 1.268-.408 1.907-.596a5.95 5.95 0 0 1-.198.552c-.184.283-.33.589-.436.91ZM20.247 10.236c-.695.722-1.037 2.255-1.417 1.627l.777-1.258c-.755.303-.744 1.859-1.395 1.445.169-.32.277-.667.32-1.026a31.054 31.054 0 0 1 1.699-1.28c.026.163.032.328.016.492ZM43.912.397c.436-.06.877-.11 1.313-.154l-.822.419c-.38.303-.491.083-.491-.265ZM1.65 43.999c0 .11 0 .215-.038.32a.996.996 0 0 1-.083-.171l.121-.15ZM12.51 73.179a2.443 2.443 0 0 0-.993.496l.11.42a49.295 49.295 0 0 1-3-4.997 4.211 4.211 0 0 0 1.186-.552 39.538 39.538 0 0 0 2.697 4.633ZM19.768 19.396l-.127.116v-.17a.354.354 0 0 0 .127.055ZM12.813 73.708a.272.272 0 0 0 0-.066A38.998 38.998 0 0 0 38.689 89.96c-.149.088-.248 0-.441.165 0 .182-.452.684-.375.938l.855-1.103c3.258.51 6.566.611 9.85.303 3.15.235 6.318.113 9.441-.364.02.051.045.101.072.149.193.055.237-.033.22-.193 1.725-.28 3.428-.68 5.096-1.197a.508.508 0 0 1-.05.127l.067-.132a35.296 35.296 0 0 0 14.968-9.205c-.359 1.616 1.897-.612 2.371-.32-.088-1.014-.551-.16-.336-1.759l-1.147 1.417c.06-.187.099-.325.121-.424a37.92 37.92 0 0 0 4.848-6.855c.149.137.397 0 .595.104l-.386 2.13c.552.655.42-.812.673-1.302.463-.436.441.38.43.965-.33.524-.667 1.037-1.015 1.544-.292-.177-.75.26-1.251.551a.904.904 0 0 1 .766.15 46.638 46.638 0 0 1-2.636 3.352l.088-.16c-.259.458-1.103 1.02-1.61 1.832a47.899 47.899 0 0 1-5.785 5.15 3.937 3.937 0 0 1 .093-1.334c-.96 1.732-1.053-.077-1.797 1.787a4.963 4.963 0 0 0-.326 1.004 48.6 48.6 0 0 1-6.22 3.562l.407-.485c-.154-.502-.75-.485-1.208-.552a4.465 4.465 0 0 1-.424.618 2.164 2.164 0 0 1 0-.281c-.04.174-.105.341-.193.496a.606.606 0 0 1-.287.16c-.408-.116-.789-1.395-.551-.347v.11c-.216-.149-.436-.193-.817.496-.27 1.103.982-.154.717.866-.805.331-1.617.64-2.437.927.353-.662-.8.38-.078-.794-.347-.028-.452.683-.612.97h.199a45.004 45.004 0 0 1-11.582 2.283c-.722 0-1.44-.05-2.156-.099.711-1.13-.518-.458-.121-1.654a2.454 2.454 0 0 0-.773 1.593 42.74 42.74 0 0 1-5.266-.827c.877-.981 1.654-.072 2.608-2.333l.199 1.103.551-1.208c-.303-1.163-1.654.712-2.686.63-.507.258.232-.811 0-.778-.854 1.009 0 .96-.341 1.527a13.75 13.75 0 0 1-.949.938c-10.627-2.515-19.904-8.951-26.472-17.406v-.038h-.028a53.048 53.048 0 0 1-1.555-2.112c.243-.436.546-.596.8-.938ZM71.68 87.352c-.193-1.103-.916-.187-1.4-.105.22.133.523 1.296 1.4.105Zm-9.85 3.728.232-1.478-.425.491.193.987Zm-9.254-.463c-.243.039-.193-.309-.485.088-.16.293-.883.408-1.103 1.23.54-.612 1.4-.844 1.588-1.318ZM6.962 26.864c.093-.122.187-.243.292-.364l-.143.265a.865.865 0 0 0-.15.099Z"/><path d="M63.44 94.56c.32-.55.375-.931.552-1.218-.408.617-.728.65-.717.143a46.14 46.14 0 0 0 9.518-4.5c.21.303.47.551 1.104-.623h-.105a48.27 48.27 0 0 0 11.763-10.975 2.45 2.45 0 0 1 1.456.276c.037.125.056.255.055.386A54.426 54.426 0 0 1 76.45 88.395c-.199-.32-.215-.938-.695-.789-.496 1.103.028 1.004.48.949-1.35 1-2.752 1.937-4.208 2.812.16-.551.513-1.163 0-.871-.225.375-.41.772-.552 1.186l-.733.424v-.099a.364.364 0 0 0 0 .11 55.717 55.717 0 0 1-5.576 2.758c.144-.894-1.191-.132-1.726-.314Zm11.77-7.12-.828 1.617a1.854 1.854 0 0 0 .827-1.616ZM37.476 95.25a2.996 2.996 0 0 1-.441.882c.309.199.728-.37 1.103-.767l.518.078a3.159 3.159 0 0 1-.518.413c.27.552.998.43 1.588.425.077-.246.155-.467.232-.662 2.506.293 5.032.36 7.55.204a44.744 44.744 0 0 0 15.75-2.338c-.115.91-.75.733-1.35 1.075l.584-.783c-.193 0-.64.684-.882.645.033-.137 0-.204-.127-.137 0 .093.072.132.127.137a6.704 6.704 0 0 1-1.103 1.765c.612-.187.794-1.434 1.312-.92-.551.727-.507.87-.518 1.102A51.421 51.421 0 0 1 47.999 99a65.437 65.437 0 0 1-3.651-.418c-.121-.337-.48-.27-.86-.133a62.44 62.44 0 0 1-7.937-1.797c.061-.067.133-.067.232.033l-.188-.315-.187.237-.276-.082c.196-.22.38-.45.552-.69-.491.458-.734.552-.91.552l-.97-.315c.27-.352.55-.551.369-.43-.8-.507-1.831-1.02-2.929-.49l-.618-.243.072-.486a1.383 1.383 0 0 1-.386.359 53.36 53.36 0 0 1-1.406-.59l.226-.37-.37.304-.866-.392.48-.386-.551-.342-.094.656a51.933 51.933 0 0 1-10.842-6.734l1.042-.656a43.568 43.568 0 0 0 19.545 8.979ZM3.91 54.566c.552-.094 1.22-.828 1.909-1.429a39.008 39.008 0 0 0 2.51 12.012l-.177.028.193.126-.188.651.37-.303c.16.413.33.822.507 1.23a9.457 9.457 0 0 0-.49.474c.054.425-.48.86 0 .783l-.232.37c-.215-.414-.42-.833-.618-1.252a1.28 1.28 0 0 1 .292-.237c.044.099.094.187.226.137 0-.176-.11-.198-.226-.138-.071-.148-.127-.314-.413-.027A47.108 47.108 0 0 1 3.81 55.023c.194-.024.382-.086.552-.182l-.452-.275ZM5.533 70.813a44.212 44.212 0 0 0 3.309 5.658c-.298.232-.552.314-.651-.066-.662 1.33.055.436 0 .96l-.088.16a44.476 44.476 0 0 1-3.447-5.808v-.055l.877-.85ZM.75 48.697c-.446 1.456.31 1.936-.595 3.31.673-.342.822.077 1.06.369a41.914 41.914 0 0 0 4.18 18.183c-.398.196-.72.518-.916.916A45.223 45.223 0 0 1 .006 51.069v-1.368c.288-.303.538-.64.745-1.004ZM69.59 10.71c-.883 1.191.055.425.292.392a6.901 6.901 0 0 0-.932 1.803 37.574 37.574 0 0 0-4.412-2.206c.152-.26.337-.5.552-.711l.485.706c.507-.265-.138-.668.176-1.241.144.662.839-.06 1.103.673.342.38 1.037-.552 1.407-1.418.435.237.86.491 1.285.745-.403 0-1.214.722-.789-.254l-.938.761h.944l-.398 1.103c.409.447.877-1.18 1.385-1.445a.366.366 0 0 0-.028-.082c.463.28.921.551 1.368.86-.59.419-1.258.899-1.5.314ZM17.34 85.808a1.367 1.367 0 0 1-.815.508l-.072.275a46.768 46.768 0 0 1-7.837-8.31c.232-.332.463-.734.695-1.131a45.672 45.672 0 0 0 8.03 8.658Z"/><path d="M8.368 65.226c.01.034.023.067.038.1l-.06-.034.022-.066ZM64.18 95.305l-.695.276.871-.833c.232.077.022.298-.176.557ZM66.694 7.909l.375.187a.551.551 0 0 1-.38-.176l.005-.011ZM6.167 41.456l-1.55 1.737c-.033-.849-.314-.849-.695-.551.289-1.753.681-3.488 1.175-5.195.132-.315.177-.838.447-.662l.116.85-.27.214 1.312-.915c-.965.165-.116-1.621-.392-2.178l-.485.391c.368-1.007.752-2 1.153-2.978l.474-.38c-.044-.127-.138-.133-.248-.122a45.392 45.392 0 0 1 2.09-4.136c.26.066.458.176.044.998.276 1.335 1.33-1.875 1.655-.717-.155.281-.475.855-.717.905-.21.64.242-.05.375-.155.264-.215.794-1.428.474-1.654-1.45 2.266-.463-.728-1.065-.646.238-.397.486-.783.74-1.169.551-.551 1.003-.86.932.066l-.282.353c-.127.055-.27.199-.446.552l.446-.552c.254-.11.453.133.717-.082l-.375.926c-.033.226.397.199.75.121l.155-.038c.097-.024.192-.059.281-.105l-.281.105-.155.038c-.204.028-.309-.088-.082-.661.292-.397.882-1.186 1.103-1.23-.194-.314-.7-.06-.552-.943l-.281 1.169-.519-.513c.247-.456.553-.877.91-1.252l.105-.044s-.06 0-.105.044a.982.982 0 0 1-.91 0c.552-.783 1.175-1.544 1.798-2.294.226 0 .282.243-.17 1.268.64-.37 1.555-.182 2.255-.91l-1.445 1.81 1.362-.894a.171.171 0 0 0 .06.044l.552-.436-.595.392c-.276-.287.551-.855.64-1.522.551-.171.474.706.237 1.908a43.242 43.242 0 0 0-2.703 3.49.552.552 0 0 1-.22-.7 6.176 6.176 0 0 0-1.004 2.554l-.281.463c-.662.199-.127-.904-.954.21h.59l-.453.684a.375.375 0 0 0 .2.165c-.155.27-.31.552-.459.816l-.11-.055.077.11a47.982 47.982 0 0 0-4.627 12.393c-.402-.055-.954.027-.794-1.087ZM10.822 28.9c.038-.094.033-.072 0 0l-1.136 1.4c.314.359.976-1.064 1.136-1.4Zm-1.159 2.36c-.38.149-.115-.85-.7-.06-.088.534.447.099.69.06h.01Zm-1.136.871c.061 0 .078.105 0 .353.094-.286.078-.375 0-.353-.187 0-.81.756-.954.519.11-.199.055-.414.155-.695l.237-.408c-.105.12-.185.258-.237.408l-1.01 1.71c.342.071 1.5-1.445 1.798-1.534h.011ZM90.355 71.618c.16.474.695 0 .822.193-.293.551-.596 1.037-.905 1.55a.336.336 0 0 0-.039-.078l-.165.409-.325.518h-.204a1.318 1.318 0 0 1-.05-.899c-.21-.463-.37-.789-.519-1.048.188-.32.37-.64.552-.965.055.226.22.309.645 0-.408-.452.982-1.897 1.522-1.56-.413 1.13.166.39.359.43-.199.385-.397.772-.607 1.152a1.06 1.06 0 0 0-1.086.298ZM91.165 68.452c.32-.551.463.094.706.044-.055-.419-.552-.154.143-1.053a3.857 3.857 0 0 0-.778.425 48.534 48.534 0 0 0 3.894-13.402l.32-.143a.474.474 0 0 0-.32.143c.204-1.456.347-2.928.414-4.412v-.943c.48-1.175.231.706.915-.154l.21-.453c.038.552.071 1.043.099 1.567.094 3.966-.4 7.925-1.467 11.747l-.43.402c.038.156.103.303.193.436a45.075 45.075 0 0 1-2.383 6.226c-.59.105-1.384.276-1.516-.43ZM88.64 74.707a5.184 5.184 0 0 1-2.758 2.206 69.125 69.125 0 0 0 2.134-3.111c.281.244.495.555.624.904ZM4.95 49.017c-.47 1.655-.668-.231-1.104 1.048-.149 0-.347.033-.551.05 0-.91 0-1.815.082-2.708.169-.15.354-.279.552-.386-.083-.237-.27-.254-.519-.16.033-.43.067-.855.11-1.28.254.315.447.839 1.104-.231 0 .596 1.026.253.49 1.467.673-1.214.552 0 1.037-.11a50.209 50.209 0 0 0-.37 3.457 3.574 3.574 0 0 1-.832-1.147ZM86.091 67.763l.039-.088.424-.772c-.115.193-.21.336-.286.44.259-.628.507-1.262.739-1.913.879.17 1.788.068 2.608-.292a51.275 51.275 0 0 1-1.191 2.945 2.454 2.454 0 0 0-2.333-.32ZM90.988 28.264a53.246 53.246 0 0 0-7.72-11.245 44.272 44.272 0 0 1 7.72 11.245Z"/></g></g></svg>