<svg viewBox="0 0 172 172" fill="none" xmlns="http://www.w3.org/2000/svg"><g filter="url(#a)"><path d="M86 169c45.84 0 83-37.16 83-83S131.84 3 86 3 3 40.16 3 86s37.16 83 83 83Z" stroke="#FCF7DE" stroke-width="2" stroke-linecap="round" stroke-linejoin="round" shape-rendering="crispEdges"/></g><path d="M86 154.813c38.006 0 68.815-30.81 68.815-68.815 0-38.006-30.809-68.815-68.815-68.815s-68.815 30.81-68.815 68.815c0 38.005 30.81 68.815 68.815 68.815Z" stroke="#FCF7DE" stroke-width=".822" stroke-linecap="round" stroke-linejoin="round"/><path d="M129.727 119.119a7.518 7.518 0 0 0 0 10.616 7.492 7.492 0 0 0-8.181-1.63 7.507 7.507 0 0 0-2.435 1.63 7.496 7.496 0 0 0 0-10.616 7.514 7.514 0 0 0 10.616 0ZM42.273 52.888a7.498 7.498 0 0 0 0-10.608 7.515 7.515 0 0 0 10.616 0 7.5 7.5 0 0 0 0 10.608 7.515 7.515 0 0 0-10.616 0ZM52.889 129.735a7.501 7.501 0 0 0-8.182-1.63 7.502 7.502 0 0 0-2.434 1.63 7.515 7.515 0 0 0 0-10.616 7.514 7.514 0 0 0 10.616 0 7.516 7.516 0 0 0 0 10.616ZM119.111 42.28a7.516 7.516 0 0 0 10.616 0 7.507 7.507 0 0 0-2.198 5.304 7.501 7.501 0 0 0 2.198 5.304 7.512 7.512 0 0 0-10.616 0 7.495 7.495 0 0 0 2.202-5.304 7.492 7.492 0 0 0-2.202-5.304ZM28.908 35.168a4.438 4.438 0 0 0 0-6.26 4.413 4.413 0 0 0 6.252 0 4.439 4.439 0 0 0 0 6.26 4.414 4.414 0 0 0-6.252 0ZM143.092 136.847a4.428 4.428 0 0 0 0 6.251 4.418 4.418 0 0 0-6.252 0 4.411 4.411 0 0 0 0-6.251 4.433 4.433 0 0 0 6.252 0ZM136.84 28.908a4.407 4.407 0 0 0 3.126 1.298 4.41 4.41 0 0 0 3.126-1.298 4.44 4.44 0 0 0 0 6.26 4.41 4.41 0 0 0-4.818-.96 4.41 4.41 0 0 0-1.434.96 4.42 4.42 0 0 0 0-6.26ZM35.16 143.098a4.423 4.423 0 0 0-3.126-1.297 4.407 4.407 0 0 0-3.126 1.297 4.43 4.43 0 0 0 0-6.251 4.432 4.432 0 0 0 6.252 0 4.43 4.43 0 0 0 0 6.251ZM81.578 9.687A4.422 4.422 0 0 0 86 5.265a4.422 4.422 0 0 0 4.422 4.422A4.422 4.422 0 0 0 86 14.109a4.422 4.422 0 0 0-4.422-4.422ZM90.422 162.32A4.42 4.42 0 0 0 86 166.742a4.42 4.42 0 0 0-4.422-4.422A4.419 4.419 0 0 0 86 157.898a4.422 4.422 0 0 0 4.422 4.422ZM162.322 81.587a4.423 4.423 0 0 0 4.422 4.422 4.422 4.422 0 0 0-4.422 4.422 4.423 4.423 0 0 0-4.422-4.422 4.422 4.422 0 0 0 4.422-4.422ZM9.678 90.43a4.422 4.422 0 0 0-4.422-4.421 4.422 4.422 0 0 0 4.422-4.422 4.43 4.43 0 0 0 4.422 4.422 4.422 4.422 0 0 0-4.422 4.422Z" fill="#FCF7DE" stroke="#FCF7DE" stroke-width=".822" stroke-linecap="round" stroke-linejoin="round"/><g filter="url(#b)"><path d="M86 140.787c30.258 0 54.786-24.529 54.786-54.786 0-30.258-24.528-54.787-54.786-54.787-30.258 0-54.786 24.53-54.786 54.787 0 30.257 24.528 54.786 54.786 54.786Z" stroke="#FCF7DE" stroke-linecap="round" stroke-linejoin="round" shape-rendering="crispEdges"/></g><defs><filter id="a" x=".14" y=".14" width="171.72" height="171.72" filterUnits="userSpaceOnUse" color-interpolation-filters="sRGB"><feFlood flood-opacity="0" result="BackgroundImageFix"/><feColorMatrix in="SourceAlpha" values="0 0 0 0 0 0 0 0 0 0 0 0 0 0 0 0 0 0 127 0" result="hardAlpha"/><feOffset/><feGaussianBlur stdDeviation=".93"/><feComposite in2="hardAlpha" operator="out"/><feColorMatrix values="0 0 0 0 0.988235 0 0 0 0 0.968627 0 0 0 0 0.870588 0 0 0 1 0"/><feBlend in2="BackgroundImageFix" result="effect1_dropShadow_799_4567"/><feBlend in="SourceGraphic" in2="effect1_dropShadow_799_4567" result="shape"/></filter><filter id="b" x="28.854" y="28.854" width="114.293" height="114.293" filterUnits="userSpaceOnUse" color-interpolation-filters="sRGB"><feFlood flood-opacity="0" result="BackgroundImageFix"/><feColorMatrix in="SourceAlpha" values="0 0 0 0 0 0 0 0 0 0 0 0 0 0 0 0 0 0 127 0" result="hardAlpha"/><feOffset/><feGaussianBlur stdDeviation=".93"/><feComposite in2="hardAlpha" operator="out"/><feColorMatrix values="0 0 0 0 0.988235 0 0 0 0 0.968627 0 0 0 0 0.870588 0 0 0 1 0"/><feBlend in2="BackgroundImageFix" result="effect1_dropShadow_799_4567"/><feBlend in="SourceGraphic" in2="effect1_dropShadow_799_4567" result="shape"/></filter></defs></svg>