<svg viewBox="0 0 300 420" fill="none" xmlns="http://www.w3.org/2000/svg"><path d="M0 124c34 22 111 54 136-1C155 83 110 20 84 0H43a4 4 0 0 0-4 4v11H26c-.552 0-.995.449-1.05.999A10.003 10.003 0 0 1 16 24.95c-.55.054-.999.497-.999 1.049v13H4a4 4 0 0 0-4 4v81Z" fill="#000"/><path d="M265 19c-37 12-98 46-52 86-15-9-64-4-77 18C155 83 110 20 84 0h173a4 4 0 0 1 4 4v11h4v4Z" fill="#000"/><path d="M284.001 24.95c.549.055.998.498.998 1.05v13h11A4 4 0 0 1 300 43v82c-9 41-51 54-70 54 10-33 4-62-17-74-46-40 14.999-74 51.999-86v-4h9c.553 0 .995.449 1.05.999a10.002 10.002 0 0 0 8.952 8.952ZM144 170c30 45-28 41-57 43-27-8-65 10-87 26V124c34 22 111 54 136-1-4 10-5 28 8 47Z" fill="#000"/><path d="M144 170c30 45-28 41-57 42.952C104 218 114 233 119 250c-2-21 20-21 35-15 12.874 6.079 40 10 60.466-21.985C222 201 226.972 188.992 230 179c10-33 4-62-17-74-15-9-64-4-77 18-4 10-5.843 26.09 8 47Z" fill="#000"/><path d="M160 267c-2.386 15.508-5 31 15 35 19 4 41-22 62-47 22-26 43-51 63-47.995V125c-9 41-51 54-70 54-3 10-8 22-15.523 34.042C194.188 245.516 166.958 241.035 154 235c12 6 8 19 6 32Z" fill="#000"/></svg>