<svg width="60" height="60" fill="none" xmlns="http://www.w3.org/2000/svg"><mask id="a" style="mask-type:alpha" maskUnits="userSpaceOnUse" x="0" y="0" width="60" height="60"><path fill="#3A3A3A" d="M0 0h60v60H0z"/></mask><g mask="url(#a)"><path d="m44.257 12-.118.07-.107.083-5.192 4.021A101.983 101.983 0 0 0 22.537 32.02c-.445-.357-.893-.71-1.344-1.06l-5.191-4.022-.108-.083-.118-.069c-1.966-1.143-3.893-1.92-5.739-2.038-1.957-.125-3.71.504-5.124 1.917-.887.888-1.497 1.941-1.77 3.151-.57 2.52.174 4.774 1.269 6.652 1.052 1.805 2.55 3.465 3.822 4.875l.069.077c.442.49.859.952 1.249 1.405l.01.012.041.048.158.185a347.325 347.325 0 0 0 2.455 2.843c1.44 1.649 3.18 3.608 4.221 4.65 1.413 1.412 3.166 2.042 5.124 1.917 1.846-.117 3.773-.895 5.74-2.04l.117-.067.107-.084 5.192-4.021a101.95 101.95 0 0 0 18.108-18.109l4.022-5.191.083-.108.068-.117c1.145-1.966 1.923-3.893 2.04-5.74.125-1.957-.505-3.71-1.918-5.123l-1.452 1.452 1.452-1.452c-1.413-1.413-3.166-2.043-5.124-1.918-1.846.117-3.772.896-5.739 2.039Z" fill="#87DA47" stroke="#fff" stroke-width="4.107"/><ellipse cx="9.092" cy="29.457" rx="1.898" ry="1" transform="rotate(-15 9.092 29.457)" fill="#fff" fill-opacity=".3"/></g></svg>