<svg viewBox="0 0 1033 395" fill="none" xmlns="http://www.w3.org/2000/svg"><path d="M4.07 102.802s-9.783 189.03.985 215.458c10.768 26.428 35.237 13.707 51.87 21.643 16.632 7.936 24.468 17.627 51.869 21.643 27.4 4.015 105.036 4.809 132.773 17.29 49.586 22.195 152.026 11.109 170.654 11.109 18.628 0 74.366 3.92 107.656 4.81 33.289.89 95.903-15.655 114.506-15.655 18.604 0 67.853 15.342 100.47 6.204 26.992-7.575 65.906-9.138 101.142-12.023 35.236-2.886 76.338-32.296 90.999-26.452 14.662 5.843 73.406 18.612 91.026-24.481 17.62-43.093 13.7-219.377 13.7-219.377L4.07 102.802Z" fill="#FFC535"/><path d="M194.698 172.323c0 56.151-11.753 129.255 1.298 135.796 13.052 6.541 22.185-69.208 23.483-74.427 1.298-5.218 13.052 58.748 18.267 56.151 5.216-2.597 3.918-97.921 10.456-109.68 6.538-11.759-53.504-7.84-53.504-7.84ZM532.567 197.189c2.62 18.276 3.918 80.943 15.672 108.357 11.753 27.414 32.616 9.138 28.698-28.712-3.917-37.851-5.215-41.795-5.215-41.795s-3.918-52.207-13.052-54.828c-9.133-2.621-26.103 16.978-26.103 16.978ZM910.963 159.266c9.133 37.874 19.589 75.725 19.589 86.185 0 10.461 31.247 11.736 23.483-48.311-7.764-60.046-1.298-37.874-9.134-56.15-7.835-18.276-33.938 18.276-33.938 18.276Z" fill="#F8B100"/><path d="M517.882 205.605c283.771 0 513.808-46.026 513.808-102.802C1031.69 46.026 801.653 0 517.882 0 234.111 0 4.07 46.026 4.07 102.803c0 56.776 230.041 102.802 513.812 102.802Z" fill="#FFE46D"/><path d="M1030.73 146.881c-3.92 51.895-19.59 132.261-32.302 130.217-8.388-1.299-19.781-31.55-26.439-52.014a3.005 3.005 0 0 0-5.865.889c-.673 32.56-4.326 114.852-22.401 113.409-14.638-1.178-18.484-35.543-25.454-117.112-1.899-22.34-13.677-21.643-19.565 6.854-4.928 23.71-13.701 117.112-33.29 128.871a48.4 48.4 0 0 0-2.596 1.707c27.209-9.21 53.216-24.744 64.248-20.32 14.686 5.868 73.404 18.613 91.024-24.48 11.51-28.111 13.82-121.441 14.06-168.862-1.01.505-1.42.841-1.42.841Z" fill="#F8B100"/><path d="M1031.69 102.803c0-39.92-113.685-74.547-279.796-91.549l-3.028.505c64.584 11.735 199.28 44.151 196.708 93.015-.961 18.589-78.284 97.921-460.957 94.964-149.815-1.131-133.711-3.295-53.936 4.4 28.338.962 57.469 1.491 87.201 1.491 283.79 0 513.808-46.027 513.808-102.826Z" fill="#FFD932"/></svg>