<svg viewBox="0 0 54 54" fill="none" xmlns="http://www.w3.org/2000/svg"><g filter="url(#a)"><circle cx="26" cy="25" r="24" fill="#000" fill-opacity=".15" shape-rendering="crispEdges"/></g><path d="M22.462 13.373c.289-2.109.288-4.626 2-5.89C24.897 7.162 25.405 7 26 7c1.539 0 2.5 1.083 3.105 3.206l.457 3.347a47.693 47.693 0 0 1 0 12.894l-.457 3.347C28.5 31.917 27.539 33 26 33c-.594 0-1.103-.162-1.538-.483-1.712-1.264-1.711-3.781-2-5.89l-.024-.18a47.689 47.689 0 0 1 0-12.894l.024-.18Z" fill="#fff"/><circle cx="26" cy="38" r="3" fill="#fff"/><defs><filter id="a" x="0" y="0" width="54" height="54" filterUnits="userSpaceOnUse" color-interpolation-filters="sRGB"><feFlood flood-opacity="0" result="BackgroundImageFix"/><feColorMatrix in="SourceAlpha" values="0 0 0 0 0 0 0 0 0 0 0 0 0 0 0 0 0 0 127 0" result="hardAlpha"/><feOffset dx="1" dy="2"/><feGaussianBlur stdDeviation="1.5"/><feComposite in2="hardAlpha" operator="out"/><feColorMatrix values="0 0 0 0 0 0 0 0 0 0 0 0 0 0 0 0 0 0 0.15 0"/><feBlend in2="BackgroundImageFix" result="effect1_dropShadow_1199_16280"/><feBlend in="SourceGraphic" in2="effect1_dropShadow_1199_16280" result="shape"/></filter></defs></svg>