<svg viewBox="0 0 153 64" fill="none" xmlns="http://www.w3.org/2000/svg"><path d="M131.584 12.407H19.404L5.828 42.754c0 8.445 31.19 15.29 69.666 15.29 38.475 0 69.666-6.845 69.666-15.29" fill="url(#a)"/><path d="M131.584 12.407H19.404L5.828 42.754c0 8.445 31.19 15.29 69.666 15.29 38.475 0 69.666-6.845 69.666-15.29" fill="url(#b)" fill-opacity=".2"/><path d="m145.16 42.754-13.576-30.347 13.576 30.347Z" fill="url(#c)"/><path d="m145.16 42.754-13.576-30.347 13.576 30.347Z" fill="url(#d)" fill-opacity=".2"/><ellipse cx="75.496" cy="12.408" rx="56.359" ry="12.334" fill="url(#e)"/><path d="M122.46 12.407c0 .466-.211.99-.76 1.58-.552.592-1.405 1.202-2.57 1.806-2.328 1.209-5.748 2.32-10.04 3.263-8.571 1.882-20.449 3.053-33.595 3.053-13.147 0-25.025-1.171-33.596-3.053-4.292-.942-7.712-2.054-10.04-3.263-1.165-.604-2.018-1.214-2.57-1.807-.549-.588-.76-1.114-.76-1.579 0-.465.211-.99.76-1.58.552-.592 1.405-1.201 2.57-1.806 2.328-1.209 5.748-2.32 10.04-3.263 8.571-1.882 20.45-3.052 33.596-3.052 13.146 0 25.024 1.17 33.595 3.052 4.292.943 7.712 2.054 10.04 3.263 1.165.605 2.018 1.214 2.57 1.807.549.589.76 1.114.76 1.58Z" fill="#9F3019" stroke="#BF442B" stroke-width="1.566"/><ellipse cx="75.888" cy="13.95" rx="37.181" ry="8.326" fill="#722E20"/><mask id="f" style="mask-type:alpha" maskUnits="userSpaceOnUse" x="38" y="5" width="75" height="18"><ellipse cx="75.57" cy="13.915" rx="37.195" ry="8.163" fill="#481F17"/></mask><g mask="url(#f)"><ellipse cx="75.568" cy="19.239" rx="24.677" ry="5.442" fill="#481F17"/></g><mask id="g" style="mask-type:alpha" maskUnits="userSpaceOnUse" x="5" y="14" width="141" height="45"><path d="M133.137 15.902s-23.751 13.953-57.569 13.953c-47.111 0-57.283-14.937-57.283-14.937L5.828 42.667c0 8.494 31.224 15.38 69.74 15.38 38.516 0 69.74-6.886 69.74-15.38M145.308 42.667l-12.171-26.765 12.171 26.765Z" fill="#D9D9D9"/></mask><g mask="url(#g)"><path d="M-4.902 52.106c69.451 19.755 136.707 8.231 161.654 0 0 0-4.782-11.353-9.81-17.25-4.876-5.718-14.944-12.122-14.944-12.122s-2.043 8.625-4.355 13.578c-2.248 4.816-7.07 11.183-7.07 11.183s-7.709-3.676-12.402-6.09c-4.876-2.51-12.04-6.55-12.04-6.55s-5.56 5.865-9.537 9.255c-3.937 3.357-10.67 7.996-10.67 7.996s-6.668-5.147-10.692-8.604c-3.876-3.331-9.514-8.646-9.514-8.646s-8.105 4.062-12.972 6.548c-4.797 2.45-11.72 6.09-11.72 6.09s-6.033-7.568-8.57-12.638c-2.46-4.914-4.056-12.122-4.056-12.122S9.237 29.325 4.728 34.856c-4.875 5.98-9.63 17.25-9.63 17.25Z" fill="url(#h)"/></g><defs><linearGradient id="a" x1="58.228" y1="9.734" x2="141.55" y2="38.577" gradientUnits="userSpaceOnUse"><stop stop-color="#B73700"/><stop offset="1" stop-color="#B31F00"/></linearGradient><linearGradient id="b" x1="75.494" y1="24.842" x2="75.494" y2="58.045" gradientUnits="userSpaceOnUse"><stop stop-opacity="0"/><stop offset="1"/></linearGradient><linearGradient id="c" x1="58.228" y1="9.734" x2="141.55" y2="38.577" gradientUnits="userSpaceOnUse"><stop stop-color="#B73700"/><stop offset="1" stop-color="#B31F00"/></linearGradient><linearGradient id="d" x1="75.494" y1="24.842" x2="75.494" y2="58.045" gradientUnits="userSpaceOnUse"><stop stop-opacity="0"/><stop offset="1"/></linearGradient><linearGradient id="e" x1="19.137" y1="12.408" x2="131.855" y2="12.408" gradientUnits="userSpaceOnUse"><stop stop-color="#D85A25"/><stop offset="1" stop-color="#D24A10"/></linearGradient><linearGradient id="h" x1="75.925" y1="14.162" x2="75.925" y2="63.014" gradientUnits="userSpaceOnUse"><stop stop-color="#D17100"/><stop offset="1" stop-color="#9D5909"/></linearGradient></defs></svg>