<svg viewBox="0 0 32 20" fill="none" xmlns="http://www.w3.org/2000/svg"><path d="M0 4.393A4 4 0 0 1 4.373.41l24 2.25A4 4 0 0 1 32 6.643V20H0V4.393Z" fill="url(#a)"/><path d="M5.178 6.76c0-.164.064-.31.191-.438a.627.627 0 0 1 .451-.205c.328 0 .552.137.67.41l3.295 7.506 2.98-7.574c.11-.292.333-.438.67-.438.165 0 .31.069.438.206a.584.584 0 0 1 .205.437c0 .128-.013.232-.04.315l-3.57 9.05a.752.752 0 0 1-.245.301.635.635 0 0 1-.397.137c-.282 0-.487-.137-.615-.41l-3.979-8.97a.82.82 0 0 1-.054-.327Zm12.332 8.299c.191 0 .364.063.52.191a.582.582 0 0 1 .232.465c0 .21-.073.383-.219.52a.782.782 0 0 1-.533.19h-.698a.225.225 0 0 1-.068.014H15.896a.8.8 0 0 1-.546-.205.637.637 0 0 1-.22-.478.61.61 0 0 1 .22-.479.8.8 0 0 1 .546-.205h.165l-.014-7.177h-.15a.8.8 0 0 1-.547-.206.637.637 0 0 1-.22-.478.61.61 0 0 1 .22-.479.8.8 0 0 1 .546-.205h.739a.152.152 0 0 1 .068-.013H17.51c.191 0 .364.063.52.191a.582.582 0 0 1 .232.465c0 .21-.073.383-.219.52a.782.782 0 0 1-.533.19h-.096l.014 7.179h.082Zm2.967 1.408a.696.696 0 0 1-.493-.192.633.633 0 0 1-.191-.464v-.014l-.014-8.559c0-.127.055-.269.164-.424a.635.635 0 0 1 .506-.246l2.16-.013c.666 0 1.267.11 1.805.328.547.219.98.547 1.299.984.328.438.492.994.492 1.668 0 .766-.168 1.386-.506 1.86-.337.464-.802.806-1.394 1.025-.584.219-1.249.342-1.996.37l-1.163.026.014 2.994v.014a.612.612 0 0 1-.205.465.708.708 0 0 1-.478.178Zm4.36-6.932c0-.565-.204-.97-.614-1.217-.401-.255-.957-.382-1.668-.382h-1.409v3.5l1.149-.028c.802-.018 1.426-.155 1.873-.41.447-.255.67-.743.67-1.463Z" fill="#fff"/><linearGradient id="a" x1="16" y1="16" x2="16" y2="20" gradientUnits="userSpaceOnUse"><stop stop-color="#FF9D42"/><stop offset="1" stop-color="#F27502"/></linearGradient></svg>