<svg viewBox="0 0 48 48" fill="none" xmlns="http://www.w3.org/2000/svg"><circle cx="24" cy="24" fill="#9A582B" r="20"/><path fill-rule="evenodd" clip-rule="evenodd" d="M21.844 13.163a2.022 2.022 0 1 0 4.044 0 2.022 2.022 0 0 0-4.044 0Zm-7.41 18.087L11.29 20.558l5.957 3.143 6.623-7.861 6.427 7.861 6.152-3.143-3.145 10.692H14.435Zm21.541-11.945a1.517 1.517 0 1 1 2.803-1.161 1.517 1.517 0 0 1-2.803 1.16Zm-26.26-.58a1.516 1.516 0 1 0 3.033 0 1.516 1.516 0 0 0-3.033 0ZM33.42 31.847H14.492v1.946h18.929v-1.946Z" fill="url(#a)"/><defs><linearGradient id="a" x1="24.303" y1="11.142" x2="24.303" y2="33.794" gradientUnits="userSpaceOnUse"><stop offset=".583" stop-color="#FFFB9F"/><stop offset="1" stop-color="#FFFB9F" stop-opacity=".49"/></linearGradient></defs></svg>