<svg width="824" height="120" fill="none" xmlns="http://www.w3.org/2000/svg"><path d="M0 44.409c0-15.545 0-23.317 3.025-29.254a27.755 27.755 0 0 1 12.13-12.13C21.092 0 28.865 0 44.409 0H779.59c15.545 0 23.317 0 29.254 3.025a27.754 27.754 0 0 1 12.13 12.13C824 21.092 824 28.865 824 44.409V120H0V44.409Z" fill="url(#a)"/><path d="M820 119V31.286C820 16.216 807.784 4 792.714 4H31.286C16.216 4 4 16.216 4 31.286V119" stroke="url(#b)" stroke-width="1.364"/><path d="M389.222 42.814c-2.33-.907-4.2-2.062-5.024-3.988l-3.456-8.983-3.455 8.983c-.825 1.938-2.695 3.081-5.025 3.988l-5.77 1.964 5.944 1.938c2.33.907 4.042 2.15 4.851 4.088l3.455 8.896 3.456-8.896c.824-1.939 2.52-3.181 4.85-4.088l5.944-1.938-5.77-1.964Z" fill="url(#c)"/><path d="M138.505 18.793c-1.553-.619-2.8-1.407-3.35-2.72l-2.303-6.125-2.304 6.125c-.55 1.322-1.797 2.101-3.35 2.72l-3.846 1.338 3.962 1.322c1.554.618 2.695 1.465 3.234 2.787l2.304 6.065 2.303-6.065c.55-1.322 1.68-2.169 3.234-2.787l3.963-1.322-3.847-1.338Z" fill="url(#d)"/><path d="M53.906 91.075c-1.22-.494-2.2-1.125-2.632-2.175l-1.81-4.9-1.81 4.9c-.432 1.057-1.411 1.68-2.632 2.175L42 92.146l3.114 1.058c1.22.494 2.117 1.172 2.54 2.23l1.81 4.852 1.81-4.853c.432-1.057 1.32-1.735 2.541-2.23l3.114-1.057-3.023-1.07Z" fill="url(#e)"/><path d="M193.762 94.933c-1.221-.495-2.2-1.125-2.632-2.176l-1.81-4.9-1.81 4.9c-.432 1.058-1.412 1.681-2.632 2.176l-3.023 1.07 3.114 1.058c1.221.495 2.117 1.172 2.541 2.23l1.81 4.852 1.81-4.852c.432-1.058 1.32-1.735 2.54-2.23l3.114-1.057-3.022-1.071Z" fill="url(#f)"/><path d="M455.906 89.075c-1.22-.494-2.2-1.125-2.632-2.175l-1.81-4.9-1.81 4.9c-.431 1.057-1.411 1.68-2.632 2.175L444 90.146l3.114 1.058c1.22.494 2.117 1.172 2.54 2.23l1.81 4.852 1.81-4.853c.432-1.057 1.32-1.735 2.541-2.23l3.114-1.057-3.023-1.07Z" fill="url(#g)"/><defs><linearGradient id="a" x1="412" y1="20" x2="412" y2="268" gradientUnits="userSpaceOnUse"><stop stop-color="#70BAFF"/><stop offset="1" stop-color="#309CFF"/></linearGradient><linearGradient id="b" x1="412" y1="4" x2="412" y2="119" gradientUnits="userSpaceOnUse"><stop stop-color="#C3E2FF"/><stop offset="1" stop-color="#82C3FF"/></linearGradient><linearGradient id="c" x1="380.742" y1="29.843" x2="380.742" y2="59.7" gradientUnits="userSpaceOnUse"><stop stop-color="#fff"/><stop offset="1" stop-color="#fff" stop-opacity="0"/></linearGradient><linearGradient id="d" x1="132.852" y1="9.948" x2="132.852" y2="30.305" gradientUnits="userSpaceOnUse"><stop stop-color="#fff"/><stop offset="1" stop-color="#fff" stop-opacity="0"/></linearGradient><linearGradient id="e" x1="49.464" y1="84" x2="49.464" y2="100.286" gradientUnits="userSpaceOnUse"><stop stop-color="#fff"/><stop offset="1" stop-color="#fff" stop-opacity="0"/></linearGradient><linearGradient id="f" x1="189.32" y1="87.857" x2="189.32" y2="104.143" gradientUnits="userSpaceOnUse"><stop stop-color="#fff"/><stop offset="1" stop-color="#fff" stop-opacity="0"/></linearGradient><linearGradient id="g" x1="451.464" y1="82" x2="451.464" y2="98.286" gradientUnits="userSpaceOnUse"><stop stop-color="#fff"/><stop offset="1" stop-color="#fff" stop-opacity="0"/></linearGradient></defs></svg>