<svg width="824" height="121" fill="none" xmlns="http://www.w3.org/2000/svg"><path d="M0 27.755C0 12.427 12.427 0 27.755 0h768.49C811.574 0 824 12.427 824 27.755V120H0V27.755Z" fill="url(#a)"/><mask id="c" style="mask-type:alpha" maskUnits="userSpaceOnUse" x="0" y="0" width="780" height="122"><path d="M0 27.755C0 12.427 12.427 0 27.755 0h724.49C767.573 0 780 12.427 780 27.755V121H0V27.755Z" fill="url(#b)"/></mask><g mask="url(#c)"><path d="M61.472 120H50.818V68.732h10.654V120Zm46.103-24.94c-2.841 4.29-7.265 6.414-13.291 6.414H82.068V120H71.415V68.732H94.71c4.931 0 8.807 1.47 11.607 4.391 2.821 2.921 4.221 6.925 4.221 12.031.021 3.595-.974 6.904-2.963 9.906ZM-.077 120V10.826a.817.817 0 0 0-.812-.818h-8.3A.817.817 0 0 1-10 9.192V.817c0-.45.365-.817.812-.817H28.92c.447 0 .812.368.812.817v49.185L79.509.245A.85.85 0 0 1 80.077 0h37.114c.731 0 1.076.878.568 1.389L-.077 120Zm97.79-40.77c-1.46-1.082-3.855-1.633-7.183-1.633h-8.462v15.012h9.883c3.409 0 5.722-1.041 6.96-3.125.67-1.144.994-2.757.994-4.84 0-2.513-.73-4.31-2.192-5.413Z" fill="url(#d)"/></g><path d="M820 119V31.286C820 16.216 807.784 4 792.714 4H31.286C16.216 4 4 16.216 4 31.286V119" stroke="url(#e)" stroke-width="1.364"/><path d="M389.222 42.814c-2.33-.907-4.2-2.062-5.024-3.988l-3.456-8.983-3.455 8.983c-.825 1.938-2.695 3.081-5.025 3.988l-5.77 1.964 5.944 1.938c2.33.907 4.042 2.15 4.851 4.088l3.455 8.896 3.456-8.896c.824-1.939 2.52-3.181 4.85-4.088l5.944-1.938-5.77-1.964Z" fill="url(#f)"/><path d="M138.505 18.793c-1.553-.619-2.8-1.407-3.35-2.72l-2.303-6.125-2.304 6.125c-.55 1.322-1.797 2.101-3.35 2.72l-3.846 1.338 3.962 1.322c1.554.618 2.695 1.465 3.234 2.787l2.304 6.065 2.303-6.065c.55-1.322 1.68-2.169 3.234-2.787l3.963-1.322-3.847-1.338Z" fill="url(#g)"/><path d="M53.906 91.075c-1.22-.494-2.2-1.125-2.632-2.175l-1.81-4.9-1.81 4.9c-.432 1.057-1.411 1.68-2.632 2.175L42 92.146l3.114 1.058c1.22.494 2.117 1.172 2.54 2.23l1.81 4.852 1.81-4.853c.432-1.057 1.32-1.735 2.541-2.23l3.114-1.057-3.023-1.07Z" fill="url(#h)"/><path d="M193.764 94.933c-1.221-.495-2.201-1.125-2.632-2.176l-1.81-4.9-1.81 4.9c-.432 1.058-1.412 1.681-2.632 2.176l-3.023 1.07 3.114 1.058c1.221.495 2.117 1.172 2.541 2.23l1.81 4.852 1.81-4.852c.431-1.058 1.32-1.735 2.54-2.23l3.114-1.057-3.022-1.071Z" fill="url(#i)"/><path d="M455.906 89.075c-1.22-.494-2.2-1.125-2.632-2.175l-1.81-4.9-1.81 4.9c-.431 1.057-1.411 1.68-2.632 2.175L444 90.146l3.114 1.058c1.22.494 2.117 1.172 2.54 2.23l1.81 4.852 1.81-4.853c.432-1.057 1.32-1.735 2.541-2.23l3.114-1.057-3.023-1.07Z" fill="url(#j)"/><defs><linearGradient id="a" x1="412" y1="0" x2="412" y2="190" gradientUnits="userSpaceOnUse"><stop stop-color="#FFD128"/><stop offset="1" stop-color="#FFE8A1"/></linearGradient><linearGradient id="b" x1="196" y1="0" x2="196" y2="190" gradientUnits="userSpaceOnUse"><stop stop-color="#FFD53B"/><stop offset="1" stop-color="#FFF8E4"/></linearGradient><linearGradient id="d" x1="54.55" y1="0" x2="54.55" y2="120" gradientUnits="userSpaceOnUse"><stop stop-color="#FFE279" stop-opacity=".61"/><stop offset="1" stop-color="#FFE48B"/></linearGradient><linearGradient id="e" x1="412" y1="4" x2="412" y2="186" gradientUnits="userSpaceOnUse"><stop stop-color="#FFF0BA"/><stop offset="1" stop-color="#FFF0BA" stop-opacity="0"/></linearGradient><linearGradient id="f" x1="380.742" y1="29.843" x2="380.742" y2="59.7" gradientUnits="userSpaceOnUse"><stop stop-color="#fff"/><stop offset="1" stop-color="#fff" stop-opacity="0"/></linearGradient><linearGradient id="g" x1="132.852" y1="9.948" x2="132.852" y2="30.305" gradientUnits="userSpaceOnUse"><stop stop-color="#fff"/><stop offset="1" stop-color="#fff" stop-opacity="0"/></linearGradient><linearGradient id="h" x1="49.464" y1="84" x2="49.464" y2="100.286" gradientUnits="userSpaceOnUse"><stop stop-color="#fff"/><stop offset="1" stop-color="#fff" stop-opacity="0"/></linearGradient><linearGradient id="i" x1="189.322" y1="87.857" x2="189.322" y2="104.143" gradientUnits="userSpaceOnUse"><stop stop-color="#fff"/><stop offset="1" stop-color="#fff" stop-opacity="0"/></linearGradient><linearGradient id="j" x1="451.464" y1="82" x2="451.464" y2="98.286" gradientUnits="userSpaceOnUse"><stop stop-color="#fff"/><stop offset="1" stop-color="#fff" stop-opacity="0"/></linearGradient></defs></svg>