<svg width="120" height="84" fill="none" xmlns="http://www.w3.org/2000/svg"><path d="M119.64 5.482c-.026-.051-.038-.159-.079-.14a.767.767 0 0 0-.351.257l-.322.165c-.294.105-.606.322-.885.325.066-.05.339-.142.116-.136a.199.199 0 0 0-.033-.04l-.748.179c-.074-.005-.121.018-.135.071a.94.94 0 0 1-.335.286.395.395 0 0 0-.128.045c-.639.075-1.364.435-2.057.681l-.215.037c-.221-.038-.675.225-.928.224.106-.206.435-.427.725-.646.099-.127.304-.197.478-.283.338-.086.697-.124.917-.448a.065.065 0 0 1-.025-.02.056.056 0 0 1-.012-.03c-.238.071-.455.084-.724.254a2.419 2.419 0 0 0-.531.192c-.037.005-.109.066-.125.038a3.159 3.159 0 0 0 1.028-.632c.11-.106.181-.197.008-.187-.389.047-.693.361-1.055.493-.533.146-.728.066-.694-.167.128-.144.151-.247.061-.308l-.023-.006.026-.012c.027.06.112.066.26.015-.14.09-.269.181-.16.227.493-.266 1.328-.494 1.139-.834.169-.113.357-.195.555-.242.2-.063.384-.143.467-.305l-.03-.059c.196-.135.155-.2.125-.267l.106-.13.094-.31-.315.205c-.149.092-.144.146-.136.198-.398.194-.357-.004-.603.056l-.058-.126a.749.749 0 0 0-.318.149c-.012-.038-.1-.058.125-.143.221-.092.437-.197.648-.312l.048-.033c.018.085.159.018.336-.091l-.002.007c.039.097.293-.037.455-.077l.524-.235.198-.016.36-.164c.394-.05.771-.193 1.101-.417l.16-.202c.21-.111.384-.235.237-.263-.169-.03-.336.138-.499.228l-1.43.632-.746.267-.566.182c-.334.026-.709.261-1.055.39-.073-.047-.211-.029-.423.066a.116.116 0 0 1-.026-.053l-.222.028c-.379.171-.524.317-.463.438l.015-.005-.88.391-1.24.654c-.244-.184-.813.418-1.117.38-.058.02-.114.044-.168.073l-.214.026a.118.118 0 0 0-.042-.047l-.381.046c-.339.1-.728.154-.875.46-.438.202-.814.175-1.271.514l-.71.285-.204.114c-.301.136-.608.345-.902.393l-.028-.06c.32-.117.625-.273.908-.466.2-.115.501-.239.294-.299a1.943 1.943 0 0 1-.309-.14l.007.002-.008-.003c.386-.223.422-.314.094-.267-.193.096-.392.213-.548.208l-.083-.177c-.169.029-.333.082-.487.158l-.102.049c-.116.02-.228.059-.332.115a.967.967 0 0 0-.406.199c.042-.06.061-.11-.023-.124l-.178.089c-.026-.09.055-.209.273-.36.282-.026.579-.24.87-.377a.04.04 0 0 0-.005.019c.004.015.031.017.082.003.293-.155.64-.273.843-.498-.01-.075.497-.347.096-.273l-.002.008.009-.007c-.038-.08.082-.185.302-.305.193-.08.36-.214.48-.387.053-.026.108-.051.161-.073a.163.163 0 0 0 .035.045c-.02.163.218.185.332.276l.358-.168c.076.05-.028.206.306.116.187-.245.34-.467-.046-.459l.164-.155c-.07-.137-.469.073-.716.122l.106-.06.547-.18.008.014a.395.395 0 0 0 .189-.104l.183-.095c.267-.237 1.172-.457.914-.708a.451.451 0 0 0-.169.002c-.337.042-.593.28-.887.423-.343.205-.702.38-1.074.522l-.546.217c-.178.077-.358.157-.535.245-.035.04-.051.07-.048.093l-.46.242a.366.366 0 0 1 .019.056c-.451.186-.892.382-1.198.693l.029.059c.156.002.363-.127.552-.208.016.017.035.03.057.036l.011.084-.175.094c-.186.067-.384.06-.552.262a3.62 3.62 0 0 1-.156.087.833.833 0 0 0-.56.158c-.198.13.011.085.055.11l-.394.214-.338.156-.862.456c-.076.096-.001.125.068.15.217.054.415-.11.614-.272.017.042.113.039.213.034l.139-.024.033.066-.361.19c-.072-.11-.326.017-.586.153l-.027-.043c.044-.049.034-.074-.032-.072l-.469.18.004-.015a.097.097 0 0 0-.007-.07c.072-.042.086-.075.039-.098l-.267-.073c-.286.208-.006.135.072.166l-.325.193-.348.164-.228-.317.124-.21.008-.084c-.234.012-.485.18-.728.314l-.178.085c-.452.166-.921.328-.809.602l-.175.157c-.161.1-.336.173-.52.218.135-.237-.12-.13-.42.019l-.5.354c-.26.23-.595.331-.893.5-.414.16-.83.466-1.246.6l.03.058-.695.377c-.196.034-.38.116-.539.238-.166.12-.347.216-.538.289l-.23.055-.498.31-.5.29c-.858.523-1.734.976-2.608 1.445-.022.037-.022.06 0 .07l-.652.39-.027-.064c-.067-.064-.189.004-.39.139-.293.192-.605.408-.913.473-.007-.061-.057-.091-.202-.044a.43.43 0 0 0-.125.083c-.035.086.027.103.192.039-.142.203-.35.214-.53.31-.31.246-.707.365-1 .637l-.25.375c-.048.04-.1.075-.154.106-.278-.058-.58.367-.866.458a.39.39 0 0 0-.05-.036c-.41.177-.8.524-1.212.678l-.018.006c.24-.287.266-.572.958-.862.223-.135.47-.27.483-.399.326-.054.632-.196.885-.412a.244.244 0 0 0 .007-.024c.187-.106.351-.212.4-.315l.012-.01.2-.098.081.133a.913.913 0 0 0 .504-.299c-.05-.043-.064-.105-.026-.195l.173-.11c.15-.096.301-.185.442-.285.036-.026.068-.051.099-.075.273-.085.535-.205.778-.357-.06-.11.138-.266.342-.422.097-.05.192-.106.288-.168.11-.07.208-.156.29-.258l.028-.028.016-.005c.083-.026.161-.063.235-.11.154-.022.302-.074.438-.152.276-.172.553-.347.812-.532l.091-.069c.153-.016.3-.07.428-.157l.037-.004a.884.884 0 0 0 .218-.11.173.173 0 0 0 .083-.162.737.737 0 0 0 .225-.056c.49-.241.958-.454 1.265-.416.192.035.39.007.566-.081.206-.124.242-.21.246-.286a.047.047 0 0 0-.007-.017l.554-.299c.047-.05.354-.16.124-.147-.143-.063.034-.207.217-.353a3.306 3.306 0 0 0 .549-.32l.078-.064c.26-.08.508-.2.733-.356.139-.083.258-.195.349-.33.024-.09.14-.21.227-.318l.055-.026c.116-.055.224-.127.319-.214-.009.033.017.05.07.05.343-.077.727-.291 1.1-.452.395-.182.779-.387 1.151-.613.374-.22.762-.416 1.161-.583.214-.119.412-.265.588-.435.039-.007.081-.016.124-.028.25-.076.49-.184.714-.32.34.022.666-.31.997-.491l.055-.053a.386.386 0 0 0 .298-.104l.023.006c.298-.06.644-.25.963-.37.466-.247.961-.464 1.435-.701.118-.06.234-.12.35-.183.115-.063.231-.123.341-.188.221-.127.43-.274.626-.437.044.056.198.01.365-.047a2.31 2.31 0 0 0 .599-.295.397.397 0 0 0 .08.005c.083-.02.165-.047.244-.078l.247-.109c.27-.094.528-.218.771-.37l.266-.135c.081-.043.159-.087.236-.133.1-.055.198-.103.298-.153.1-.05.176-.07.261-.113.21-.082.419-.155.627-.232.102-.038.204-.08.306-.125.314-.036.606-.18.828-.408a.032.032 0 0 0 .014.004c.123-.032.243-.078.356-.138-.01.168.146.212.663.024l.376-.186.47-.425c.289-.117.532-.237.51-.372l-.07-.039c-.381.131-.498-.031-1.006.215-.379.184-.766.355-1.148.538l-1.142.55-.531.262c-.555.14-1.098.478-1.648.714a3.786 3.786 0 0 0-1.284.613c-.05.025-.1.046-.152.063-.049.032-.1.06-.153.083-.446.093-.872.378-1.306.574-.192.065-.382.13-.564.199-.45.07-.973.518-1.428.598l-.333.306-.727.31-.389.115a1.654 1.654 0 0 0-.568.237l-.7.352c-.397.055-.848.287-1.29.512a1.566 1.566 0 0 0-.667.339c.009-.062-.067-.075-.137-.092-.244.05.046-.376-.597.05l-.182.121c-.285.185-.635.219-.886.478l-.484.336a.935.935 0 0 0-.384.142l-.216.048-.107-.24c-.285.158-.533.4-.862.478-.177.186-.016.204.033.277l-.448.249-.198.096-.85.483-.706.375c-.052.122-.04.214.044.272h.04c-.189.161-.44.232-.653.358l-.686.409-.349.18c-.059-.123.21-.268.447-.41l.515-.301c.347-.195.475-.349.446-.474l-.204.049-.117.203c-.406.227-.972.18-1.217.71l.02-.005-.026.016.004-.014-.664.383c-.416.005-.962.265-1.543.596l-.154.115-.692.399-.518.305-.667.459c-.368.081-.71.358-1.063.558l-.177.085-.838.55c-.386.264-.739.558-1.166.784-.433.183-.855.396-1.26.636l-.361.155a2.266 2.266 0 0 0-.188.183c-.181.077-.314.217-.477.318-.516.298-1.18.625-1.474.946-.364.389-.736.6-1.165.857l-.333.224c.123-.47-.459-.093-.926.26-.722.548-1.479 1.02-2.231 1.508-.479.346-.955.75-1.436 1.029a15.57 15.57 0 0 0-1.11.701c-.36.245-.724.494-1.084.746-.718.509-1.43 1.02-2.154 1.512-.207.234-.665.44-.76.686l-.486.368c-.055.028-.111.058-.167.092a2.886 2.886 0 0 0-.683.401c-.218.17-.432.353-.654.502-.325.244-.714.449-.934.76l.173-.054c-.786.622-1.655 1.164-2.376 1.845l-.628.476a.91.91 0 0 1-.5.372l-.19.057-.446.406a.201.201 0 0 0 .047.046.276.276 0 0 0 .023.062c-.144.108-.29.22-.434.331.019-.072-.006-.104-.122-.057a4.37 4.37 0 0 0-.746.64l-.009.034.01-.036c-.263.111-.49.293-.658.526a5.01 5.01 0 0 1-.814.564c-.487.39-.44.604-.643.9-.589.31-1.002.667-1.162 1.083l-.462.364c-.235-.064-.464.18-.691.464a.06.06 0 0 1 .043.046l-.082.15a.771.771 0 0 1 .332-.182.962.962 0 0 0 .154-.076.108.108 0 0 0 .03.09.103.103 0 0 0 .09.028c.032.043.09.057.235-.017l.034.05c-.648.485-.642.61-.155.46l.172-.117a.747.747 0 0 0 .25-.206 1.9 1.9 0 0 0 .182-.109c.383-.294.752-.608 1.103-.942.105-.127.165-.228.128-.28a.95.95 0 0 0 .45-.255c.064-.06.124-.12.178-.18.103-.098.187-.214.293-.31a.075.075 0 0 0 .014.056c.143-.071.204-.062.233-.006.145-.026.213-.155.313-.244a.315.315 0 0 0 .15-.055c.244-.146.466-.327.659-.538.186-.34.644-.72.946-1.077.034.084.209-.003.401-.115.163-.102.318-.217.464-.344a.913.913 0 0 0 .215-.263l.005-.021a.976.976 0 0 0 .094-.063c.185-.154.37-.308.56-.457.064-.05.126-.102.186-.154.18-.157.423-.29.547-.47a.62.62 0 0 0 .031-.063.494.494 0 0 0 .1-.008c.356-.075.725-.425 1.077-.685.21-.155.275-.278.142-.278.127-.064.249-.138.365-.221l.038.026c.205-.144.423-.29.386-.398l.031-.036c.048-.095.03-.141-.087-.109.321-.156.636-.296.952-.445.227-.092.443-.208.646-.347a4.096 4.096 0 0 0 .436-.377c.25-.176.476-.368.701-.562.083.013.074.106.194.09-.042.029-.085.057-.128.082-.176.119-.237.212-.159.23.117.026.313-.103.504-.256.154-.144.255-.27.17-.306l.057-.05a.867.867 0 0 0 .257-.305c.103-.242.51-.566.678-.818l.003-.012c.49-.048 1.127-.515 1.748-.933a.5.5 0 0 0 .128-.158.058.058 0 0 1-.047-.02c.17-.066.322-.173.442-.313l.022.006c.38-.106.748-.255 1.096-.444.373-.188.757-.35 1.15-.49-.374.251-.447.603-.885.76-.421.164-.544.353-.727.565-.275.346-.597.65-.958.9l-.01.037-1.63 1.133-.408.124a1.447 1.447 0 0 0-.447.244l-.035.03.016-.263-.159.11c-.214.16-.455.32-.47.473l.107.03c-.169.22-.37.411-.599.567-.283.126-.104-.294-.655.15l-.11.075c-.135.257-.287.51-.67.64.03-.03.063-.06.091-.093.146-.182.368-.378.471-.55-.199-.049-.422.172-.646.393-.957.562-.385.444-.295.544l-.648.566.11.161-.17.136-.3.204a.533.533 0 0 0-.053-.032c-.218.027-.431.062-.484.354-.186.185-.245.313-.222.403a1.68 1.68 0 0 1-.142.1c-.084-.12-.227-.124-.563.26-.502.225-1.021.662-1.526.935l-.129.083c.03-.116-.039-.172-.053-.26-.047-.072-.21-.01-.393.078-.106.078-.215.154-.32.235-.064.116-.02.181.256.38l-1.172 1.09c-.016.038-.016.06.002.073a2.823 2.823 0 0 1-.613.42l.01-.04c.197-.684-.584.13-.994.375-.037.045-.08.096-.122.137l-.012.046.084.023c-.072.15-.262.29-.436.43-.06.087-.02.103.016.122-.105.044-.262.192-.356.216-.439.247-.888.738-1.32.867.042-.127-.084-.07-.237.021-.285.149-.557.451-.838.582-.01.164-.135.374-.375.628a.376.376 0 0 0-.11.032c.062-.137-.029-.183.05-.331l-.051-.014-.934.76c-.17.131-.306.3-.398.495-.083.19.048.174.265.072l.046-.032.1.13.28-.226a.918.918 0 0 1 .396-.402.934.934 0 0 0 .401-.36.19.19 0 0 0 .192-.012l.038.083c-.023.015-.044.03-.067.048l-.049.066c-.136-.002-.327.115-.538.288-.35.364-.803.652-1.157 1.012a.065.065 0 0 0-.026-.02c-.02.001-.04.006-.06.01.108-.148.109-.226.024-.25-.04-.042-.1-.06-.253.028l-.18.406-.404.102c-.209.4-.701.906-.843 1.287-.022.057-.131.06-.179.046-.511.354-.38.4-.246.447l-.22.175c.013-.12-.043-.182-.198-.16l-.474.377.092-.16c.028-.11-.062-.05-.19.066-.14.093-.182.059-.243.044-.203.18.098.13-.198.348-.37.22-.38.338-.32.438a.405.405 0 0 0 .28-.116.63.63 0 0 0-.092.264c-.385.146-.772.652-1.151.86a2.348 2.348 0 0 0-.154.145c-.015-.015-.047-.013-.11.018l-.148.124a.442.442 0 0 0 .03-.29c.035-.054.066-.11.094-.168l.121-.188c.271-.192.345-.383.498-.575.007.063.028.112.145.07.224-.094.412-.26.534-.474.044-.106.062-.196-.05-.18-.061-.04-.08-.13-.274-.02l-.254.314a.535.535 0 0 0-.088.153c-.17.154-.34.319-.516.37.144-.13.222-.234.227-.305.048-.057.09-.12.127-.185l-.26-.024c.096-.081.178-.178.245-.286a1.761 1.761 0 0 0 .508-.24 2.66 2.66 0 0 0 .498-.54l.01-.016.04-.013a2.27 2.27 0 0 0 .316-.215c.068-.057.135-.114.198-.173.28-.253.35-.449.514-.67.334-.36.705-.408 1.043-.756.184-.286.199-.445.01-.45l.088-.065c.075-.057.147-.118.22-.175.248-.06.595-.395.87-.54.074-.055.14-.119.197-.19l.003-.363a2.09 2.09 0 0 1-.49.337c-.405.125-.272.405-.58.56-.222.18-.478.31-.752.383l-.147.118-.037-.055c-.423.228-.317.327-.367.466l-.112.264-.13.108c-.263.063-.509.191-.713.373-.293.232.09.098-.074.28l-.319.266-.148.124c-.087.211-.378.388-.561.583-.594.223-.716.764-1.165 1.085l-.096-.074a1.111 1.111 0 0 0-.45.395l-.582.482c-.3.126-.537.473-.82.655a4.483 4.483 0 0 1-.723.703c-.155.152-.353.301-.419.458-.191.182-.393.362-.604.54-.211.177-.408.35-.614.522-.416.342-.81.71-1.18 1.103l-.725.68-1.974 1.724a.046.046 0 0 1-.032-.01.048.048 0 0 1-.017-.03c-.114-.046-.219.018-.453.301-.216.263-.448.524-.67.793l-.677.812-.866.835c-.64.531-1.225 1.092-1.663 1.735a.19.19 0 0 0-.018.068l-.28.27-.562.53-.209.11c-.193.168-.376.33-.555.503-.091.092-.178.176-.267.27-.088.095-.168.2-.256.308-.5.633-1.105 1.265-1.665 1.896-.053.08-.108.16-.165.24l-.085.12-.054.073-.003.008a.265.265 0 0 1-.013.083.333.333 0 0 1-.08.126c-.071.056-.14.115-.204.18-.006.096-.054.112-.046.267l-.139.112.01.081c-.08.007-.144.078-.211.148a.68.68 0 0 1-.099.09l-.023.014s-.009.007-.01-.003l-.011-.027a1.085 1.085 0 0 1-.038-.12l-.073-.16c-.054.013-.062-.204-.122-.17-.05.022-.079-.055-.1-.13-.023-.074-.04-.15-.09-.158l-.058-.063-.03-.031a.37.37 0 0 1-.037-.04.122.122 0 0 1-.098.03.12.12 0 0 1-.087-.056c-.043-.051-.078-.115-.15-.125a.097.097 0 0 0-.053.047c-.085.017-.1-.063-.124-.115l-.004.015c-.021-.045-.033-.099-.11-.084l-.423-.63c-.112-.138-.193-.2-.215-.12l-.018-.012-.18-.263-.08-.218c-.64-.816-1.187-1.757-1.848-2.543a.387.387 0 0 1-.066-.002l-.306-.462-.016.014-.307-.481a.882.882 0 0 0-.234-.37c-.288-.377-.535-.888-.87-1.084a.676.676 0 0 0-.066-.106.775.775 0 0 0-.413-.492l-.162.116a.828.828 0 0 0-.27-.292c-.194-.268-.356-.612-.602-.782-.201-.341-.5-.667-.606-1.023-.258-.466-.593-.644-.864-1.058l-.1-.177c-.238-.333-.475-.65-.756-.794l.563.888a.68.68 0 0 0 .29.375c.012 0 .022-.005.03-.013.32.558-.142.099-.144.235l-.433-.657-.268-.296a9.248 9.248 0 0 1-.53-.804c-.368-.719-.684-1.04-.978-.999-.08.011-.274-.228-.293-.111.11.264.266.35.395.511.002.139.134.323.236.497.03.125-.202.02.07.345.246.293.317.26.248-.01.03-.049.047-.104-.02-.256.315.196.512.578.708.96.08.14.143.192.202.205l.128.27c.197.132.327.428.494.632.133.118.262.228.348.225l.052.08a.654.654 0 0 0 .09.098l.049.173a.213.213 0 0 1-.058-.004c.014.17.13.38.256.592l-.526-.604c-.189-.123.065.226.003.236-.103-.145-.202-.336-.318-.385-.024-.006-.02.077.007.131.054.121.145.221.26.284.158.278.29.272.436.43l.076.192c.082.234-.073.345.304.729l-.001.005c.085.321.211.46.37.454l.173.15c.03.052.058.102.085.153l.126.14.097.174c.051.367.27.706.612 1.014l.218.572c-.04.022-.21-.158-.115.068.041.185.122.36.237.51a.706.706 0 0 1-.168-.171l.002-.006a.87.87 0 0 0-.145-.299c-.368-.428-.341-.169-.358.02l.03.101c.171.325.342.514.515.553a.079.079 0 0 0 .018-.05c.165.194.312.344.357.227.017.026.035.05.056.073a.465.465 0 0 0 .01.16.693.693 0 0 0 .233.377c.088.07.171.126.259.189a.953.953 0 0 0-.021.26l-.005.016-.195-.157c-.136-.185-.281-.371-.294-.543l-.093-.133c-.302-.337-.527-.379-.805-.637.05.114.024.114-.034.064-.121-.278-.303-.334-.442-.542-.108-.14-.21-.25-.296-.268-.026.014-.015.057.002.109l-.062-.062-.006-.001c-.065-.224-.263-.501-.347-.73-.124-.287-.275-.474-.453-.561-.332-.463-.649-.895-1.002-1.096-.171-.097-.39-.4-.565-.69-.061-.207-.142-.386-.327-.471a.274.274 0 0 1 .033.1l-.033-.1c-.148-.087-.136-.243-.225-.355-.143-.254-.453-.588-.3-.7a.957.957 0 0 0-.252-.359l-.263-.039-.495-.618c-.249-.173-.23-.005-.11.293l.158.367.495.848c.114.246.281.464.49.635-.047.113-.35-.137-.263.118.125.373.418.544.64.8.04.048.076.097.11.148l-.515-.04c.383.3.755 1.009 1.08 1.124l-.015-.053a.087.087 0 0 0 .04.002.703.703 0 0 1 .025.061c.096.144.178.294.279.437-.048.03-.108.04-.218-.05l-.134.022c-.389-.582-.502-.577-.42-.157-.102-.054-.058.045.01.165l.03.032-.205-.095-.02-.016a.636.636 0 0 0-.195-.311 6.994 6.994 0 0 0-.88-1.088l-.866-1.07-.13-.143c-.214-.254-.205-.744-.581-.827-.229-.253-.31-.546-.494-.811a.913.913 0 0 0-.276-.32c-.053.097-.171-.016-.323-.23a7.225 7.225 0 0 0-1.09-1.41l-.33-.503c-.178-.308-.356-.358-.533-.57l-.118-.18-.876-1.062-.095-.173-.278-.295a7.078 7.078 0 0 0-.887-1.121l-.57-.71-.394-.482-.267-.527-.22-.103-.116.203c.027.261.181.52.443.766l.054-.044c.13.153.26.188.39.415l.185.323c.106.196.242.374.404.527.098.017.074-.085.026-.212a.243.243 0 0 0 .118.078c.114.288.263.56.444.811.164.197.325.335.487.511.064.069.14.125.224.166.167.409.439.632.689.893l.043.031c.022.082.052.16.089.236-.18-.149-.305-.2-.249.066l-.473-.197-.017-.03c-.26-.33-.519-.66-.778-.844l.002.017-.16-.149a3.075 3.075 0 0 0-.394-.262c-.127 0-.311-.202-.49-.368-.44-.615-.9-1.185-1.366-1.73a.791.791 0 0 0-.099-.133l-.21-.335-.993-1.222c-.233-.282-.469-.557-.701-.846-.33-.413-.13.222-.418-.113.007.164.197.342.282.512a.377.377 0 0 0 .204.232c.095-.092.318.131.497.245.062.206.142.407.241.598-.103.01.069.2.117.297.08.16.134.194.173.18l.015.018a2.51 2.51 0 0 0 .488.416l.023.006c.316.496.475 1.03.897 1.497.145.383.369.73.656 1.018l.31.457c.067.088.146.165.234.23l.07.064c.315.416.665.802 1.046 1.156.313.26.543.609.66 1.002-.12.021.13.452-.006.462l-.27-.288c-.159-.224-.297-.503-.492-.625-.122-.17-.236-.369-.378-.465l-.117-.167c-.26-.254-.498-.626-.754-.905a.252.252 0 0 0-.057.014c-.034-.049-.068-.1-.1-.151a1.173 1.173 0 0 1-.114-.127c-.135.005-.151.135-.002.446l.005.002.22.382-.212-.16-.085-.115a4.96 4.96 0 0 1-.335-.523c.02.006.028-.01.025-.045l-.153-.345c.035-.044.052-.103-.011-.255-.447-.612-.859-1.33-1.376-1.733a1.055 1.055 0 0 0-.068-.102l-.363-.762-.333-.294-.376-.633a3.832 3.832 0 0 0-.868-1.09c-.078-.145-.115-.345-.244-.419-.172-.102-.016.178.03.325l.044.275c-.013.189-.062.335.033.642a.794.794 0 0 0 .14.347c.267.357.248.303.316.152.069-.15-.36-.803.024-.575l.215.312.151.357.054.194c-.04.15-.319-.004-.129.449.16.043.3-.075.539.492.167.292-.23.133.127.552.334.393.215.018.23-.12l.176.145.188.319c.03.226-.059.274-.251.166l-.018-.013c-.086.015-.048.148.008.298-.068-.037-.133-.067-.204-.102a.165.165 0 0 1-.07 0l.035.043c.17.602.622.81.908 1.25-.246-.066-.536-.22-.672-.081-.066-.048-.162-.143-.196-.133-.05.017.052.156.107.25.128.3-.005.413.407 1.089-.372-.988.125-.318.338-.203.168.18.213.109.28.085.043.046.081.096.114.148.185.137.378.388.347.524-.073.32.26.574.482.855.36.458.207 0 .318.01l.375.428.109.174a.755.755 0 0 0 .325.493c.145.219.34.405.435.656l.003-.01c.115.13.222.267.321.41l.115.177c.305.51.638 1.004.997 1.477-.169-.127-.41-.415-.4-.146.251.46.531.936.55 1.285.053.12.114.237.182.349-.067.072-.216.058.026.461l.334.486a.78.78 0 0 0 .27.29c-.01-.14-.128-.308-.233-.471.077.02.115-.137.279.258a.75.75 0 0 0 .255.304l.299.452c.063.141.047.2.011.238.095.416.366.922.689 1.127.215.136.53.43.66.334.036.053.07.108.099.166.046.104.11.199.192.278.065.15.158.285.274.399.046.027.09.058.13.094.071.148.067.253.127.398l-.002.007c.14.204.25.303.324.257.045.246.159.473.327.655-.02.015-.029.048-.025.097l-.002.008c-.074-.001-.167-.068-.296-.255l-.226-.347c-.079-.04-.09.02-.105.075l-.282-.076.026.1c.047.103.102.203.166.297-.025.097.125.308.22.483l.012.019c-.152-.109-.265-.308-.393-.5l.002-.009a.457.457 0 0 0-.133-.307c-.095.111-.25-.006-.469-.35.101-.005-.04-.287-.015-.38.164.254.323.53.492.505a.201.201 0 0 0 .033-.054l-.454-.576a.567.567 0 0 0-.046-.141 1.895 1.895 0 0 0-.42-.567c-.233-.298-.575-.91-.415-.219.081.35-.196-.085-.323-.18a.408.408 0 0 0-.004-.052c-.065-.192-.105-.362-.152-.538a.606.606 0 0 0-.136-.196c-.293-.433-.41.006-.75-.662l-.119.044-.287-.299a.56.56 0 0 1-.085-.089l.085.09a3.059 3.059 0 0 0-.527-.786l.055.183a.612.612 0 0 0 .108.212c-.108-.073-.263-.242-.277-.12l-.204-.284a.24.24 0 0 0-.07-.019c-.03-.05-.064-.1-.101-.145l-.104-.181c-.17-.195-.313-.481-.5-.62l-.415-.619c.087-.137.035-.31-.286-.547a5.907 5.907 0 0 1-.978-1.234c-.357-.43-.495-.915-.825-1.353a2 2 0 0 0-.372-.659c-.38-.31-.614-.968-.992-1.273-.16-.17-.192-.081-.263-.071a9.22 9.22 0 0 0-.887-1.346 16.014 16.014 0 0 1-1.228-1.72c-.124-.134-.24-.359-.37-.422-.315-.303-.557-.812-.876-1.103-.357-.559-.794-1.083-1.072-1.678l-.135-.133-.325-.476c-.11-.322-.34-.552-.545-.8l-.743-1.128c-.099.046-.242-.204-.365-.348-.493-.573-.664-.581-.573-.018.156.214.294.474.48.609.253.354.454.938.792.963.11.184.114.283.096.364.032.318-.087.368-.65-.264.432.598.536.892.637 1.185-.022.05-.161-.076-.113.075.097.306.156.614.513.914l.03.133c.073.296.324.572.506.857.115.13.204.203.22.119l.087.111c.026.065.056.129.09.19.04.072.086.142.135.209l.097.12-.161-.035-.046-.059c-.197-.234-.359-.349-.495-.37a1.798 1.798 0 0 0-.09-.164 1.867 1.867 0 0 0-.248-.303c-.015-.01-.03-.017-.042-.024a.3.3 0 0 0-.086-.111l-.376-.232-.325-.728-.063.048-.322-.502a11.006 11.006 0 0 0-.792-1.077.505.505 0 0 0-.137-.204c-.266-.37-.489-.825-.817-1.07a.537.537 0 0 1-.112-.1c-.452-.736-1.036-1.17-1.498-1.951-.232-.391-.297-.19-.374-.122a.316.316 0 0 1-.247-.153c-.207-.28-.425-.547-.452-.334-.026.214.302.39.398.62l.121.415a.776.776 0 0 1 .158.359c-.46-.341-.074.227-.004.453l-.056.025c-.192-.15-.31-.171-.218.089a.317.317 0 0 0 .232.197l.533.773-.112.163c-.054.112.123.304.222.47l.097.178c.329.442.205-.079.444.175l.28.278.268.533c-.112.152-.018.386.332.725l.106.158c.223.4.665.817.655 1.196.24.183.263.46.429.677.099.234.126.515.413.625.11.13.18.15.24.147l-.012-.044.007.002.007.038c.173.337.316.694.626.948l.04.01.004.009-.044-.02c.126.355.409.86.053.741-.085-.023.012.206.078.366l.38.426c.146.158.292.315.41.354.038.094.09.18.156.257l.142.127c.126.344.088.482-.14.378l.172.259a.884.884 0 0 1 .345.48l-.008-.002c-.034 0-.047.028-.037.086.189.287.37.592.605.774.125.195.264.391.298.57l.616.943c-.001.157.139.35.274.515.104.125.099.021.127-.007.028.04.058.08.09.117.123.205.368.502.126.431.014.206-.315-.05-.185.314.198.251.384.449.526.457l.126.288.022-.013.143.142c.108.174.164.305.13.387-.065.187.099.433.356.693l.058.218-.061.014c-.14-.205-.247-.29-.322-.253.292.648.745 1.096 1.153 1.594.144.238.29.483.412.42l-.432-.642-.087-.153.095-.081.76.912.165.136.199.307c-.024.088-.132.062-.048.276l.063.092a.078.078 0 0 0-.017.064c-.09-.13-.18-.258-.279-.378a.835.835 0 0 0-.18-.167c.091.33.409.73.51 1.08.123.411.266.276.403.41l.22.323c.197.367.481.614.694.958l.028-.014.255.304c.24.236.343.564.545.822l-.102.076.097.153-.109.067c-.193-.119-.06.174-.075.284-.1-.38-.36-.686-.63-.994-.254-.244-.134.036-.125.16-.199-.171-.398-.358-.49-.27l.022.266c.15.234.304.473.412.392.065.024.132.043.2.055.129.209.254.378.354.31l.137.164c.223.33.33.808.691.964.107.111.214.22.22.098l.44.206-.003-.057.123-.08c.094.114.196.221.307.318.037.042.072.084.107.13.114.236.143.377-.033.28a.24.24 0 0 0 .053.162c-.11-.023-.174.046-.3 0l-.127.09c.356.67.807 1.042 1.216 1.524a.12.12 0 0 0-.029.06c-.103.012-.058.154.084.376a.63.63 0 0 0 .327.253l.009.003c.06-.23.335.043.583.242a.068.068 0 0 0-.003.036c.014.12-.052.166-.017.317.249.37.302.209.44.283.14.074.203-.018.403.308-.228.11.207.471.335.717.102.015.064-.1.006-.234a.442.442 0 0 0 .161.138l.055.08.047.071a.261.261 0 0 0-.077-.062c-.084-.014-.123.03-.067.188l.079.111.088.13.172.263.337.535c.22.36.468.7.743 1.018l.773.782.19.286.018.013c.01.04.022.08.037.118.165.287.36.555.584.798.385.365.671.796.977 1.285.306.488.586.982.913 1.437.138.48.414.672.652.923.282.546.58 1.097 1.074 1.656l.479.46c.891 1.2.628 1.41 1.335 2.479.076-.117.344.083.628.313l-.007-.023c.27.245.599.774.9 1.172l.01.028c.5.734.34.636.138.495-.22-.154-.698-.792-.886-.754.817 1.059 1.558 2.118 2.022 2.412l-.014-.137c.098.043.262.269.44.522.156.258.22.486.482.784.276.316-.018-.175.015-.203.117.165.223.338.32.516l.133.254.033.063c-.002.008.007.002.009.002l.01-.006.018-.013.075-.052c.201-.144.429-.337.797-.83.016.158.142.14.706-.49.61-.674 1.225-1.326 1.84-1.99l.25-.476c.217-.274.286-.418.257-.475l-.029-.066c-.08-.01-.168-.009.04-.324l-.062.047.062-.044.962-1.064c.179-.07.294-.066.278.092.102 0-.368.711.14.17.527-.56.073-.276.186-.51.063-.07.126-.142.187-.215.267-.397.819-1.051.466-.891l.059-.088.67-.725c-.157.294-.253.52-.203.617.246-.175.45-.39.485-.572.035-.182.045-.303.487-.788l.011.087c-.069.178.056.063.286-.208l.46-.524c.164-.389.382-.75.648-1.076.336-.383.71-.73 1.114-1.036.048.025.096.048.32-.159a.76.76 0 0 0 .089-.015c-.271.59.307-.134.592-.493.209-.26.36-.49.52-.726.181-.26.379-.508.592-.742-.067-.24.864-1.19 1.172-1.692l-.046.016.045-.015c.101-.12.208-.234.321-.343l.084-.081.042-.042c.014-.013.031-.03.037-.033l.09-.077c.127-.095.233-.216.312-.354a19.01 19.01 0 0 1 1.544-1.674c.146-.118.293-.238.446-.349.318-.449.82-.89 1.104-1.344.118-.135.322-.342.216-.345-.105-.003-.285.248-.434.383-.141.098-.203.09-.223.029.148-.117.269-.267.353-.438.012-.143.23-.382.276-.541l.27-.539a.146.146 0 0 0-.029-.053c.041-.042.08-.084.117-.127a7.385 7.385 0 0 0 1.648-1.484c.01.026.04.03.091.01.27-.233.526-.482.765-.747.24-.256.474-.513.707-.77a.953.953 0 0 1 .25-.298c.058-.102.071-.171.042-.214l-.02-.006.26-.298.09.075-.013.047.108.054a.78.78 0 0 0 .303-.27.526.526 0 0 1 .33-.105c.202.032.377-.12.618-.5.073-.148.098-.264.047-.327-.05-.063-.148-.025-.282.04l-.018.011-.009-.019c.236-.227.562-.424.657-.695l.185-.08c.202-.073.38-.257.56-.435-.049.12-.082.23-.032.283-.102.081-.191.18-.262.29l-.013.022a1.67 1.67 0 0 0-.482.456c-.027.063-.008.085.056.065a.719.719 0 0 0 .33-.228l.282-.237c.178-.178.4-.367.347-.493.262-.281.604-.385.847-.72.163-.298-.003-.43.327-.802l.009-.004c.197-.134.46-.255.411-.434l.106-.113.492-.32-.02-.006.269-.302.017-.028.646-.56.036-.018.15-.13.21-.355-.12-.15-.293.233c-.108.088-.153.14-.136.167a1.077 1.077 0 0 0-.144.16.31.31 0 0 0-.014.053 2.328 2.328 0 0 0-.301.41c-.058-.094-.156-.14-.424.001l.392-.363.295-.31.01.003a.463.463 0 0 0 .289-.17c.219-.183.181-.215.11-.228l.026-.011c.151-.077.33-.195.341-.084l.087.109a.232.232 0 0 0 .003.1c.44-.2.849-.59 1.258-.95l.13-.124a.234.234 0 0 1-.02-.052c.145-.196.117-.422.53-.554a.595.595 0 0 0 .28-.245l.1-.11.048-.018c.21-.208.572-.416.492-.594-.065-.15.285-.268.397-.408l.586-.468c.057.073-.002.3.407-.098.175-.376.593-.66.992-.933.249-.167.54-.343.655-.566.099-.193-.106-.147-.26-.137-.43.26-.62.6-.93.898-.229.21-.481.404-.698.62a.078.078 0 0 0-.033-.001.275.275 0 0 0-.028-.296l.42-.355a.075.075 0 0 0-.016-.056l.631-.526a.978.978 0 0 0 .194-.093 2.43 2.43 0 0 0 .656-.6c.3-.07.787-.594 1.034-.533.236-.207.516-.336.732-.583.343-.247.429-.41.344-.515.094-.19.401-.372.57-.559a.124.124 0 0 0 .1.027l.033-.01c-.065.086-.06.136-.033.171.233-.098.425-.275.544-.501.089-.29.312-.512.725-.64.429-.4.916-.792 1.225-1.21.108-.101.237-.205.255-.295l.611-.462c.19.037-.052.505.29.314.407-.231.17-.424.473-.73.02-.02.037-.042.057-.062.438-.43.477-.244.491-.143.034.256.238-.026.412-.199.125-.142.132-.24.221-.37.045-.05.095-.1.145-.15.05-.05.099-.09.144-.142a.682.682 0 0 0 .069-.099c.02-.015.04-.028.06-.041.36-.272.456-.547.803-.82l.577-.5c.188-.102.369-.216.543-.342.41-.327.798-.682 1.204-1.018.203-.169.409-.333.626-.485.218-.154.447-.29.685-.409.19-.15.437-.303.413-.434l-.022-.006.002-.006.017.004 2.646-1.838 1.38-1c.582-.382 1.184-.736 1.777-1.093l1.178-.987a.63.63 0 0 0 .384-.316.08.08 0 0 0-.001-.024c.192-.127.399-.244.514-.411l.462-.306c-.047.104-.03.175.114.154l.413-.357-.092-.165.465-.31-.357.084c.05-.032.097-.067.143-.103.296-.247.832-.427.896-.74.345-.15.673-.336.98-.555l.992-.595c.484-.31.977-.608 1.448-.929.216-.147.317-.29-.06-.102-.083-.063.045-.172.246-.297l.966-.598.364-.147c.2-.163.602-.305.562-.533-.219.142-.413.358-.643.413l.01.016-.962.58c-.314.057-.25-.149-.347-.244a1.136 1.136 0 0 0-.238.091c-.364.227-.714.456-.901.723a.051.051 0 0 0 .04.022l-.155.12-.635.367c-.048.036-.095.07-.142.1a4.06 4.06 0 0 0-.297.171 1.868 1.868 0 0 1-.433.144 2.628 2.628 0 0 0-.768.551l-.015-.015c-.16.102-.316.21-.473.318-.366.106-.625.439-.957.616a.489.489 0 0 0-.192.133 1.915 1.915 0 0 0-.127.083c-.062-.066-.148-.106-.41.032l-.06-.103.099-.07a.597.597 0 0 0 .216-.134l1.395-.998c.046-.105.046-.176-.056-.177.266-.306.67-.263.946-.548l1.564-1.06.041-.072-.01-.002c.17-.063.324-.161.454-.288.044-.035.09-.068.142-.1.185-.147.266-.26.226-.338-.195-.021.135-.316.031-.379l-.009-.002c.205-.164.422-.311.65-.44l.15-.165.248-.241c.056-.094-.041-.066-.143-.032-.067.03-.132.063-.201.095l.036-.04c.12-.142.069-.262.415-.432.16-.068.295-.094.457-.163l.008-.006c.034.03.078.047.123.048a.604.604 0 0 0-.339.315c-.006.024.015.042.047.046l.117.093c-.22.222-.314.373.054.261l.166-.107c.402-.177.29-.36.583-.536l.706-.248a.196.196 0 0 0 .058-.052c.017-.024-.007-.024-.074-.003l-.399.014-.065-.036c0-.103.301-.343.057-.337.23-.13.443-.286.636-.467l.315-.165c.207-.203.188-.301.03-.326l.117-.217.181-.098.274-.161c.04.033.096.05.244-.071a4.991 4.991 0 0 0 1.718-1.236c.036-.041.045-.068.02-.079l.305-.18c.17-.086.338-.184.507-.279-.078.08-.148.158-.221.237-.073.08-.149.188-.017.181.284.063.722-.368 1.044-.453.088-.225-.394-.07-.366-.255a7.706 7.706 0 0 1 1.046-.567c.359-.163.694-.374.997-.628l.302-.17c.309-.18.655-.337.946-.587-.343-.054-1.091.525-1.296.351-.134-.1-.134-.1.614-.514.274-.03.586-.251.88-.381l.154-.177a.656.656 0 0 0 .119-.085l1.226-.652c.013-.415-.442-.111-.978.288a5.436 5.436 0 0 1-.479.28l-.204.03-.483.22-.168.06a1.082 1.082 0 0 0-.078.037 1.18 1.18 0 0 0-.351.14l.013.003c-.189.184-.52.257-.723.424l-.018.007c-.079.034-.158.07-.237.108l-.028.015c-.303.1-.596.233-.872.396l.122-.142c.372-.192.639-.378.593-.543l.301-.166c-.012.045.03.063.112.05.529-.168 1.044-.372 1.496-.785.748-.41 1.299-.982 2.134-1.322.247-.062.461-.22.677-.376a1.68 1.68 0 0 1 .69-.338l.308-.242c.34-.2.74-.351 1.027-.597-.218-.108-.622.21-.939.331l-.264.004-.139.06c-.269.142-.265.189-.135.189l-.015.007a9.571 9.571 0 0 0-.637.387l-.027.021-.214-.065-.676.37-.399.17c.053-.152.317-.266.521-.394l.583-.319c.195-.105.4-.202.592-.309l1.147-.734a.44.44 0 0 1-.019-.061c.055-.032.111-.063.167-.092.158-.004.297.049.544-.205a.13.13 0 0 1 .039-.04l-.039.04.829-.487c.183-.076.324.019.548-.217.375-.398.83-.354 1.234-.589.475-.223.766-.408.377-.45-.151.009.033-.173-.036-.211a.963.963 0 0 0 .136-.08l.08-.032.026-.013c.05.009.103 0 .148-.024l.318-.197c.58-.204 1.134-.524 1.705-.77.093.025.244-.05.376-.112.86-.513.188-.537.409-.851l-.007-.14c.591-.281 1.145-.56 1.463-.944.047-.056.139-.36.547-.32l.341-.167.845-.398c.098-.09.195-.181.296-.271a1.31 1.31 0 0 0-.736.373c.044-.105.005-.16-.125-.175a.564.564 0 0 0-.058.01.304.304 0 0 0 .121-.109l.054-.02c.087-.044.168-.101.24-.169.104-.035.204-.078.301-.13a.098.098 0 0 0-.014.037.089.089 0 0 0 .003.04.398.398 0 0 0 .268.123.504.504 0 0 0 .31-.076.131.131 0 0 0-.018.037c.026.024.08.028.162.01.319-.093.626-.225.913-.395a2.15 2.15 0 0 1 .196-.15l.208-.076.88-.424c.358-.13.645-.283.794-.489-.247.064-.225-.052-.36-.061ZM94.232 10.47a5.55 5.55 0 0 0 .543-.268c-.02.074-.147.188-.118.237a.684.684 0 0 0-.25.124c-.12-.01-.232-.027-.364-.026.064-.019.127-.042.19-.067Zm-8.455 4.385h.025l-.038.018.013-.018Zm-.02.407-.05.033a.413.413 0 0 1-.09-.001.432.432 0 0 1 .138-.033h.002ZM59.287 33.64l-.314.252c-.144.014-.214.154-.316.241l-.167.016a.92.92 0 0 0 .139-.257c.176-.017.37-.134.593-.413l.002-.009c.271-.033.52-.328.774-.555l.038.053c-.248.226-.597.411-.75.672Zm2.54-2.652-.232.255c-.137.035-.268.09-.39.162.087-.099.16-.21.215-.33a.583.583 0 0 0 .329-.17l.014-.018.166-.06-.102.161Zm4.867-3.09-.335.248c.088-.118.13-.207.038-.213l.062-.055c.05-.024.099-.05.15-.082.051-.032.123-.084.182-.122a.13.13 0 0 1 .013.021c-.03.071-.067.14-.11.204ZM69.654 25l.003-.012.014.004-.018.008Zm.121.713-.005-.002c-.198.133-.169.072-.138.016a4.23 4.23 0 0 0 .25-.175.057.057 0 0 0 .021.058l.006.009-.134.094Zm.76-1.46a1.195 1.195 0 0 1-.176.089c.069-.033.135-.07.2-.11l-.025.021Zm.689-.424-.027.007.045-.032.011-.003-.029.028Zm-45.42 26.215.002.018-.177-.146c-.003-.014-.009-.027-.011-.04a3.064 3.064 0 0 0-.23-.34.994.994 0 0 0-.168-.164l-.008-.01c.1.01.086-.166.22-.103a.657.657 0 0 0 .047.112c.095.207.15.412.346.63l.035.029c-.03-.02-.05-.014-.057.014Zm.42 1.437-.053-.194a.366.366 0 0 0 .038.04c.09.036.116.002.122-.065.055.25.178.48.355.662a.243.243 0 0 0-.046.177l-.416-.62Zm1.398.468.002-.01.02.03-.022-.02Zm-5.82-3.57c-.01-.02-.015-.038-.006-.033a.404.404 0 0 1 .075.06c0 .007.002.014.003.02a.174.174 0 0 0-.074-.04l.001-.006Zm-7.92-5.752.013-.008a.113.113 0 0 0-.006.023l-.007-.015Zm.587 2.98a.584.584 0 0 0 .003-.09.037.037 0 0 0 .046.003.039.039 0 0 0 .011-.012c.034.116.01.142-.064.103l.004-.004Zm.577.267a1.997 1.997 0 0 0-.322-.372l-.047-.033-.083-.124c.15.11.208.036.296.024.054.14.131.27.227.385a.495.495 0 0 0-.072.126l.001-.006Zm.583 1.334a1.1 1.1 0 0 0-.25-.345l-.008-.018.033.01-.01-.052c.054.056.12.097.194.12a.563.563 0 0 0 .065.01l.04.054a.196.196 0 0 0-.066.226l.002-.005Zm1.122-2.036a.114.114 0 0 0 .023-.086c.032.04.065.078.097.113-.04-.008-.08-.018-.12-.024v-.003Zm.595 5.982.003-.011.018.024-.021-.013Zm1.367-3.247a.624.624 0 0 0-.285-.195 6.072 6.072 0 0 0-.2-.21c-.32-.386-.614-.793-.88-1.22.07-.113.097-.303.458.126.1.131.17.18.22.177-.012.043-.05.058.004.17.3.38.617.583.913 1.035.098.144.172.282.166.376l-.396-.259Zm-.17 2.766.035.047.005.01-.04-.057Zm1.22 1.76v-.005l.007.009-.008-.004ZM1.928 38.28l-.027-.007-.004-.011c-.223-.47-.448-.806-.703-.801a1.85 1.85 0 0 0-.339-.701c.232.18.43.31.33-.075l-.02-.037.071.053c.074.02.114.006.119-.068.06.14.137.274.23.395l.016.017-.075.039c-.129.116.113.449.286.741.052.1.12.189.201.264.072.308.05.345-.09.19h.005Zm6.573 4.401-.015-.014a.409.409 0 0 1-.027-.058l.042.072Zm-.685 4.013-.01-.022.038.046a.017.017 0 0 0-.005.017c.06.11.026.066-.024-.041Zm.685.398-.01-.003.013.013-.003-.01Zm.6-2.027a.627.627 0 0 0-.042-.047c-.091-.065-.18-.129-.218-.095a2.739 2.739 0 0 0-.729-.946c-.138-.103-.303-.266-.36-.193a1.203 1.203 0 0 1-.199-.26c.346.19.183-.117.022-.42.374.12-.027-.337-.204-.624a1.023 1.023 0 0 0-.123-.127.679.679 0 0 0-.018-.176c.1.242.24.466.411.663a.698.698 0 0 0 .326.246.063.063 0 0 0 .043-.023c.058.092.1.193.123.3.17.294.375.566.61.81l.083.122c-.02.185.18.505.282.765l-.007.005Zm-.825 4.587.016.011c.03.018.059.038.087.06a.565.565 0 0 0 .03.092 1.693 1.693 0 0 0-.134-.163h.001Zm1.286-2.352.024.018-.01-.01.013.003.003.008-.03-.02Zm-.535 2.246.003-.008.009.014-.012-.006Zm.396 1.173-.007-.016.012.012.001-.006.007.01h-.013Zm.72-3.527c.052.059.109.113.169.163l.048.078a2.681 2.681 0 0 1-.218-.24l.002-.001Zm1.53 7.005c-.148-.15-.3-.342-.436-.417a.528.528 0 0 0-.098-.144c.049-.046.016-.175-.074-.364l-.056-.077.016-.017.015.017c.049.048.092.091.144.134.112.243.253.471.42.68.07.073.134.152.19.238.004.02.002.04-.006.06a.632.632 0 0 1-.118-.105l.003-.005Zm.528 1.796v-.026l-.012-.027.008.003.005.02.018.03h-.019Zm.812-2.693.003.001-.003.012V53.3Zm.59-1.556.003-.01.01.015a.057.057 0 0 0-.016 0l.003-.005Zm.64.472.02.033-.018-.018-.002-.015Zm-.477 5.757-.102.068c-.097-.096-.158-.116-.188-.078l-.052-.045a.074.074 0 0 1-.026.041l.002-.007a1.193 1.193 0 0 0-.304-.435 1.27 1.27 0 0 0-.122-.288.06.06 0 0 0 .038-.01.061.061 0 0 0 .024-.031l.145.214c.137.122.264.221.277.1l.314.467-.006.004Zm2.134-4.914-.007.004-.006-.016.013.012Zm-1.223 4.265.014.02c-.002.025-.01.007-.014-.014v-.006Zm-.002-.021c0-.022.009-.032.043.011l.056.1-.098-.111Zm-.07 1.936c-.038-.01-.06-.017-.073.006l-.05-.077c.027-.045.003-.142-.03-.244l.178.345-.026-.03Zm1.1-3.972.004-.016.022.034-.027-.018Zm.87-1.733.014.004.005.024-.02-.028Zm.35.043-.002-.023.008.03-.006-.007Zm-.263 1.556.011.013c.01.021.016.044.018.067a.402.402 0 0 0-.03-.08Zm-.364 7.52a.157.157 0 0 1 0-.04l.03.045-.03-.005Zm2.606-4.813.029.062a.11.11 0 0 1-.055-.028.15.15 0 0 1 .033-.042l-.007.008Zm-1.852 5.096-.055-.058a.528.528 0 0 1 .138-.214l.121.096c.12.237.12.426.308.691a.276.276 0 0 0 .028.17 28.546 28.546 0 0 0-.539-.696l-.001.01Zm.764-.004-.014-.047.032.047h-.018Zm1.284-4.43-.012-.004.002-.007.01.015V58.5Zm-1.082 4.472-.026-.038a.183.183 0 0 1 .034-.048.102.102 0 0 1-.008.086Zm1.396-.912a.058.058 0 0 0 .004-.015l.063.089-.067-.074Zm4.356-7.581.008.022-.019-.029.011.007Zm-.488-.642c-.007-.002-.01-.003-.01.012.003.063-.055-.104.01-.022v.01Zm-3.867 9.544c.023.044.045.089.064.135a1.23 1.23 0 0 0-.064-.144v.009Zm-.379 2.455-.016-.039-.076-.151c.04.055.08.11.123.158a.213.213 0 0 0-.03.022l-.001.01Zm.35-.915.004-.013.01.015-.013-.002Zm1.791-6.592.009.002.004.01-.013-.012Zm1.59-6.512c.13.05.252.122.358.215l.008.002.024.044.187.286a1.788 1.788 0 0 1-.173-.179 2.985 2.985 0 0 0-.405-.368Zm.192 1.328-.022-.03-.004-.012.026.042Zm0-.235-.01-.014.006.001.004.013Zm-1.84 8.273.002-.009.01.016-.013-.007Zm-.375 4.237-.008-.019.02.03-.012-.011Zm1.744-5.125c-.054.148-.302-.134-.448-.191l-.146-.096a1.009 1.009 0 0 1-.299-.34l-.154-.588a3.029 3.029 0 0 0-.102-.158l-.006-.008c.189.116.37.246.54.39.005.002.01.003.016.003l.006.002c.1.288.27.544.498.743a.684.684 0 0 0 .05.138l.05.098-.005.007Zm1.23-4.59.002-.006.005.007-.006-.002Zm-2.928 11.26.01.003.004.01-.014-.012Zm3.753-8.805c-.03-.045-.06-.088-.081-.132l.11.148-.03-.016Zm-.224 2.323-.005-.009.012.004-.007.005Zm.949-2.07a.06.06 0 0 0 .013-.011l.02.03-.033-.02Zm1.37-4.157a1.955 1.955 0 0 1-.115-.148l-.02-.044c.082.096.169.186.26.272a.486.486 0 0 0 .013.093 5.118 5.118 0 0 0-.135-.175l-.003.002Zm-2.197 9.184.013.004v.022l-.013-.026Zm2.222-4.673-.151-.213c.067.081.13.166.187.255l-.036-.042Zm-.242 2.612a.094.094 0 0 1 .004.017l-.014-.02.01.003Zm1.23-3.755.003-.009.01.003.012.017-.025-.011Zm2.793.655a.519.519 0 0 0 0 .08c-.05.045-.108.081-.087.191-.158-.224.018-.207.081-.273l.006.002Zm.317-1.804.028.053-.036-.038.008-.015Zm-.305 1.072-.007.006a.077.077 0 0 0-.008-.016l.015.01Zm-.084.161a.126.126 0 0 1 .025.014.054.054 0 0 1 .01.026l.003.015a.058.058 0 0 1-.005.019c-.003.01-.004.014-.016.01v-.026l-.003-.018a.38.38 0 0 0-.02-.041l.006.001Zm-.4 1.2.005.01-.007-.002.002-.008Zm-.2-.743.025.037.017.024c.01.017.017.036.02.056l-.047-.038-.024-.019-.012-.003-.021-.019c.02 0 .033-.012.036-.04l.005.002Zm-.445 2.006-.02-.03.003-.051c0 .023.006.05.012.08h.005Zm-.656 1.392a.355.355 0 0 1 .024.114l-.041-.057a.312.312 0 0 1 .012-.059l.005.002Zm-1.788 6.728.021.038-.028-.042.007.004Zm1.386-6.094-.026-.033.004-.014.022.046v.001Zm.83-3.343.019.027c-.008.034-.035-.013-.024-.029l.006.002Zm-2.591 9.862-.03-.037a1.715 1.715 0 0 1-.118-.195l.148.232Zm2.09-11.747.03.023.001.025-.03-.048Zm-3.102 13.893a.381.381 0 0 1-.02-.067l.05.082-.03-.015Zm3.004-11.524.021.027a.063.063 0 0 1-.026-.033l.005.006Zm.362-2.251-.064-.085a.55.55 0 0 0 .058-.356c.032.06.068.117.108.171.038.101.088.198.147.288.003.015.005.03.005.046 0 .04.002.08.01.12-.108-.111-.205-.2-.271-.19l.007.006Zm-3.121 18.508-.044-.062c-.324-.383-.633-.9-.95-1.327.281.247.65.698.926.957l.141.288-.073.144Zm1.76-6.367.067.084c.01.035.024.077.042.129a3.508 3.508 0 0 1-.116-.218l.006.005Zm3.041-10.087a.932.932 0 0 0-.127-.241.12.12 0 0 0 .13-.055.301.301 0 0 0 .105.203.116.116 0 0 0-.07.028.12.12 0 0 0-.038.065Zm-.002.343.01-.006-.005.02-.005-.014Zm-.985 6.727-.002.008-.007-.008h.01Zm-2.599 9.643.037.05-.039-.029.006-.02-.004-.001Zm-.341.804-.012-.003a1.747 1.747 0 0 0-.088-.214l.256.406-.156-.189Zm5.082-17.445a.567.567 0 0 0-.043-.225l.016-.004.036.052c.026.043.046.102.079.14a.089.089 0 0 0-.083.038l-.005-.001Zm-.093.859a.074.074 0 0 1 0-.025c0 .01.001.018.003.027l-.003-.002Zm-2.906 13.01-.009-.015.012.017-.003-.002Zm2.192-8.059-.007-.001.002-.008.008.011-.003-.002Zm.51-1.94c0-.04-.004-.092-.01-.16l.019.03c.009.096.003.132-.012.133l.004-.003Zm1.162-3.765.003-.013.001.018-.004-.005Zm.05.086.005-.055-.001.053-.004.002Zm1.398.212a.151.151 0 0 1-.023.02l-.004-.012a.039.039 0 0 1 .015-.004l.012-.004Zm-2.049 6.577.007.028-.013-.034.006.006Zm1.845-7.467a.079.079 0 0 1-.03.045l.002-.006a.273.273 0 0 1 .02-.033l.008-.006Zm-1.643 4.598-.002-.017.007.018-.005-.002Zm1.253-4.468.005-.018a.06.06 0 0 0 .037.035.072.072 0 0 1-.05-.011l.008-.006Zm.082.03-.021-.005.032-.003-.01.009Zm-.474 2.173a.062.062 0 0 1-.008-.015.194.194 0 0 0 .024-.02.229.229 0 0 1-.025.041l.009-.006Zm-4.087 15.704.018.025-.018-.019h-.008l.008-.005Zm-.514 2.273a2.439 2.439 0 0 0-.052-.113c.108.154.219.3.331.442l-.279-.33Zm6.413-22.672-.017.022c-.05.053-.04.031.008-.016l.008-.006Zm-2.75 10.325.027.007.015.062-.041-.069Zm1.351-4.419.017-.041.003.025-.02.016Zm.555-1.42.005-.018.007.009-.012.01Zm-2.423 9.47.032.035-.005.019-.027-.053Zm3.415-12.25-.142.148-.05.045-.1.09a.174.174 0 0 0-.053-.054.236.236 0 0 0 .006-.05c.05.014.085-.009.125-.036l.028-.02.016-.009.039-.035a.476.476 0 0 1 .146-.092l-.015.014Zm-1.251 4.965-.003-.012.01.003-.007.009Zm2.422-8.754c-.012-.003-.01-.013.002-.036.02-.01.04-.02.062-.026l-.064.062Zm-.398 2.543.002-.007.007.002-.01.005ZM32.035 71.87l-.055-.079.017.02.023.035c.009.01.016.03.027.007l.053-.058-.065.075Zm.724-2.428.008-.01-.003.012-.006-.002Zm5.665-13.372-.03.03c-.027.011.005-.019.032-.03h-.002ZM34.23 71.847c-.003.01-.011.018-.014.016l.014-.016Zm2.607-11.474a.046.046 0 0 1-.005.016l-.014-.003.019-.013Zm-1.554 1.914c-.007-.008.004-.015.016-.016l-.016.016Zm.02.025-.02.02a.065.065 0 0 0 .012-.019l.02-.035c.008.005.007.017-.011.037l-.002-.003Zm-1.654 6.747-.024.038-.015-.004a.711.711 0 0 1 .04-.038l-.001.004Zm1.36-5.238.014-.014-.004.015-.01-.001Zm1.707-6.36a.235.235 0 0 1-.021.01l.034-.033-.013.022Zm-2.5 11.757.003-.012.007.002-.01.01Zm4.09-15.491c.005.027.025.039.061.032l-.806.866c-.191.06-.19-.033.005-.278l.395-.472-.033-.034c.268-.127.5-.319.679-.558.107.06-.323.36-.296.45l-.006-.006Zm-2.214 8.959.018-.02a.212.212 0 0 1-.007.026l-.01-.006Zm-4.522 20.283-.08.076-.02.02c-.003.007-.014.018-.02.003l-.035-.054a8.655 8.655 0 0 0-.431-.596l-.02-.023c-.031-.166.09-.119.062-.282l.029.047-.012-.03.413.7.01.03c.003.015.007.002.01.011l.152.042-.058.056Zm3.448-12.155a.258.258 0 0 0 .002-.028l.031-.033a.658.658 0 0 1-.027.066l-.006-.005Zm.517-1.7.002-.008.089-.094a1.165 1.165 0 0 1-.086.106l-.005-.005Zm1.537-5.543-.002.007.008-.007h-.006Zm2.118-7.164-.022-.006.044-.026a.325.325 0 0 0-.016.037l-.006-.005Zm-1.335 5.716.033-.034a.24.24 0 0 1 .01.022l-.043.012Zm-.333 1.554-.055.072.002-.01.05-.05.003-.012Zm1.494-4.796.006-.02c.002-.007 0 0 .007.003l-.013.017Zm-2.198 8.754c.038-.053.073-.098.106-.143a.671.671 0 0 0 .054-.016l-.16.159Zm1.072-3.31.013-.02.008.002-.02.018Zm-1.927 8.403.04-.05c.02-.007.02-.002-.04.05Zm4.058-15.108-.013.005.01-.009-.1.061a.462.462 0 0 1 .117-.077l-.017.016.003.004Zm1.462-5.518.002-.006.007.001-.009.005Zm-7.252 27.915-.024.02.07-.083-.046.063Zm6.395-23.795-.008-.003.02-.02-.013.023Zm-.163.83-.01-.004.024-.016-.014.02Zm1.649-5.962a.309.309 0 0 1 .042-.056l-.042.056Zm-5.425 22.096.02-.031.006.001-.026.03Zm2.963-10.179-.066.074a.605.605 0 0 0-.117.04.757.757 0 0 1 .183-.114Zm4.148-14.775-.506.463-.051-.048-.033-.065c.077-.073.147-.153.209-.24.018.178.303-.124.499-.265a1.438 1.438 0 0 0-.07.079.41.41 0 0 0-.047.071l-.001.005ZM41.07 59.049a.526.526 0 0 1-.085.15.155.155 0 0 0-.002-.065l.087-.085Zm.236-.32-.041.042.024-.034.017-.009Zm-1.654 6.436-.013.007.004-.015.009.008Zm-.95 4.252c-.026.028-.035.045-.026.051.03.026-.104.09.031-.078l.075-.067-.08.094Zm5.942-21.35-.01.008.01-.011v.003Zm.456-1.093c-.045-.049-.07-.118-.168-.114.072-.065.141-.132.208-.2.024.013.05.016.076.009l.01-.006-.127.311Zm-1.98 9.357-.01-.003.017-.005-.008.008Zm3-5.272a.538.538 0 0 0 .019-.017l-.019.017Zm-1.84 7.147-.007-.008.012-.003s-.003-.002-.009.005l.005.006Zm2.002-7.57.08-.095.107-.096-.187.192Zm1.47-4.851.032-.032c.023-.014.018-.01-.037.026l.005.006ZM41.13 71.172a.943.943 0 0 1 .04-.107.557.557 0 0 1 .142-.103l-.182.21Zm5.186-19.32a.12.12 0 0 1 .066.026l-.046.042c-.032-.017-.035-.042-.024-.075l.004.006ZM44.503 58.9c.007-.024.007-.048.012-.074l.063.002-.075.072Zm3.028-13.907c.01.009.02.02.027.03-.13.1-.248.217-.35.347a.892.892 0 0 0-.423.291c-.357.278-.386.407-.346.506-.181.148-.363.294-.542.452a2.199 2.199 0 0 0-.08.083l-.067-.06.02-.026c-.201.008.02-.118.15-.222a.471.471 0 0 0 .1-.114c.14-.09.256-.213.34-.358l.007.001c.15-.078.291-.173.421-.283.166-.14.321-.293.466-.455a.73.73 0 0 0 .219-.39.618.618 0 0 0 .196-.19l.007.002a.94.94 0 0 0 .182-.082c.36-.286.504-.215.746-.305-.36.273-.72.42-1.078.767l.005.006Zm-2.095 11.276.011-.042.064-.03-.075.072Zm-2.317 8.977a.218.218 0 0 1-.007.027l-.034.009.04-.036Zm-.899 3.353.068-.086a.408.408 0 0 1 .103-.075 3.857 3.857 0 0 0-.175.155l.004.006Zm.73-1.545-.012.004.113-.134c-.04.04-.074.083-.105.124l.004.006Zm4.302-15.888-.014.008.01-.008h.004Zm2.25-8.514-.147.118-.091-.093-.302.27c-.071.085-.209.244-.2.244.112.01.324-.311.446-.284-.107.219-.364.395-.577.582l-.197.092c-.174.257-.55.446-.71.707l-.37.202a.91.91 0 0 0 .06-.101l.02-.05.723-.789.154-.119c.167-.105.3-.205.284-.282a1.07 1.07 0 0 0 .127-.166.33.33 0 0 0 .066-.018c.086-.048.168-.102.245-.162.268-.197.508-.43.713-.694a.078.078 0 0 0 .066.008l-.245.296c.136.069.3-.11.47-.312a.038.038 0 0 0 .007.029.038.038 0 0 0 .012.01l.014.004-.116.108-.452.4Zm.153.896.008-.032a.063.063 0 0 1 .027-.003l-.035.035Zm.176-.52c-.15.081-.293.175-.428.282a.243.243 0 0 0 .008-.027c.16-.24.297-.506.612-.544a.67.67 0 0 0-.19.293l-.002-.003Zm.703-1.981-.037.03.036-.045-.004.014h.005Zm-3.685 14.592a.181.181 0 0 1 .006-.023l.013-.02a.21.21 0 0 1 .02-.03c0 .022-.018.049-.035.076l-.004-.003Zm2.404-8.297a.066.066 0 0 0 .019.005l-.038.033c.012-.012.015-.025.019-.038Zm-4.167 15.786.034-.022-.006.022h-.028Zm.39-1.014-.02.005h-.027l.085-.041-.039.036Zm1.126-2.522-.024.016.003-.009-.04.026.041-.028.02-.005Zm-1.211 4.653-.057.054.08-.08-.023.026Zm1.147-4.224-.052.063-.013-.003c-.004-.03.12-.123.061-.061h.004Zm.775-2.777a1.344 1.344 0 0 0-.245.121.45.45 0 0 1 .246-.123v.002Zm3.313-11.938-.024.022a.096.096 0 0 0 .005-.047l.019.024v.001Zm-4.878 18.54a.665.665 0 0 0 .053-.126l.053-.052a.57.57 0 0 1-.11.177l.004.001Zm1.274-4.67c-.007-.002.011-.018.03-.029l-.03.03Zm-.657 2.734-.03.014.033-.038-.004.024Zm4.84-17.81-.007.004.002-.009.008.002-.002.003Zm.811-1.834-.086.076a.117.117 0 0 1 .003-.052.142.142 0 0 1 .083-.024Zm-4.283 16.66a.045.045 0 0 1-.017-.005l.054-.022-.037.027Zm-1.396 7.64a.995.995 0 0 0 .118-.234c.102-.06.196-.136.278-.222-.099.179-.234.334-.396.457Zm5.137-18.483-.131.123c-.022.021-.03.034-.026.041l-.002.007.002-.006.016.005c.061-.001-.094.054-.003-.037.091-.092.193-.192.291-.286l-.147.153Zm-.87 4.18.014-.019c.087-.064.057-.034-.012.02l-.002-.001Zm1.502-5.62-.014.01.057-.056-.043.045ZM49.62 57.21l.003-.01.01-.004-.013.014Zm-.77 3.773a.123.123 0 0 0-.024-.025l.042-.038a.146.146 0 0 1-.013.065l-.005-.002Zm4.322-15.483c.042-.003-.005.017-.022.018l.022-.018ZM50.182 56.97l.004-.016.013-.004-.017.014v.006Zm2.418-9.233a.29.29 0 0 1 .062-.114c.02-.001.041.001.06.008l-.122.106Zm-2.344 9.334-.002.006.011-.015-.01.009Zm3.411-10.884-.026.029-.008-.008.034-.021Zm.141-1.224.004-.013.05-.044-.054.057Zm-.87 4.006c-.052.03-.108.057-.165.08.066-.033.133-.066.191-.103l-.025.023Zm.931-2.509-.015.014.002-.007.013-.007Zm-3.056 11.08a.129.129 0 0 1 .007-.029l.06-.033-.067.062Zm1.886-6.888.04-.061.055-.034-.094.09-.001.005Zm2.7-8.43c-.015-.003.002-.01.008-.005l-.009.006Zm-1.105 6.975.004-.013.003.008-.007.005Zm1.967-4.735.004-.015.01.003-.014.012Zm-1.148 6.367.003-.011.01.003-.013.008Zm.765-2.137.02-.024.026-.014-.046.038Zm1.751-6.296.01-.005-.01.008v-.003Zm-2.188 8.303.057-.058.012.012.027-.024s-.002.007.008.01c.055.005-.093.047-.1.055l-.004.005Zm4.06-15.042-.01.005.029-.021-.018.016Zm1.927-1.785-.055.02a.1.1 0 0 1 .062-.024l-.007.004ZM56.095 56.22l-.015.014c-.087.085-.165.179-.232.28a.14.14 0 0 0-.01.042c-.216.1-.36.286-.51.466.026-.157.237-.37.436-.58a.728.728 0 0 0-.373.166.265.265 0 0 1-.026-.06l.115-.112.01.003c.115-.056.22-.129.312-.216.112-.13.235-.251.367-.36-.115.118-.302.27-.165.283a.448.448 0 0 0 .119-.098.039.039 0 0 0 .039.033l.017-.005-.084.144Zm2.127-7.932.033-.03c.009.003.01.014.005.028a.26.26 0 0 1-.031-.003l-.007.005Zm2.965-10.324-.008-.002.019-.015-.011.017Zm-4.369 16.73-.012.014a.294.294 0 0 1 .052-.072l-.04.058Zm.062-.081-.01.009.015-.016-.005.007Zm6.56-21.523a.41.41 0 0 1-.055.053l.054-.053Zm-.187-.169-.067.056c.05-.061.065-.071.076-.061l-.01.005Zm-5.61 21.661c-.086.036-.17.071-.257.095l-.08.038.487-.423c-.087.122-.162.238-.15.29Zm4.944-18.322a.54.54 0 0 1 .062-.023c-.03.025-.06.05-.088.076l.026-.053Zm.022.255-.074.062-.018-.018.092-.044Zm-.717 3.38.012-.01.006.002a.064.064 0 0 0-.02.008h.002Zm.012-.01-.026-.007a.729.729 0 0 1 .06-.022l-.034.03Zm.275.036-.018.014.004-.014.01.003.004-.003Zm2.155-8.213a.104.104 0 0 0-.015-.01l.084-.066-.07.076Zm-1.385 9.261a.12.12 0 0 1-.005.019l-.014-.004.02-.016v.001Zm-1.478 6.715.012-.01s-.002.008-.01.01h-.002Zm2.02-6.309-.012.018-.017.002.029-.02Zm-.986 3.849.003-.011a.013.013 0 0 1 .016.004l-.019.002v.005Zm-.513 1.949a.423.423 0 0 0 .045-.03l-.045.03Zm1.1-1.429c.08-.062.163-.118.25-.167-.1.078-.177.143-.24.2a.278.278 0 0 0-.01-.033Zm-.721 3.945a.621.621 0 0 0-.048.121 2.436 2.436 0 0 0-.183.046.954.954 0 0 0 .23-.167Zm-.284.597c-.004-.027-.042-.029-.137.009l-.01.006c.111-.141.255-.254.418-.329a.032.032 0 0 0 .012.004.184.184 0 0 0 .069-.004c-.117.11-.231.214-.353.314h.002Zm5.137-17.496a.199.199 0 0 1 .017-.035l.032-.001-.049.036Zm-.008.331.029-.033.015.004-.044.03ZM64.67 43.264l.143-.105a.271.271 0 0 1-.014.027c-.056.036-.1.062-.13.077Zm2.212-6.936-.027.023c-.032.003.001-.016.026-.023h.001Zm-.324 1.12.173-.179c-.049.055-.096.108-.135.155l-.038.024Zm1.43-2.791.016-.006-.01.007-.007-.002Zm-2.224 8.514-.014.003.018-.018-.004.015Zm1.75-6.6-.028.023c.014-.021.03-.041.046-.062l-.017.039Zm-.431 1.868.023-.037h.03l-.053.037Zm-.852 4.036-.002.007.002-.01-.03.012a.183.183 0 0 1 .033-.014l-.003.005Zm3.07-10.582a.03.03 0 0 1-.013-.015.173.173 0 0 1 .046.001.162.162 0 0 1-.039.01l.006.004Zm-2.824 12.865.02-.026.013.003-.033.023Zm5.117-18.234-.016.002.022-.015-.006.013Zm-.887 5.03a.52.52 0 0 1-.11.053l.198-.126-.088.073Zm-.124 1.494c.016-.003.02.006.01.036a.381.381 0 0 1-.06.017l.05-.053Zm-.294 1.29a.286.286 0 0 0-.013.048l-.042-.002.055-.046Zm-1.266 4.886-.018.009-.013-.013c.01.002.021.006.033.002l-.002.002Zm.202-.507.034-.027.008.012a.156.156 0 0 1-.038.016l-.004-.001Zm2.083-7.565-.008-.002.037-.027-.029.029Zm-.15 1.818.052-.039.006.052a.208.208 0 0 1-.057-.013Zm-.425 2.833.032-.037.013.003-.045.034Zm1.18-3.23-.009.005c-.014.003-.002-.007.01-.008v.003Zm-.449 1.802-.041.025.045-.034-.004.009Zm.362-1.162-.024.013.026-.02-.002.007Zm1.533-4.334.003-.012.005.001-.008.011Zm-1.916 8.027a.064.064 0 0 0-.004-.017l.03-.003-.026.02Zm-.138.754a.308.308 0 0 0-.017.065c-.004 0-.007 0-.01-.002a.022.022 0 0 1-.008-.004.024.024 0 0 1-.008-.017l.047-.04-.004-.002Zm2.253-7.728.032-.02.008.01-.04.01Zm.735-.653c-.027.005-.034 0-.032-.009l.06-.029a.336.336 0 0 1-.026.033l-.002.005Zm5.685-10.832-.061.073-.01-.026.07-.047Zm-2.623 1.102c-.106.048-.148.056-.157.041a.783.783 0 0 0 .157-.041ZM72.14 38.703a.28.28 0 0 1 .07-.023l-.07.023Zm1.123-3.69-.023-.005.03-.02a.232.232 0 0 0-.007.023v.003Zm1.255-1.925-.013.01.015-.02-.002.01ZM77.31 22.49l-.018.004.033-.022-.016.018Zm-3.106 13.668.003-.01.026-.01-.029.02Zm2.636-7.37c-.062.059-.13.11-.205.152l.382-.272.034-.02-.211.14Zm.764-3.291c-.04-.02.087-.039.018.025a.854.854 0 0 0-.082.042l.045-.034c.032-.019.037-.03.028-.035l-.009.002Zm-.643 2.762.004-.015.016.004-.02.011Zm1.835-6.367.002-.01-.009.009-.014.015.011-.014h.01Zm-2.484 10.74.046-.072c.005.003.01.007.012.012.003.005.004.01.004.016l-.062.044Zm-1.485 6.073a.019.019 0 0 0-.002.008l.002-.008Zm.21-.068-.02.01.024-.019-.004.009Zm3.013-11.092-.018.013.092-.077a.49.49 0 0 1-.075.065h.001Zm.075-.09c-.023-.014.007-.026.017-.008l-.017.007Zm-1.599 6.303.013-.01c.094-.071.196-.13.305-.174l-.318.184Zm1.49-5.678c.023-.013.042-.026.063-.04l-.018.02-.044.02Zm1.644-5.897.01-.007v.006l-.01.001Zm-1.146 5.427-.062.045.071-.067-.01.022ZM79.308 25l-.054.036.024-.026.032-.012-.002.002Zm-2.75 10.802.016-.012a.077.077 0 0 0-.007.028l-.008-.017Zm.036.054-.01-.016a.058.058 0 0 0 .02.005l.01-.004-.02.015Zm1.012-2.27v.008a.014.014 0 0 0 .006.006l.003.018a.026.026 0 0 1-.01-.031Zm.5-.584a.09.09 0 0 0-.03-.008l.057-.04a.23.23 0 0 1-.027.049Zm2.204-7.877-.01-.016.046-.026-.036.042Zm1.01-3.763a.311.311 0 0 1 .129-.052l-.13.052Zm.124-.047.04-.012c-.005.005-.02.009-.035.013l-.005-.001Zm-3.43 13.229c-.004-.017.01-.038.032-.063a.046.046 0 0 1 .011.033l-.042.03Zm4.606-16.967c-.375.316-.196.367-.156.485-.247.088-.477.22-.68.39a.54.54 0 0 0-.132.163l-.26.237.044.12c-.164.11-.334.243-.477.26l.024-.013c.096-.082.163-.153.069-.152-.542.177-1.248.627-1.709.661a.089.089 0 0 0 .033-.046c.006-.022-.015-.024-.066-.006l-.163.106a.782.782 0 0 0-.389.28c-.037.144-.154.31-.4.513-.139.117-.247.226-.26.312a.056.056 0 0 0 .037.023c-.234.112-.478.2-.73.262-.208.164-.381.39-.658.431-.033.015-.062.03-.091.046l.075-.06c.285-.229.063-.349.541-.618a.229.229 0 0 0 .07-.142c-.012-.038-.064-.038-.133-.021.406-.255.813-.504 1.215-.769a4.35 4.35 0 0 0 .536-.406.261.261 0 0 0 .046-.068c.157.096.54-.222.81-.33.324-.133.593-.376.883-.581.196-.118.39-.238.558-.366a2.92 2.92 0 0 0 .24-.198c.07-.063.135-.133.193-.207.032.079.19.03.398-.067.188-.13.395-.233.612-.303a.748.748 0 0 0-.076.065l-.004-.001Zm-1.488 6.723-.071.052c.053-.037.067-.055.039-.052-.074.008.144-.073.037 0h-.005Zm.666-1.647a.038.038 0 0 0 .002-.01l-.01.006.008.004Zm-1.3 5.009-.009-.014a.084.084 0 0 0 .027 0l-.019.014Zm-1.768 8.56-.057.018.067-.044-.01.026Zm.728-1.7-.066.025.082-.057-.015.029-.001.003Zm3.052-10.296.048-.033-.005.016-.043.017Zm-.41 2.49-.035.017c.023-.017.048-.034.073-.05l-.039.034Zm1.638-5.801.047-.05a.091.091 0 0 1 .04-.001l-.086.048v.003Zm-3.61 14.433-.008-.01.013.004-.004.006Zm3.09-11.479-.014.008.08-.052-.066.044Zm.153-.11c-.04-.025.031-.04.001-.004v.003Zm-1.537 6.783.07-.066.012.003-.082.063Zm-.43 2.51.008.003c.057.004-.104.075-.013-.007l.005.005Zm4.47-13.904c.003-.008.005-.017.016-.026l.126-.072a1.664 1.664 0 0 1-.145.09l.004.008Zm-3.412 13.514-.021.007.062-.037a.127.127 0 0 1-.044.022l.003.008Zm2.204-7.175-.032.006.045-.032-.013.026Zm2.281-8.102.01-.012.006.002-.016.01Zm-1.85 8.822-.012.017a.058.058 0 0 1-.013-.004l.025-.013Zm-1.61 6.078c-.015.018-.045.03-.033.007l.062-.04a.16.16 0 0 0-.035.032l.005.001Zm4.883-16.31-.04.07-.088.01.128-.08Zm-3.048 11.41.034-.023.017.005-.051.017Zm1.842-5.284-.006-.002.007-.005-.001.007Zm.815-3.207.003-.012.038-.01-.041.023ZM85.922 30.58c-.06.049.078.016-.042.088a.64.64 0 0 0-.098.073l-.14.023.24-.295.261-.173c-.008.032.006.044.035.045-.097.069-.185.15-.262.24h.006Zm7.613-4.658a.58.58 0 0 1-.119.103l.119-.103Zm-3.414 2.047.816-.465c.185-.153.38-.292.583-.418.06.055-.045.194-.044.278l-.277.174a2.582 2.582 0 0 0-.4.17c-.244.12-.475.264-.69.43-.083.066-.152.136-.226.2l-.151.088a.127.127 0 0 0-.063-.024c.04-.142.357-.288.452-.433Zm-1.358-5.634.033-.02c.027.005-.015.02-.037.019h.004Zm-1.436 6.324.028-.024a.522.522 0 0 0 .158-.027.363.363 0 0 1-.185.052h-.001Zm1.004-2.98.022-.02.02-.006-.042.025Zm.032.056.075-.047.001.03c-.024.007-.05.014-.075.017Zm2.306-7.956a.162.162 0 0 1-.031-.026.395.395 0 0 1 .113-.022l-.082.048Zm-1.91 8.644.011-.008s-.012-.003-.014.002l.003.006Zm2.34-8.88-.004-.007.044-.022-.04.03Zm.319 1.78a.022.022 0 0 0-.013-.003c-.064-.012.07-.046.013.004Zm-1.214 6.507-.018-.005.031-.009-.013.014Zm2.396-3.574-.007-.002c.003-.015.019-.026.03-.038l.025.007-.048.033Zm1.583-5.175a.182.182 0 0 1-.078.063l.078-.063Zm-.256 2.807.014-.015-.002.006-.012.009Zm3.045-6.064-.022.008.035-.015-.013.007Zm-.057 1.741-.013.002.02-.014-.007.012Zm.657-2.086.002-.008.006.002-.008.006Zm-.7 5.363.012-.011.008.002-.02.01Zm2.413-9.32a.334.334 0 0 1 .127-.083l.248-.066-.375.149Zm-2.23 10.523a.08.08 0 0 0 .005-.021l.03-.017a.237.237 0 0 1-.031.04l-.004-.002Zm2.066-7.643a.2.2 0 0 1 .04-.018l-.052.029.012-.011Zm-.895 3.472.017-.01.01.002a.164.164 0 0 0-.023.01l-.004-.002Zm-.26 1.724.018-.01-.004.015-.015-.005Zm2.051-5.824.003-.012.007.002-.01.01Zm1.723-2.299.017-.008a1.351 1.351 0 0 1-.003.01.105.105 0 0 1-.015.002l.001-.004Zm-.245 1.25-.015.008.018-.014-.002.008-.001-.001Zm-.023 3.525.043-.032.031-.002-.074.034Zm.232.034-.004-.01.017-.005-.008.016-.005-.001Zm.244-.82.017-.017.011.003-.028.014Zm1.037-3.146a.209.209 0 0 0-.054.102l-.072-.012c.028-.016.057-.033.085-.052l.039-.04.002.002Zm-1.103 4.751.076-.043a.099.099 0 0 0-.009.034l-.067.01Zm1.534-4.4-.014.012.033-.026-.019.015Zm.023 3.502.065-.052.013.013-.078.04Zm.36-1.337.021-.032.025.007-.045.023-.001.002Zm1.285-4.996-.374.107c-.061-.047-.554.19-.256-.093l.535-.275a.209.209 0 0 0-.009.035c.01.083.054.145.189.16l.023-.002-.108.068Zm.635 1.29-.011.006c-.083.006.12-.072.016-.008l-.005.002Zm-.317 2.078-.008-.002.012-.006-.004.008Zm2.237-3.944-.007-.002.013-.012-.006.014Zm-.053 1.268.017-.019.011.003-.028.016Zm.897-1.776-.011.004.01-.007.001.003Zm-.173 4.724a.135.135 0 0 0 .02-.022h.021l-.041.022Zm.021-.955c-.012-.004-.025.004-.038.005l.059-.031-.021.026Zm.003 1.014a.21.21 0 0 0-.009.036.468.468 0 0 1-.073.009l.085-.044h-.003Zm1.396-2.62.265-.131c.094-.04.191-.07.29-.093.037-.01.074-.025.11-.039a1.195 1.195 0 0 1-.668.259l.003.004Zm.959-.108-.008-.002.017-.008-.009.01Zm.591-2.091-.014.002.011.003.003-.005Zm3.029-2.254c-.086.056-.143.106-.152.142a1.04 1.04 0 0 0-.247.057c.118-.104.217-.234.397-.203l.002.004Zm-2.314 2.233a.491.491 0 0 1 .066-.006l-.066.006Zm.237-.222-.012.009.002-.009.026-.019-.02.016.004.003Zm-.318 3.132.02-.015a.244.244 0 0 1 .058.001.313.313 0 0 0-.08.01l.002.004Zm1.384-3.935-.056.01c-.495.17-.976.55-1.476.637l-.034.023-.194-.038c.136-.1.112-.151.103-.207.299-.144.477-.273.434-.37l.049-.04c.084-.08.137-.151.206-.228l.019-.018.439-.102c-.008.093.075.128.264.097.249-.068.482-.188.682-.353l.076-.07.061-.01a1.25 1.25 0 0 0 .41-.156c-.031.119.148.077.327.03a.727.727 0 0 0-.3.322l-.588.275c-.208-.013-.315.096-.43.193l.008.005Zm.667 1.855.058-.028a.074.074 0 0 0 .003.026c-.022 0-.044 0-.066-.003l.005.005Z" fill="#FF0808"/></svg>