<svg width="286" height="144" fill="none" xmlns="http://www.w3.org/2000/svg"><g filter="url(#a)"><path d="m72.085 103.787 18.662 33.237 19.158-33.753-37.82.516Z" fill="#87A663"/><path d="m129.288 99.277 35.354 32.273 7.526-42.308-42.88 10.035ZM12.262 94.716l11.605 40.904 26.693-33.676-38.298-7.228Z" fill="#EF704D"/><path d="m189.273 81.374 42.876 20.07-4.561-45.615-38.315 25.545Z" fill="#87A663"/><path d="m238.536 44.77 44.818 7.868-20.186-41.054-24.632 33.186Z" fill="#EF704D"/><path d="M87.735 105.143a240.38 240.38 0 0 0 39.625-3.17c30.895-5.158 59.119-16.546 83.887-33.851a204.084 204.084 0 0 0 46.033-44.566C266.867 10.722 271.633.38 271.812 0h-3.153c-.171.363-17.664 36.732-59.247 65.737C171.059 92.493 102.921 118.263 0 89.203v2.901c30.75 8.687 60.117 13.039 87.735 13.039Z" fill="#69855B"/></g><defs><filter id="a" x="-2" y="0" width="287.354" height="143.024" filterUnits="userSpaceOnUse" color-interpolation-filters="sRGB"><feFlood flood-opacity="0" result="BackgroundImageFix"/><feColorMatrix in="SourceAlpha" values="0 0 0 0 0 0 0 0 0 0 0 0 0 0 0 0 0 0 127 0" result="hardAlpha"/><feOffset dy="4"/><feGaussianBlur stdDeviation="1"/><feComposite in2="hardAlpha" operator="out"/><feColorMatrix values="0 0 0 0 0 0 0 0 0 0 0 0 0 0 0 0 0 0 0.2 0"/><feBlend in2="BackgroundImageFix" result="effect1_dropShadow_46_69"/><feBlend in="SourceGraphic" in2="effect1_dropShadow_46_69" result="shape"/></filter></defs></svg>